<svg width="24" height="24" viewBox="0 0 24 24" fill="none" xmlns="http://www.w3.org/2000/svg">
<rect width="24" height="24" rx="12" fill="#FACA15"/>
<path d="M11.9999 4.49976C12.4142 4.49976 12.7499 4.83554 12.7499 5.24976V5.99976C12.7499 6.41397 12.4142 6.74976 11.9999 6.74976C11.5857 6.74976 11.2499 6.41397 11.2499 5.99976V5.24976C11.2499 4.83554 11.5857 4.49976 11.9999 4.49976Z" fill="white"/>
<path d="M6.66961 6.66943C6.9625 6.37653 7.43738 6.37653 7.73027 6.66943L8.25527 7.19443C8.54816 7.48732 8.54816 7.96219 8.25527 8.25509C7.96238 8.54798 7.4875 8.54798 7.19461 8.25509L6.66961 7.73009C6.37672 7.43719 6.37672 6.96232 6.66961 6.66943Z" fill="white"/>
<path d="M17.3303 6.66943C17.6232 6.96232 17.6232 7.43719 17.3303 7.73009L16.8053 8.25509C16.5124 8.54798 16.0375 8.54798 15.7446 8.25509C15.4517 7.96219 15.4517 7.48732 15.7446 7.19443L16.2696 6.66943C16.5625 6.37653 17.0374 6.37653 17.3303 6.66943Z" fill="white"/>
<path fill-rule="evenodd" clip-rule="evenodd" d="M14.3727 16.1279C14.3951 16.0897 14.4142 16.0492 14.4296 16.007C14.5129 15.8454 14.6194 15.6962 14.7461 15.5646C15.4783 15.0006 16.0194 14.2245 16.2952 13.3415C16.5769 12.44 16.5677 11.4727 16.269 10.5767C15.9703 9.68073 15.3973 8.90141 14.6311 8.34917C13.8649 7.79692 12.9444 7.49976 11.9999 7.49976C11.0555 7.49976 10.1349 7.79692 9.36874 8.34917C8.60255 8.90141 8.02953 9.68073 7.73086 10.5767C7.4322 11.4727 7.42302 12.44 7.70463 13.3415C7.98047 14.2245 8.5216 15.0006 9.25373 15.5646C9.38036 15.6961 9.48681 15.8451 9.57002 16.0066C9.58552 16.0491 9.60476 16.0898 9.62734 16.1284C9.64749 16.1755 9.66574 16.2236 9.68202 16.2724C9.77509 16.5516 9.80113 16.8488 9.75803 17.1399C9.75264 17.1763 9.74994 17.213 9.74994 17.2498C9.74994 17.8465 9.98699 18.4188 10.4089 18.8407C10.8309 19.2627 11.4032 19.4998 11.9999 19.4998C12.5967 19.4998 13.169 19.2627 13.5909 18.8407C14.0129 18.4188 14.2499 17.8465 14.2499 17.2498C14.2499 17.213 14.2472 17.1763 14.2419 17.1399C14.1988 16.8488 14.2248 16.5516 14.3179 16.2724C14.3342 16.2234 14.3525 16.1752 14.3727 16.1279ZM11.9999 8.99976C11.3703 8.99976 10.7566 9.19787 10.2458 9.56603C9.73501 9.93419 9.353 10.4537 9.15389 11.0511C8.95478 11.6484 8.94866 12.2933 9.1364 12.8943C9.32414 13.4953 9.69622 14.022 10.1999 14.3998C10.2273 14.4203 10.2532 14.4427 10.2776 14.4667C10.442 14.6295 10.5887 14.8082 10.7158 14.9998H13.2841C13.4112 14.8082 13.5579 14.6295 13.7223 14.4667C13.7466 14.4427 13.7726 14.4203 13.7999 14.3998C14.3037 14.022 14.6757 13.4953 14.8635 12.8943C15.0512 12.2933 15.0451 11.6484 14.846 11.0511C14.6469 10.4537 14.2649 9.93419 13.7541 9.56603C13.2433 9.19787 12.6296 8.99976 11.9999 8.99976ZM12.7415 16.4998H11.2584C11.287 16.7625 11.2848 17.0285 11.2511 17.2922C11.2615 17.4756 11.339 17.6495 11.4696 17.7801C11.6103 17.9207 11.801 17.9998 11.9999 17.9998C12.1988 17.9998 12.3896 17.9207 12.5303 17.7801C12.6609 17.6495 12.7384 17.4756 12.7487 17.2922C12.7151 17.0285 12.7129 16.7625 12.7415 16.4998Z" fill="white"/>
<path d="M4.49994 11.9998C4.49994 11.5855 4.83573 11.2498 5.24994 11.2498H5.99994C6.41415 11.2498 6.74994 11.5855 6.74994 11.9998C6.74994 12.414 6.41415 12.7498 5.99994 12.7498H5.24994C4.83573 12.7498 4.49994 12.414 4.49994 11.9998Z" fill="white"/>
<path d="M17.2499 11.9998C17.2499 11.5855 17.5857 11.2498 17.9999 11.2498H18.7499C19.1642 11.2498 19.4999 11.5855 19.4999 11.9998C19.4999 12.414 19.1642 12.7498 18.7499 12.7498H17.9999C17.5857 12.7498 17.2499 12.414 17.2499 11.9998Z" fill="white"/>
</svg>
