<svg width="1400" height="319" viewBox="0 0 1400 319" fill="none" xmlns="http://www.w3.org/2000/svg">
<g opacity="0.12" clip-path="url(#clip0_256_1612)">
<path d="M1763.73 146.189L1763.93 145.707L1757.82 144.135C1640.15 113.927 1518.48 82.7038 1422.67 29.5128C1414.93 25.217 1407.11 20.7607 1399.55 16.4561C1369.32 -0.7626 1338.05 -18.566 1302.85 -31.5075C1241.4 -54.0797 1172.21 -60.4285 1112.64 -63.6659C1073.74 -65.7769 1034.32 -66.8269 996.2 -67.8281C943.997 -69.2148 890.015 -70.6423 836.646 -74.8319C726.853 -83.4657 639.094 -102.913 568.359 -134.295C547.434 -143.581 527.393 -154.232 508.018 -164.528C482.728 -177.972 456.575 -191.867 428.2 -202.849C332.375 -239.931 220.953 -241.323 124.032 -239.715C117.097 -239.594 110.127 -239.48 103.172 -239.351C8.5316 -237.64 -89.3185 -235.863 -181.925 -260.467L-182.14 -259.989C-89.3423 -235.336 8.60139 -237.118 103.317 -238.837C110.29 -238.962 117.246 -239.091 124.178 -239.201C220.988 -240.807 332.263 -239.422 427.854 -202.431C456.16 -191.473 482.296 -177.582 507.556 -164.165C526.946 -153.856 547.019 -143.187 567.979 -133.894C638.865 -102.449 726.764 -82.9744 836.701 -74.3241C890.105 -70.1277 944.105 -68.6967 996.31 -67.3208C1034.41 -66.3123 1073.82 -65.2656 1112.71 -63.1547C1172.19 -59.9236 1241.26 -53.5879 1302.55 -31.068C1337.67 -18.1651 1368.91 -0.379342 1399.09 16.8183C1406.65 21.123 1414.48 25.5826 1422.22 29.8892C1518.13 83.1438 1639.88 114.395 1757.62 144.616L1763.73 146.189Z" fill="url(#paint0_linear_256_1612)"/>
<path d="M1761.12 156.652L1761.31 156.17C1640.76 126.77 1514.97 93.5583 1418.14 39.5712C1409.66 34.8491 1401.13 29.9484 1392.87 25.2135C1363.24 8.22548 1332.6 -9.34381 1298.63 -22.5652C1238.77 -45.8896 1171.04 -54.7004 1112.68 -60.2436C1057.05 -65.5292 1003.2 -69.0879 938.606 -73.1882C907.149 -75.2103 878.707 -76.7483 851.674 -77.8769C847.729 -78.0446 843.805 -78.2195 839.899 -78.3911C826.815 -78.9898 816.123 -79.5534 806.242 -80.1853C757.741 -83.2707 715.206 -88.6092 676.237 -96.4864C640.062 -103.741 606.078 -113.723 575.244 -126.132C551.69 -135.601 528.991 -146.904 507.028 -157.838C499.806 -161.434 492.353 -165.141 484.932 -168.753C470.813 -175.632 452.022 -184.526 431.983 -192.295C419.807 -197.022 406.941 -201.432 393.745 -205.42C359.038 -215.892 324.545 -223.012 288.285 -227.188C244.926 -232.19 200.834 -232.52 162.895 -232.435C151.999 -232.416 140.362 -232.316 126.263 -232.118L114.092 -231.952C86.987 -231.569 58.9382 -231.178 31.2088 -231.459C-83.3413 -232.599 -143.517 -244.687 -183.12 -255.072L-183.335 -254.593C-107.782 -234.772 -28.9351 -231.53 31.3312 -230.926C59.0782 -230.642 87.1299 -231.044 114.235 -231.427L126.406 -231.593C140.484 -231.784 152.121 -231.884 163.018 -231.902C200.919 -231.984 244.99 -231.646 288.261 -226.662C324.431 -222.492 358.853 -215.386 393.492 -204.938C406.656 -200.967 419.505 -196.561 431.648 -191.851C451.652 -184.089 470.411 -175.213 484.515 -168.348C491.919 -164.74 499.371 -161.032 506.594 -157.437C528.574 -146.5 551.307 -135.19 574.892 -125.692C605.811 -113.255 639.865 -103.26 676.108 -95.9804C715.148 -88.0896 757.72 -82.755 806.292 -79.6559C816.19 -79.0206 826.9 -78.4536 839.983 -77.8549C843.907 -77.6799 847.829 -77.4942 851.759 -77.3407C878.792 -76.2121 907.216 -74.6775 938.673 -72.6554C1003.27 -68.5551 1057.09 -64.9891 1112.71 -59.7069C1170.98 -54.1701 1238.59 -45.3831 1298.31 -22.1076C1332.21 -8.92142 1362.8 8.62685 1392.4 25.5972C1400.66 30.3322 1409.21 35.2362 1417.69 39.9691C1514.6 93.9949 1640.48 127.234 1761.12 156.652Z" fill="url(#paint1_linear_256_1612)"/>
<path d="M1758.48 167.111L1758.66 166.626C1708.48 155.022 1642.68 139.084 1578.76 118.643C1513.03 97.6103 1458.98 75.0306 1413.58 49.6219C1404.26 44.4099 1394.88 38.9944 1385.83 33.7549C1356.92 17.0538 1327.01 -0.21438 1294.37 -13.6413C1236.44 -37.5418 1172.81 -48.5384 1112.7 -56.8398C1050.56 -65.4231 996.393 -71.7674 942.259 -76.7948C909.722 -79.8629 881.088 -81.5173 854.752 -81.8326C852.949 -81.8554 851.128 -81.8815 849.324 -81.9042C847.229 -81.9386 845.148 -81.9588 843.07 -81.9897L838.338 -82.0391C829.041 -82.1394 819.432 -82.244 810.069 -82.4475C761.704 -83.4615 721.412 -86.6693 683.258 -92.535C647.517 -98.0221 613.469 -106.593 582.026 -117.99C555.279 -127.684 529.273 -139.844 504.142 -151.597C499.293 -153.862 494.429 -156.14 489.545 -158.411C472.923 -166.115 454.906 -174.282 435.679 -181.758C423.456 -186.518 410.531 -191.063 397.25 -195.293C359.177 -207.403 325.765 -215.07 292.15 -219.41C249.653 -224.899 204.911 -224.847 165.452 -224.809C154.666 -224.791 143.239 -224.718 128.412 -224.56L124.062 -224.512C94.0191 -224.192 62.9565 -223.855 32.2296 -224.47C-27.9587 -225.668 -106.972 -229.632 -184.396 -249.716L-184.61 -249.237C-171.573 -245.857 -158.476 -242.928 -145.444 -240.396C-80.9688 -227.867 -17.8193 -224.964 32.3196 -223.955C63.0642 -223.337 94.1442 -223.671 124.187 -223.991L128.537 -224.038C143.365 -224.197 154.774 -224.273 165.559 -224.291C204.984 -224.336 249.688 -224.383 292.094 -218.901C325.639 -214.575 358.962 -206.924 396.968 -194.839C410.214 -190.616 423.121 -186.074 435.312 -181.333C454.489 -173.878 472.509 -165.721 489.095 -158.024C493.982 -155.764 498.846 -153.485 503.692 -151.21C528.856 -139.44 554.879 -127.276 581.676 -117.561C613.202 -106.125 647.341 -97.548 683.149 -92.0365C721.373 -86.157 761.721 -82.9498 810.141 -81.9363C819.507 -81.7435 829.134 -81.6355 838.428 -81.5244L843.16 -81.475C845.241 -81.4549 847.319 -81.4239 849.415 -81.3896C851.218 -81.3669 853.021 -81.3441 854.842 -81.318C881.14 -80.9988 909.739 -79.3512 942.238 -76.2791C996.372 -71.2518 1050.5 -64.9142 1112.63 -56.3344C1172.66 -48.0359 1236.19 -37.0706 1293.99 -13.219C1326.58 0.186977 1356.44 17.4342 1385.31 34.1069C1394.39 39.3498 1403.77 44.7653 1413.09 49.9773C1458.55 75.432 1512.66 98.036 1578.47 119.082C1642.43 139.544 1708.27 155.489 1758.47 167.097L1758.48 167.111Z" fill="url(#paint2_linear_256_1612)"/>
<path d="M1755.86 177.584L1756.02 177.096C1686.02 161.787 1626.85 146.268 1575.16 129.659C1509.73 108.631 1455.38 85.7423 1409.02 59.6838C1398.73 53.9115 1388.42 47.9069 1378.42 42.089C1350.34 25.7526 1321.32 8.85922 1290.09 -4.68821C1231.38 -30.289 1167.73 -43.2651 1112.69 -53.4067C1060.56 -63.0167 1006.65 -72.9503 945.867 -80.3648C912.927 -84.4602 884.119 -86.2276 857.787 -85.7625L855.006 -85.7154C852.058 -85.6667 849.128 -85.6146 846.213 -85.5483C840.622 -85.4143 835.099 -85.2559 829.614 -85.1015C824.333 -84.9525 819.087 -84.7967 813.868 -84.6697C765.8 -83.5243 726.516 -84.7511 690.25 -88.5437C655.17 -92.2077 621.022 -99.3741 588.781 -109.819C558.142 -119.739 529.463 -132.418 499.092 -145.845L494.115 -148.043C475.916 -156.076 458.048 -163.887 439.347 -171.182C427.073 -175.962 414.076 -180.657 400.744 -185.123C371.066 -195.048 335.42 -205.962 296.002 -211.577C256.606 -217.209 216.092 -217.161 176.91 -217.125C173.938 -217.126 170.964 -217.116 167.992 -217.118C154.921 -217.115 141.735 -217.022 130.545 -216.937C100.542 -216.699 66.5267 -216.439 33.2396 -217.438C-56.0733 -220.104 -123.59 -228.387 -185.685 -244.305L-185.882 -243.824C-123.699 -227.888 -56.0943 -219.588 33.3297 -216.923C66.6547 -215.928 100.67 -216.188 130.691 -216.423C141.881 -216.508 155.084 -216.598 168.137 -216.604C171.109 -216.602 174.081 -216.601 177.055 -216.611C216.202 -216.654 256.658 -216.691 295.966 -211.075C335.276 -205.471 370.855 -194.58 400.483 -184.677C413.797 -180.214 426.776 -175.523 439.032 -170.746C457.701 -163.469 475.569 -155.658 493.751 -147.628L498.71 -145.433C529.098 -132.003 557.81 -119.306 588.517 -109.362C620.84 -98.8784 655.079 -91.7057 690.247 -88.0246C726.568 -84.2325 765.905 -82.9955 814.028 -84.1414C819.248 -84.2684 824.491 -84.4134 829.774 -84.5732C835.259 -84.7276 840.765 -84.8894 846.356 -85.0234C849.253 -85.0931 852.183 -85.1452 855.131 -85.1939L857.912 -85.241C884.189 -85.7056 912.924 -83.9412 945.811 -79.856C1006.53 -72.4409 1060.43 -62.5107 1112.55 -52.9041C1167.52 -42.7762 1231.07 -29.8172 1289.67 -4.27265C1320.83 9.2611 1349.84 26.1295 1377.89 42.4484C1387.88 48.2663 1398.2 54.2709 1408.48 60.0539C1454.91 86.1476 1509.33 109.071 1574.83 130.127C1626.56 146.754 1685.76 162.28 1755.82 177.599L1755.86 177.584Z" fill="url(#paint3_linear_256_1612)"/>
<path d="M1753.24 188.046L1753.37 187.551C1604.79 156.905 1490.67 118.36 1404.48 69.7373C1393.08 63.3094 1381.65 56.6027 1370.59 50.1253C1343.52 34.2448 1315.52 17.8217 1285.85 4.24919C1229.62 -21.6144 1169.5 -36.7207 1112.72 -49.9893C1106.97 -51.3323 1101.26 -52.6793 1095.55 -54.0155C1049.84 -64.7622 1002.55 -75.8704 949.534 -83.958C916.059 -89.0615 887.059 -90.9452 860.896 -89.7013L860.187 -89.6697C856.636 -89.5009 852.975 -89.3311 849.431 -89.1158C841.706 -88.6507 834.088 -88.0971 826.733 -87.5603C823.724 -87.3427 820.732 -87.1218 817.761 -86.9082C782.864 -84.4239 741.278 -82.2 697.338 -84.5686C662.939 -86.4168 628.725 -92.1722 595.65 -101.661C563.208 -110.959 532.604 -123.47 498.815 -137.685L492.181 -140.477C476.248 -147.188 459.779 -154.117 443.127 -160.618C430.891 -165.402 417.837 -170.232 404.337 -174.98C369.2 -187.31 337.09 -197.978 299.954 -203.782C262.337 -209.656 223.585 -209.57 186.125 -209.482C180.953 -209.47 175.781 -209.458 170.633 -209.465C157.62 -209.473 144.422 -209.405 132.761 -209.355C99.4896 -209.187 66.9174 -209.155 34.3123 -210.44C-53.5785 -213.903 -123.872 -222.951 -186.894 -238.926L-187.091 -238.444C-123.98 -222.452 -53.5996 -213.387 34.3998 -209.914C67.0223 -208.626 99.6148 -208.666 132.904 -208.83C144.547 -208.884 157.763 -208.948 170.758 -208.943C175.906 -208.937 181.078 -208.949 186.25 -208.961C223.672 -209.045 262.369 -209.13 299.877 -203.266C336.911 -197.493 368.95 -186.839 404.034 -174.519C417.517 -169.775 430.554 -164.948 442.792 -160.175C459.427 -153.677 475.893 -146.738 491.811 -140.04L498.445 -137.248C532.269 -123.027 562.906 -110.498 595.415 -101.176C628.593 -91.6554 662.897 -85.8937 697.402 -84.0251C741.415 -81.6535 783.04 -83.8814 817.974 -86.3697C820.963 -86.5798 823.955 -86.8008 826.964 -87.0183C834.319 -87.5551 841.94 -88.1195 849.644 -88.5772C853.185 -88.7817 856.849 -88.9623 860.382 -89.1346L861.092 -89.1662C887.161 -90.4056 916.073 -88.539 949.475 -83.4384C1002.44 -75.361 1049.69 -64.249 1095.38 -53.5164C1101.1 -52.1802 1106.83 -50.8298 1112.56 -49.4902C1169.26 -36.246 1229.34 -21.15 1285.45 4.66815C1315.07 18.2197 1343.04 34.6252 1370.09 50.5022C1381.15 56.9904 1392.58 63.6971 1403.97 70.125C1490.26 118.811 1604.51 157.395 1753.24 188.078L1753.24 188.046Z" fill="url(#paint4_linear_256_1612)"/>
<path d="M1750.24 198.435L1750.65 198.513L1750.77 198.018L1750.37 197.94C1607.1 170.102 1489.22 130.349 1399.95 79.7856C1387.24 72.5931 1374.53 65.0606 1362.21 57.775C1336.35 42.4669 1309.58 26.6231 1281.65 13.1741C1224.11 -14.7071 1162.39 -32.3725 1112.79 -46.5737C1104.43 -48.9665 1095.98 -51.4229 1087.82 -53.8104C1046.13 -65.944 1003.03 -78.5118 953.242 -87.5528C919.496 -93.692 890.319 -95.6779 864.029 -93.6453C860.565 -93.3806 856.552 -93.0643 852.672 -92.6884C843.662 -91.8177 834.919 -90.7597 826.478 -89.7332L821.658 -89.1445C778.929 -83.9675 742.645 -80.5324 704.446 -80.5879C671.247 -80.6322 636.005 -85.1073 602.523 -93.5113C568.449 -102.053 534.807 -114.816 503.521 -127.335C496.437 -130.169 489.228 -133.095 482.251 -135.92C470.725 -140.589 458.813 -145.412 446.915 -150.074C434.715 -154.851 421.958 -159.691 407.934 -164.845L402.788 -166.738C370.389 -178.66 339.781 -189.929 303.908 -195.985C267.403 -202.163 229.742 -202.012 193.318 -201.858C186.738 -201.826 179.921 -201.806 173.276 -201.809C162.353 -201.83 151.27 -201.803 140.555 -201.772L134.994 -201.756C103.279 -201.682 69.4602 -201.756 35.4203 -203.422C-52.1183 -207.686 -123.144 -217.261 -188.086 -233.529L-188.282 -233.048C-123.273 -216.755 -52.1567 -207.174 35.4725 -202.903C69.5476 -201.231 103.369 -201.167 135.117 -201.224L140.677 -201.24C151.389 -201.26 162.472 -201.287 173.396 -201.266C180.055 -201.249 186.858 -201.283 193.455 -201.312C229.824 -201.465 267.429 -201.615 303.809 -195.45C339.552 -189.398 370.116 -178.171 402.462 -166.259L407.609 -164.366C421.63 -159.201 434.372 -154.375 446.555 -149.601C458.435 -144.943 470.346 -140.12 481.873 -135.451C488.849 -132.627 496.058 -129.7 503.143 -126.866C534.461 -114.329 568.156 -101.556 602.318 -92.9975C635.906 -84.573 671.256 -80.0882 704.563 -80.0341C742.835 -79.9758 779.157 -83.4148 821.923 -88.5957L826.762 -89.1809C835.202 -90.2075 843.928 -91.2689 852.937 -92.1396C856.797 -92.5082 860.81 -92.8244 864.277 -93.0999C890.436 -95.1241 919.519 -93.1338 953.142 -87.0185C1002.89 -77.9736 1045.93 -65.4302 1087.58 -53.3035C1095.74 -50.9267 1104.2 -48.4703 1112.55 -46.0667C1162.09 -31.8758 1223.76 -14.2206 1281.21 13.6077C1309.11 27.0499 1335.84 42.8654 1361.71 58.1734C1374 65.4556 1386.74 72.9916 1399.46 80.1875C1488.84 130.818 1606.88 170.612 1750.25 198.471L1750.24 198.435Z" fill="url(#paint5_linear_256_1612)"/>
<path d="M1729.9 205.567C1736.09 206.77 1742.12 207.906 1748.01 208.972L1748.14 208.477C1651.42 190.87 1511.74 155.99 1395.39 89.8361C1381.11 81.7274 1366.87 73.2102 1353.08 64.9716C1328.66 50.3734 1303.4 35.2745 1277.4 22.1085C1224.26 -4.9614 1168.16 -24.1894 1118.66 -41.1514L1112.81 -43.1593C1103.5 -46.3453 1094.12 -49.6487 1085.06 -52.8441C1045.84 -66.6577 1005.27 -80.9351 956.891 -91.149C923.346 -98.2207 893.146 -100.394 867.123 -97.5978C863.763 -97.2339 859.81 -96.7929 855.874 -96.2697C846.012 -94.9544 836.603 -93.3139 827.506 -91.7371L825.515 -91.3894C785.935 -84.516 750.046 -78.654 711.498 -76.6192C679.034 -74.9162 643.716 -77.9372 609.338 -85.3629C572.246 -93.3612 535.793 -106.467 508.168 -116.987C494.911 -122.037 481.464 -127.35 468.454 -132.5C462.534 -134.836 456.6 -137.187 450.663 -139.527C436.786 -144.969 423.093 -150.262 411.511 -154.716C406.972 -156.457 402.473 -158.212 397.989 -159.954C368.605 -171.392 340.83 -182.19 307.827 -188.207C272.038 -194.732 235.075 -194.491 199.332 -194.261C191.639 -194.208 183.671 -194.163 175.904 -194.18C167.14 -194.2 158.391 -194.205 149.66 -194.207C145.505 -194.201 141.353 -194.205 137.2 -194.21C99.7123 -194.229 68.2438 -194.615 36.5035 -196.466C-49.3399 -201.441 -123.205 -211.827 -189.284 -228.192L-189.481 -227.711C-123.316 -211.318 -49.3784 -200.928 36.5556 -195.948C68.3339 -194.1 99.82 -193.711 137.325 -193.688C141.478 -193.684 145.633 -193.69 149.785 -193.685C158.517 -193.683 167.268 -193.689 176.029 -193.659C183.796 -193.641 191.764 -193.686 199.475 -193.736C235.162 -193.965 272.067 -194.195 307.733 -187.694C340.688 -181.709 368.338 -170.924 397.654 -159.51C402.138 -157.769 406.637 -156.013 411.177 -154.273C422.758 -149.819 436.471 -144.533 450.328 -139.084C456.285 -136.751 462.202 -134.404 468.122 -132.067C481.132 -126.918 494.597 -121.601 507.854 -116.551C535.528 -106.01 572.052 -92.8905 609.215 -84.8784C643.698 -77.4323 679.142 -74.3982 711.719 -76.1129C750.34 -78.1448 786.267 -84.0108 825.868 -90.8915L827.858 -91.2393C836.956 -92.816 846.345 -94.4491 856.189 -95.7679C860.108 -96.2945 864.078 -96.732 867.418 -97.0886C893.31 -99.8764 923.419 -97.7094 956.785 -90.6611C1005.1 -80.4717 1045.61 -66.2046 1084.8 -52.4085C1093.86 -49.2131 1103.24 -45.9098 1112.56 -42.7203L1118.42 -40.7125C1167.89 -23.768 1223.94 -4.56106 1277 22.4844C1302.98 35.6436 1328.22 50.7283 1352.63 65.3123C1366.42 73.5509 1380.65 82.0681 1394.95 90.191C1504.37 152.41 1634.37 186.982 1729.96 205.555L1729.9 205.567Z" fill="url(#paint6_linear_256_1612)"/>
<path d="M1713.73 213.667C1724.23 215.707 1734.78 217.632 1745.39 219.435L1745.49 218.933C1681.21 207.993 1619.07 192.765 1560.81 173.683C1497.51 152.953 1440.31 128.122 1390.83 99.8767C1374.65 90.6543 1358.57 80.9299 1343.01 71.5335C1320.36 57.846 1296.93 43.6896 1273.14 31.033C1225.05 5.29464 1174.95 -14.8013 1130.75 -32.5425C1124.71 -34.971 1118.73 -37.3644 1112.84 -39.7407C1103.28 -43.5973 1093.69 -47.6076 1084.4 -51.4917C1046.99 -67.1227 1008.31 -83.2826 960.542 -94.7442C926.746 -102.859 896.355 -105.149 870.216 -101.539C865.778 -100.932 862.242 -100.388 859.057 -99.8428C848.648 -98.0463 838.863 -95.8009 829.412 -93.6374L825.176 -92.664C789.366 -84.4365 755.536 -76.6604 718.551 -72.6497C686.808 -69.2136 651.414 -70.7805 616.155 -77.2136C585.814 -82.7362 552.998 -92.0842 512.799 -106.641C493.468 -113.64 474.134 -121.204 454.373 -128.976C442.716 -133.568 428.913 -139.007 415.031 -144.575C408.582 -147.15 402.172 -149.808 395.98 -152.378C368.664 -163.674 342.89 -174.354 311.725 -180.41L311.584 -180.437C276.321 -187.289 239.835 -186.967 204.571 -186.655C195.987 -186.583 187.122 -186.498 178.472 -186.529C171.427 -186.553 164.378 -186.567 157.33 -186.581C151.334 -186.593 145.337 -186.606 139.359 -186.615C106.913 -186.717 72.1275 -187.126 37.5188 -189.455C-47.6585 -195.159 -122.256 -206.072 -190.566 -222.814L-190.763 -222.333C-122.383 -205.577 -47.6942 -194.658 37.5533 -188.94C72.2 -186.615 107.003 -186.202 139.466 -186.097C145.442 -186.077 151.439 -186.065 157.438 -186.063C164.486 -186.049 171.534 -186.035 178.58 -186.011C187.23 -185.98 196.112 -186.062 204.678 -186.137C239.888 -186.448 276.298 -186.763 311.437 -179.935L311.578 -179.907C342.62 -173.876 368.347 -163.227 395.592 -151.945C401.802 -149.371 408.215 -146.724 414.661 -144.138C428.56 -138.567 442.344 -133.121 454.021 -128.536C473.797 -120.75 493.133 -113.196 512.482 -106.194C552.748 -91.613 585.67 -82.2445 616.046 -76.715C651.41 -70.2614 686.948 -68.6779 718.808 -72.1366C755.869 -76.1551 789.719 -83.9386 825.567 -92.17L829.763 -93.1288C839.254 -95.307 849.019 -97.545 859.407 -99.3341C862.575 -99.8824 866.09 -100.42 870.528 -101.026C896.512 -104.61 926.74 -102.329 960.398 -94.2525C1008.06 -82.8113 1046.69 -66.6725 1084.05 -51.0625C1093.34 -47.1784 1102.95 -43.1647 1112.51 -39.308C1118.4 -36.9318 1124.37 -34.5277 1130.42 -32.0991C1174.59 -14.3755 1224.67 5.71703 1272.69 31.4201C1296.45 44.0592 1319.86 58.2122 1342.51 71.8889C1358.07 81.296 1374.16 91.0205 1390.35 100.246C1439.9 128.516 1497.16 153.382 1560.53 174.136C1609.23 190.085 1660.63 203.35 1713.73 213.667Z" fill="url(#paint7_linear_256_1612)"/>
<path d="M1701.16 222.557C1714.95 225.236 1728.83 227.686 1742.78 229.898L1742.85 229.393C1610.85 208.478 1484.23 166.045 1386.29 109.931C1367.75 99.324 1349.41 88.099 1331.67 77.2407C1311.24 64.7284 1290.1 51.7967 1268.9 39.9716C1226.6 16.2167 1184.82 -3.05391 1144.43 -21.6823C1133.46 -26.7394 1123.09 -31.5229 1112.87 -36.322C1103.42 -40.756 1093.94 -45.3902 1084.76 -49.8732C1048.85 -67.4153 1011.71 -85.5582 964.211 -98.3361C930.165 -107.494 899.582 -109.9 873.312 -105.49C869.049 -104.771 865.521 -104.112 862.262 -103.423C852.27 -101.308 843.197 -98.7439 833.214 -95.8702C828.811 -94.6017 824.442 -93.3264 820.094 -92.0584C788.542 -82.8678 758.727 -74.1874 725.585 -68.6728C694.585 -63.5218 659.1 -63.6488 622.952 -69.057C591.528 -73.7391 557.013 -82.6491 517.428 -96.284C499.918 -102.319 481.613 -109.141 458.099 -118.41C443.828 -124.042 430.896 -129.278 418.57 -134.43C410.762 -137.687 403.061 -141.07 395.627 -144.345C369.839 -155.695 345.498 -166.424 315.62 -172.602C280.631 -179.876 244.375 -179.441 209.31 -179.045C200.017 -178.942 190.408 -178.831 181.077 -178.871C175.583 -178.899 170.069 -178.919 164.572 -178.937C156.898 -178.959 149.227 -178.992 141.559 -179.036C109.042 -179.219 74.0494 -179.758 38.5932 -182.456C-45.6891 -188.844 -121.038 -200.288 -191.773 -217.433L-191.952 -216.948C-121.129 -199.786 -45.71 -188.329 38.6279 -181.941C74.1395 -179.244 109.132 -178.704 141.684 -178.514C149.352 -178.47 157.026 -178.448 164.7 -178.426C170.196 -178.409 175.711 -178.388 181.205 -178.36C190.553 -178.317 200.162 -178.428 209.456 -178.531C244.448 -178.929 280.602 -179.328 315.479 -172.121C345.234 -165.967 369.527 -155.269 395.248 -143.944C402.699 -140.666 410.398 -137.272 418.205 -134.015C430.532 -128.863 443.464 -123.627 457.753 -117.992C481.299 -108.705 499.604 -101.883 517.131 -95.8445C556.784 -82.1851 591.387 -73.2581 622.881 -68.5623C659.152 -63.1302 694.766 -63.0008 725.882 -68.1744C759.1 -73.6968 788.918 -82.3881 820.508 -91.5825C824.856 -92.8505 829.222 -94.1151 833.628 -95.3944C843.593 -98.2714 852.663 -100.825 862.6 -102.939C865.859 -103.628 869.349 -104.283 873.612 -105.003C899.71 -109.389 930.091 -106.988 963.967 -97.8864C1011.37 -85.1398 1048.44 -67.0213 1084.3 -49.511C1093.48 -45.0279 1102.96 -40.3938 1112.43 -35.9564C1122.66 -31.1538 1133.02 -26.3738 1144 -21.3132C1184.38 -2.69902 1226.13 16.554 1268.4 40.2913C1289.58 52.1129 1310.7 65.0413 1331.13 77.5428C1348.87 88.4011 1367.23 99.6295 1385.77 110.248C1473.48 160.499 1584.18 199.782 1701.14 222.507L1701.16 222.557Z" fill="url(#paint8_linear_256_1612)"/>
<path d="M1689.89 231.78C1706.58 235.023 1723.33 237.882 1740.16 240.361L1740.24 239.856C1610.3 220.744 1482.98 178.186 1381.75 119.987C1360.23 107.624 1339.05 94.4706 1318.56 81.7441C1300.96 70.7986 1282.73 59.4831 1264.68 48.9141C1229.17 28.0141 1194.31 9.83939 1160.6 -7.73743C1143.89 -16.4537 1128.08 -24.688 1112.94 -32.8854C1103.79 -37.8376 1094.61 -43.0115 1085.75 -48.0202C1051.16 -67.5541 1015.4 -87.7681 967.91 -101.899C933.617 -112.111 902.842 -114.633 876.454 -109.399C872.37 -108.588 868.789 -107.793 865.512 -106.961C855.387 -104.397 846.305 -101.292 837.138 -98.0679C830.646 -95.7814 824.164 -93.4591 817.906 -91.2177C789.619 -81.0765 762.912 -71.4868 732.705 -64.6677C702.436 -57.8266 666.86 -56.5137 629.837 -60.8828C597.057 -64.7327 561.84 -72.9202 522.148 -85.9206C503.545 -92.0098 483.852 -99.1807 461.903 -107.852C448.052 -113.323 434.679 -118.859 422.182 -124.282C413.372 -128.095 404.749 -132.132 396.408 -136.047C371.791 -147.575 348.544 -158.465 319.575 -164.806C284.738 -172.456 248.682 -171.937 213.779 -171.454C203.887 -171.32 193.659 -171.172 183.723 -171.227C179.778 -171.247 175.833 -171.268 171.887 -171.289C162.668 -171.329 153.152 -171.37 143.777 -171.452C112.699 -171.706 76.025 -172.38 39.6888 -175.463C-42.2789 -182.385 -120.561 -194.703 -192.977 -212.062L-193.156 -211.578C-120.672 -194.194 -42.3351 -181.876 39.7059 -174.952C76.0974 -171.869 112.789 -171.191 143.905 -170.941C153.28 -170.86 162.796 -170.819 172.015 -170.778C175.961 -170.758 179.906 -170.737 183.851 -170.716C193.805 -170.657 204.032 -170.805 213.927 -170.951C248.757 -171.437 284.758 -171.955 319.419 -164.339C348.247 -158.026 371.447 -147.168 395.996 -135.663C404.34 -131.76 412.961 -127.712 421.788 -123.895C434.303 -118.469 447.675 -112.933 461.544 -107.459C483.508 -98.7731 503.236 -91.5952 521.857 -85.5026C561.634 -72.4744 596.939 -64.2698 629.81 -60.4136C666.959 -56.0313 702.666 -57.3526 733.071 -64.2236C763.34 -71.0647 790.064 -80.651 818.374 -90.8104C824.632 -93.0518 831.114 -95.3741 837.606 -97.6606C846.771 -100.874 855.815 -103.975 865.919 -106.531C869.176 -107.356 872.74 -108.155 876.803 -108.959C902.996 -114.151 933.554 -111.648 967.657 -101.485C1015.02 -87.378 1050.72 -67.21 1085.26 -47.6971C1094.14 -42.685 1103.3 -37.5038 1112.46 -32.5481C1127.63 -24.3473 1143.43 -16.113 1160.14 -7.39673C1193.85 10.1693 1228.7 28.3406 1264.2 49.2264C1282.25 59.7847 1300.46 71.0968 1318.06 82.0422C1338.55 94.7688 1359.74 107.936 1381.28 120.313C1469.52 171.04 1577.59 209.924 1689.92 231.751L1689.89 231.78Z" fill="url(#paint9_linear_256_1612)"/>
<path d="M1680.08 241.341C1699.18 245.052 1718.36 248.226 1737.54 250.823L1737.6 250.314C1609.53 232.943 1481.54 190.222 1377.2 130.04C1351.75 115.365 1326.89 99.6328 1302.87 84.4223C1288.96 75.6192 1274.58 66.5091 1260.44 57.8514C1233.28 41.1055 1206.59 25.6369 1180.78 10.6684C1156.71 -3.28522 1133.97 -16.46 1112.96 -29.4573C1104.21 -34.8643 1095.46 -40.5291 1087.01 -46.0139C1053.67 -67.6105 1019.2 -89.945 971.558 -105.496C937.495 -116.611 905.682 -119.336 879.547 -113.352C875.567 -112.442 872.028 -111.525 868.713 -110.542C858.507 -107.52 849.423 -103.828 840.991 -100.303C833.099 -97.0115 825.292 -93.6246 817.738 -90.3582C792.006 -79.2346 767.685 -68.7183 739.75 -60.678C710.183 -52.1752 674.533 -49.419 636.645 -52.7134C603.126 -55.6222 566.173 -63.2996 526.77 -75.5544C507.103 -81.6696 487.099 -88.7769 465.605 -97.2808C451.792 -102.756 438.377 -108.413 425.711 -114.117C416.107 -118.435 406.805 -123.067 397.812 -127.537C374.127 -139.314 351.77 -150.438 323.461 -156.978C288.758 -165.009 252.735 -164.405 217.901 -163.829C207.501 -163.658 196.73 -163.479 186.298 -163.541L178.15 -163.587C167.589 -163.651 156.676 -163.715 145.942 -163.823C114.737 -164.158 77.8357 -164.956 40.7104 -168.418C-39.8403 -175.901 -118.888 -188.763 -194.237 -206.636L-194.416 -206.151C-118.999 -188.254 -39.879 -175.388 40.7246 -167.896C77.8877 -164.437 114.824 -163.633 146.049 -163.305C156.784 -163.197 167.696 -163.133 178.258 -163.069L186.405 -163.023C196.856 -162.958 207.627 -163.136 218.047 -163.315C252.808 -163.893 288.76 -164.512 323.285 -156.504C351.438 -150.005 373.745 -138.903 397.365 -127.161C406.373 -122.676 415.693 -118.041 425.314 -113.719C437.997 -108.012 451.427 -102.341 465.258 -96.8624C486.767 -88.3442 506.804 -81.2194 526.506 -75.0974C565.996 -62.8254 603.052 -55.1167 636.644 -52.2051C674.676 -48.8941 710.475 -51.6552 740.164 -60.2021C768.16 -68.2645 792.481 -78.7808 818.254 -89.919C825.808 -93.1855 833.611 -96.5617 841.486 -99.8561C849.898 -103.374 858.962 -107.059 869.124 -110.056C872.419 -111.031 875.937 -111.941 879.899 -112.854C905.82 -118.789 937.399 -116.088 971.256 -105.035C1018.75 -89.5363 1053.16 -67.2336 1086.44 -45.6722C1094.9 -40.1873 1103.66 -34.5191 1112.41 -29.1122C1133.44 -16.1114 1156.17 -2.92588 1180.26 11.0311C1206.07 25.9889 1232.75 41.4541 1259.91 58.2C1274.05 66.8684 1288.43 75.9678 1302.33 84.7709C1326.38 99.9848 1351.23 115.728 1376.7 130.406C1465.53 181.653 1571.51 220.256 1680.09 241.355L1680.08 241.341Z" fill="url(#paint10_linear_256_1612)"/>
<path d="M1671.39 251.155C1692.56 255.27 1713.76 258.654 1734.91 261.283L1734.95 260.771C1608.6 245.044 1479.93 202.191 1372.65 140.081C1341.78 122.231 1312.02 102.925 1283.25 84.2605C1274.36 78.5004 1265.18 72.5354 1256.19 66.7655C1239.88 56.252 1223.7 46.013 1208.06 36.1162C1173.8 14.4313 1141.43 -6.05021 1112.98 -26.0417C1104.7 -31.8539 1096.43 -37.9563 1088.45 -43.8464C1056.31 -67.5698 1023.09 -92.0922 975.227 -109.087C940.902 -121.271 908.897 -124.111 882.658 -117.289C878.764 -116.283 875.266 -115.234 871.915 -114.112C861.708 -110.649 852.59 -106.319 844.866 -102.532C836.09 -98.2376 827.444 -93.8048 819.097 -89.5287C795.392 -77.3786 773.005 -65.91 746.839 -56.7012C717.977 -46.5475 682.236 -42.3514 643.501 -44.5676C608.909 -46.5322 571.217 -53.4832 531.458 -65.2086C511.217 -71.1753 490.343 -78.4177 469.392 -86.7369C455.515 -92.2469 442.042 -98.0398 429.311 -103.994C419.101 -108.757 409.273 -113.932 399.789 -118.938C376.885 -131.027 355.248 -142.44 327.418 -149.192C292.761 -157.621 256.751 -156.924 221.928 -156.244C211.076 -156.036 199.832 -155.815 188.961 -155.893L185.109 -155.918C173.019 -155.997 160.508 -156.089 148.18 -156.247C116.808 -156.648 79.6293 -157.59 41.823 -161.422C-36.9211 -169.401 -116.737 -182.797 -195.421 -201.272L-195.6 -200.787C-116.881 -182.305 -36.9948 -168.896 41.8048 -160.917C79.6638 -157.075 116.862 -156.14 148.27 -155.732C160.598 -155.574 173.091 -155.485 185.199 -155.404L189.051 -155.378C199.96 -155.304 211.183 -155.518 222.056 -155.733C256.804 -156.405 292.72 -157.098 327.221 -148.711C354.875 -141.993 376.465 -130.611 399.304 -118.558C408.805 -113.548 418.631 -108.362 428.873 -103.581C441.622 -97.6243 455.127 -91.8137 469.022 -86.3003C490.008 -77.9743 510.933 -70.7109 531.208 -64.7373C571.05 -52.9734 608.85 -46.0125 643.55 -44.0383C682.449 -41.8128 718.324 -46.028 747.308 -56.2259C773.536 -65.4567 795.945 -76.9434 819.671 -89.1009C828.018 -93.377 836.661 -97.799 845.437 -102.093C853.158 -105.87 862.235 -110.185 872.402 -113.633C875.715 -114.752 879.211 -115.79 883.066 -116.792C901.199 -121.506 931.865 -123.908 974.907 -108.63C1022.62 -91.6869 1055.78 -67.2105 1087.87 -43.5296C1095.87 -37.6253 1104.13 -31.5337 1112.41 -25.7107C1140.9 -5.70164 1173.27 14.7907 1207.53 36.4755C1223.17 46.3723 1239.34 56.6114 1255.65 67.1248C1264.65 72.8947 1273.83 78.8489 1282.72 84.6091C1311.51 103.287 1341.28 122.597 1372.16 140.461C1461.63 192.251 1565.95 230.679 1671.4 251.169L1671.39 251.155Z" fill="url(#paint11_linear_256_1612)"/>
<path d="M1663.57 261.161C1686.54 265.624 1709.49 269.167 1732.31 271.759L1732.33 271.244C1607.55 257.1 1478.2 214.091 1368.1 150.146C1329.34 127.643 1292.64 103.021 1257.16 79.2136L1249.55 74.1076C1199.34 40.2844 1151.9 8.32206 1113 -22.6022C1105.19 -28.809 1097.42 -35.3132 1089.91 -41.6086C1058.99 -67.4911 1027.04 -94.2626 978.891 -112.658C954.84 -121.919 919.146 -130.911 885.767 -121.217C882.018 -120.126 878.446 -118.933 875.132 -117.668C865.963 -114.15 857.954 -109.967 848.739 -104.752C839.417 -99.4787 830.326 -94.0252 821.522 -88.7532C799.484 -75.5446 778.686 -63.0669 753.906 -52.7074C725.733 -40.917 689.92 -35.2776 650.331 -36.3941C614.735 -37.39 576.298 -43.5932 536.122 -54.8457C515.191 -60.7094 494.002 -67.8773 473.14 -76.1794C459.215 -81.7212 445.669 -87.6638 432.868 -93.846C422.151 -99.0128 411.941 -104.714 402.087 -110.222C380.811 -122.107 358.791 -134.408 331.352 -141.389C296.703 -150.212 260.651 -149.421 225.768 -148.651C214.499 -148.401 202.841 -148.146 191.566 -148.235L190.864 -148.236C177.599 -148.339 163.893 -148.449 150.378 -148.657C120.644 -149.113 81.5758 -150.173 42.8953 -154.413C-33.6256 -162.784 -114.204 -176.735 -196.631 -195.881L-196.81 -195.396C-114.33 -176.24 -33.6817 -162.276 42.877 -153.908C81.6104 -149.658 120.734 -148.598 150.485 -148.139C164 -147.931 177.727 -147.828 190.972 -147.718L191.673 -147.717C202.969 -147.636 214.644 -147.886 225.914 -148.137C260.686 -148.906 296.662 -149.689 331.137 -140.911C358.439 -133.968 379.408 -122.255 401.605 -109.852C411.491 -104.327 421.702 -98.6257 432.45 -93.4412C445.267 -87.2449 458.847 -81.2954 472.787 -75.7395C493.685 -67.4305 514.924 -60.2416 535.89 -54.3711C576.189 -43.0946 614.714 -36.8743 650.421 -35.8794C690.159 -34.7679 726.127 -40.4337 754.439 -52.2649C779.263 -62.6498 800.099 -75.1314 822.142 -88.3616C830.946 -93.6335 840.037 -99.0871 849.341 -104.364C858.533 -109.56 866.522 -113.736 875.63 -117.232C878.906 -118.494 882.458 -119.679 886.186 -120.763C919.266 -130.368 954.661 -121.434 978.53 -112.254C1026.51 -93.9141 1058.42 -67.2066 1089.28 -41.3701C1096.81 -35.0713 1104.57 -28.5563 1112.39 -22.3495C1151.32 8.59238 1198.77 40.5581 1249 74.3955L1256.61 79.5123C1292.11 103.337 1328.82 127.96 1367.61 150.48C1457.71 202.821 1560.73 241.154 1663.58 261.139L1663.57 261.161Z" fill="url(#paint12_linear_256_1612)"/>
<path d="M1656.42 271.307C1680.97 276.078 1705.45 279.739 1729.67 282.218L1729.67 281.699C1606.33 269.067 1476.3 225.914 1363.53 160.196C1321.37 135.631 1281.32 108.222 1247.68 84.6487C1187.09 42.0292 1145.56 10.0053 1112.99 -19.1804C1105.72 -25.6893 1098.5 -32.5279 1091.51 -39.1396C1061.77 -67.256 1031.02 -96.3368 982.502 -116.261C938.584 -134.399 907.324 -131.118 888.823 -125.176C885.163 -124 881.613 -122.679 878.296 -121.256C868.635 -117.111 860.228 -111.954 852.558 -107.003C842.98 -100.797 833.671 -94.3465 824.692 -88.1029C804.069 -73.7833 784.573 -60.2616 760.917 -48.7347C733.404 -35.3359 697.499 -28.2566 657.086 -28.2451C621.069 -28.2383 580.82 -33.8556 540.711 -44.4966C519.133 -50.2147 497.635 -57.3297 476.807 -65.625C462.8 -71.2053 449.197 -77.2834 436.345 -83.7014C425.228 -89.2512 414.72 -95.4509 404.566 -101.446C383.807 -113.694 362.363 -126.369 335.171 -133.596C300.461 -142.826 264.346 -141.935 229.385 -141.078C217.754 -140.785 205.717 -140.491 194.076 -140.595C179.286 -140.723 165.971 -140.847 152.481 -141.084C122.562 -141.61 83.1617 -142.814 43.8584 -147.434C-30.898 -156.209 -110 -170.302 -197.967 -190.525L-198.146 -190.04C-110.127 -169.807 -30.9893 -155.707 43.8199 -146.922C83.1759 -142.292 122.614 -141.091 152.571 -140.57C166.061 -140.333 179.393 -140.205 194.184 -140.077C205.845 -139.98 217.882 -140.274 229.531 -140.564C264.384 -141.43 300.422 -142.314 334.942 -133.132C361.978 -125.947 383.36 -113.318 404.055 -101.105C414.226 -95.1063 424.731 -88.8958 435.898 -83.325C448.765 -76.8928 462.401 -70.7971 476.443 -65.2099C497.32 -56.8936 518.871 -49.7684 540.481 -44.0327C580.711 -33.357 621.068 -27.73 657.214 -27.7343C697.791 -27.7366 733.835 -34.8566 761.473 -48.3103C785.17 -59.8518 805.591 -74.03 825.335 -87.7294C834.314 -93.973 843.62 -100.413 853.196 -106.608C860.825 -111.544 869.208 -116.683 878.826 -120.803C882.123 -122.218 885.632 -123.525 889.272 -124.693C907.575 -130.583 938.55 -133.829 982.114 -115.828C1030.45 -95.9735 1061.14 -66.9602 1090.82 -38.8898C1097.8 -32.2781 1105.05 -25.4361 1112.32 -18.9164C1144.89 10.2942 1186.46 42.3358 1247.08 84.9729C1280.73 108.561 1320.8 135.984 1363 160.556C1453.77 213.457 1555.73 251.753 1656.38 271.311L1656.42 271.307Z" fill="url(#paint13_linear_256_1612)"/>
<path d="M1649.83 281.575C1675.81 286.622 1701.62 290.35 1727.06 292.682L1727.06 292.163C1605.07 280.979 1474.35 237.682 1359 170.241C1322.79 149.083 1285 124.012 1243.45 93.5776C1189.03 53.6254 1146.36 17.8567 1113.03 -15.7608C1106.32 -22.5326 1099.63 -29.641 1093.17 -36.5225C1064.61 -66.9301 1035.07 -98.374 986.174 -119.852C970.015 -126.98 954.119 -131.527 938.941 -133.391C921.775 -135.495 905.957 -134.06 891.937 -129.113C888.346 -127.845 884.839 -126.402 881.518 -124.821C871.914 -120.247 863.796 -114.627 856.454 -109.229C846.793 -102.123 837.477 -94.7026 828.481 -87.5244C809.949 -72.7194 790.774 -57.4179 768.009 -44.7574C741.252 -29.7654 705.272 -21.232 663.945 -20.0987C627.058 -19.0745 586.065 -23.9439 545.383 -34.1536C523.232 -39.7232 501.42 -46.7637 480.58 -55.0839C466.493 -60.7137 452.815 -66.9307 439.948 -73.5776C428.48 -79.4893 417.763 -86.1704 407.394 -92.6256C387.105 -105.268 366.128 -118.327 339.131 -125.81C304.379 -135.455 268.108 -134.458 233.067 -133.504C221.094 -133.175 208.713 -132.835 196.763 -132.954C183.246 -133.084 168.867 -133.234 154.743 -133.515C124.621 -134.114 84.8998 -135.437 44.9943 -140.445C-27.201 -149.49 -104.779 -163.695 -199.113 -185.154L-199.274 -184.666C-104.888 -163.196 -27.2774 -148.974 44.9732 -139.929C84.9519 -134.918 124.69 -133.592 154.85 -132.997C168.974 -132.716 183.354 -132.566 196.87 -132.436C208.859 -132.321 221.24 -132.661 233.23 -132.987C268.198 -133.943 304.337 -134.932 338.919 -125.342C365.743 -117.904 386.655 -104.881 406.882 -92.2844C417.266 -85.815 428.015 -79.1163 439.518 -73.1978C452.418 -66.5333 466.129 -60.2987 480.269 -54.6586C501.158 -46.3174 523.02 -39.2559 545.242 -33.6726C586.026 -23.4316 627.145 -18.549 664.161 -19.5709C705.657 -20.7165 741.792 -29.2764 768.659 -44.3374C791.467 -57.0234 810.648 -72.3464 829.22 -87.1661C838.216 -94.3442 847.515 -101.769 857.173 -108.863C864.491 -114.243 872.586 -119.845 882.13 -124.397C885.43 -125.97 888.896 -127.399 892.467 -128.659C910.828 -135.136 941.946 -138.796 985.83 -119.444C1034.55 -98.0469 1064.02 -66.6598 1092.53 -36.3197C1098.98 -29.4382 1105.68 -22.319 1112.4 -15.5438C1145.77 18.1021 1188.46 53.8991 1242.92 93.869C1284.5 124.321 1322.32 149.409 1358.54 170.582C1449.98 224.043 1551.1 262.357 1649.87 281.549L1649.83 281.575Z" fill="url(#paint14_linear_256_1612)"/>
<path d="M1642.72 291.832C1670.26 297.183 1697.54 300.959 1724.44 303.145L1724.42 302.622C1661.86 297.551 1597.15 283.801 1532.09 261.749C1471.12 241.076 1411.35 213.667 1354.45 180.296C1315.97 157.733 1277.2 131.558 1239.21 102.516C1188.47 63.6749 1146.02 25.0332 1113.04 -12.3354C1106.87 -19.3306 1100.73 -26.6697 1094.81 -33.7637C1067.45 -66.5021 1039.16 -100.37 989.838 -123.434C954.984 -139.765 921.334 -143.174 895.063 -133.047C891.587 -131.723 888.12 -130.148 884.753 -128.384C875.243 -123.385 867.41 -117.292 860.362 -111.453C850.761 -103.499 841.594 -95.1454 832.718 -87.0628C815.207 -71.1216 797.094 -54.6307 775.126 -40.7533C748.958 -24.1666 712.886 -14.1933 670.824 -11.9149C633.106 -9.877 591.363 -13.977 550.08 -23.7839C527.368 -29.18 505.261 -36.1533 484.357 -44.5088C470.17 -50.1806 456.436 -56.5439 443.533 -63.4124C431.783 -69.6615 420.889 -76.8064 410.361 -83.7219C390.486 -96.7584 369.932 -110.243 343.077 -117.992C308.224 -128.041 271.821 -126.957 236.624 -125.898C224.345 -125.527 211.64 -125.148 199.377 -125.271C183.598 -125.434 170.331 -125.605 156.949 -125.9C126.587 -126.568 86.5509 -128.032 46.0755 -133.411C-41.356 -145.032 -127.536 -163.36 -200.328 -179.752L-200.49 -179.264C-127.68 -162.868 -41.4621 -144.544 46.0221 -132.912C86.5679 -127.52 126.659 -126.057 157.039 -125.385C170.421 -125.09 183.688 -124.919 199.487 -124.764C211.768 -124.638 224.493 -125.024 236.789 -125.391C271.89 -126.435 308.166 -127.522 342.83 -117.532C369.533 -109.835 390.007 -96.3996 409.816 -83.3983C420.362 -76.4793 431.271 -69.3203 443.069 -63.0394C456.004 -56.1533 469.788 -49.769 484.007 -44.0796C504.962 -35.7031 527.136 -28.7054 549.901 -23.2989C591.289 -13.4716 633.173 -9.34426 671.005 -11.3939C713.254 -13.6812 749.465 -23.6951 775.745 -40.3616C797.757 -54.2645 815.89 -70.7628 833.407 -86.7255C842.28 -94.7974 851.448 -103.151 861.045 -111.094C868.07 -116.915 875.877 -122.979 885.344 -127.953C888.691 -129.71 892.117 -131.27 895.573 -132.587C921.559 -142.61 954.897 -139.206 989.438 -123.026C1038.56 -100.046 1066.8 -66.2562 1094.11 -33.5712C1100.05 -26.4737 1106.19 -19.1238 1112.36 -12.1287C1145.37 25.2684 1187.85 63.9491 1238.63 102.822C1276.64 131.889 1315.45 158.075 1353.97 180.665C1410.93 214.072 1470.77 241.506 1531.83 262.206C1569.04 274.814 1606.12 284.72 1642.76 291.838L1642.72 291.832Z" fill="url(#paint15_linear_256_1612)"/>
<path d="M1636.31 302.2C1665.13 307.801 1693.69 311.622 1721.82 313.607L1721.78 313.092C1607.07 305.005 1484.92 266.254 1368.5 201.036C1316.16 171.714 1267.04 138.171 1222.52 101.352C1179.3 65.6101 1142.48 28.5131 1113.07 -8.90651C1107.42 -16.0819 1101.83 -23.5979 1096.41 -30.8756C1070.28 -66.0093 1043.24 -102.334 993.503 -127.015C958.443 -144.415 924.583 -147.943 898.171 -136.975C884.87 -131.446 874.981 -123.662 864.233 -113.672C854.792 -104.897 845.84 -95.6538 837.206 -86.7107C820.628 -69.5825 803.494 -51.862 782.208 -36.7559C733.097 -1.89393 645.925 7.07624 554.74 -13.41C515.422 -22.2362 479.195 -35.648 447.086 -53.2538C435.105 -59.8302 424.087 -67.4285 413.432 -74.7867C393.924 -88.2491 373.776 -102.164 346.971 -110.185C312.001 -120.641 275.444 -119.462 240.094 -118.309C227.512 -117.907 214.518 -117.482 201.98 -117.614C149.203 -118.197 97.6486 -119.299 47.1285 -126.404C-36.7171 -138.188 -118.351 -155.813 -201.557 -174.364L-201.718 -173.876C-118.477 -155.317 -36.8261 -137.689 47.0723 -125.895C97.6655 -118.788 149.273 -117.675 202.088 -117.096C214.661 -116.957 227.672 -117.378 240.257 -117.792C275.494 -118.933 311.943 -120.122 346.724 -109.725C373.341 -101.762 393.427 -87.8937 412.855 -74.4807C423.528 -67.1191 434.558 -59.4958 446.589 -52.8984C478.793 -35.229 515.122 -21.786 554.564 -12.9359C646.038 7.57278 733.54 -1.38972 782.854 -36.3931C804.185 -51.5355 821.341 -69.2633 837.923 -86.413C846.576 -95.3527 855.507 -104.589 864.945 -113.353C875.647 -123.307 885.49 -131.055 898.707 -136.543C933.955 -151.173 972.953 -136.613 993.074 -126.636C1042.62 -102.049 1069.59 -65.7918 1095.69 -30.7329C1101.11 -23.4552 1106.72 -15.9251 1112.36 -8.74965C1141.82 28.7125 1178.67 65.8379 1221.92 101.608C1266.49 138.458 1315.65 172.034 1368.04 201.376C1456.07 250.694 1547.41 284.893 1636.33 302.171L1636.31 302.2Z" fill="url(#paint16_linear_256_1612)"/>
<path d="M1644.74 299.445C1671.16 304.578 1697.15 308.215 1722.62 310.338L1722.6 309.816C1639 302.859 1504.94 275.104 1341.06 182.348C1291.77 154.545 1246.03 123.92 1205.16 91.3351C1168.52 62.0474 1136.32 31.5984 1109.43 0.849585C1103.1 -6.39109 1096.81 -14.008 1090.74 -21.3799C1063.3 -54.6187 1034.94 -88.9873 985.934 -112.927C951.405 -129.806 917.855 -133.895 891.462 -124.448C876.688 -119.15 865.597 -111.215 856.704 -104.152C846.562 -96.1009 837 -87.5751 827.752 -79.3387C811.141 -64.5334 793.955 -49.2181 773.004 -36.2844C747.644 -20.5464 712.427 -11.0284 671.165 -8.77528C632.861 -6.68189 590.352 -10.7498 548.236 -20.5489C540.115 -22.4321 531.996 -24.5407 524.099 -26.7983C494.421 -35.2767 466.434 -46.3304 440.944 -59.6444C429.169 -65.7966 418.245 -72.8231 407.704 -79.6168C387.698 -92.4981 367.006 -105.806 340.151 -113.194C331.319 -115.622 322.209 -117.392 312.327 -118.6C286.551 -121.756 260.172 -120.531 234.67 -119.34C222.321 -118.768 209.561 -118.174 197.251 -118.114C147.717 -117.875 99.2291 -118.122 50.7083 -123.731C48.6269 -123.966 46.5335 -124.226 44.44 -124.486C-27.2529 -133.546 -103.408 -147.757 -202.489 -170.579L-202.668 -170.094C-103.553 -147.265 -27.3616 -133.048 44.3839 -123.977C46.4773 -123.717 48.5709 -123.457 50.6522 -123.222C99.2462 -117.61 147.786 -117.353 197.359 -117.596C209.707 -117.66 222.484 -118.25 234.833 -118.823C260.295 -119.999 286.6 -121.227 312.271 -118.091C322.1 -116.893 331.14 -115.137 339.901 -112.723C366.584 -105.38 387.21 -92.107 407.137 -79.275C417.71 -72.4637 428.649 -65.4231 440.46 -59.264C466.032 -45.9114 494.083 -34.8226 523.85 -26.327C531.781 -24.0627 539.918 -21.9506 548.057 -20.064C590.278 -10.2444 632.93 -6.15989 671.349 -8.26507C712.78 -10.5305 748.154 -20.0857 773.624 -35.8927C794.619 -48.8519 811.807 -64.178 828.441 -79.0014C837.689 -87.2378 847.251 -95.7636 857.373 -103.808C866.222 -110.845 877.267 -118.743 891.939 -124.005C918.048 -133.349 951.27 -129.278 985.49 -112.562C1034.31 -88.7023 1062.62 -54.4012 1090.02 -21.2265C1096.11 -13.8512 1102.39 -6.22347 1108.72 1.01721C1135.63 31.8051 1167.87 62.2718 1204.54 91.5879C1245.46 124.205 1291.23 154.847 1340.57 182.682C1401.42 217.127 1463.16 245.338 1524.06 266.537C1564.95 280.765 1605.32 291.761 1644.75 299.423L1644.74 299.445Z" fill="url(#paint17_linear_256_1612)"/>
<path d="M1653.73 296.863C1677.44 301.47 1700.66 304.864 1723.38 307.053L1723.39 306.533C1608.36 295.492 1480.46 253.229 1343.24 180.918C1292.73 154.483 1246.27 125.919 1205.11 96.0253C1167.68 68.6636 1134.27 39.9225 1105.78 10.581C1098.68 3.24722 1091.58 -4.50537 1084.73 -12.0061C1056.1 -43.3187 1026.51 -75.7 978.339 -98.8673C944.327 -115.238 911.084 -119.879 884.725 -111.939C872.546 -108.272 861.565 -102.937 849.13 -94.653C838.274 -87.4184 828.053 -79.7099 818.176 -72.2624C801.528 -59.7013 784.309 -46.7089 763.771 -35.8302C738.221 -22.3099 703.333 -14.66 662.869 -13.7208C625.208 -12.8469 583.318 -17.6759 541.702 -27.6944C533.685 -29.6251 525.644 -31.7524 517.785 -34.0138C488.437 -42.4846 460.508 -53.2559 434.752 -66.0341C423.268 -71.7344 412.507 -78.1753 402.116 -84.3976C380.578 -97.2827 360.244 -109.459 333.229 -116.223C324.569 -118.38 315.318 -119.963 305.727 -120.934C280.26 -123.498 254.268 -121.905 229.121 -120.373C217.027 -119.639 204.5 -118.875 192.416 -118.613C143.861 -117.585 96.2679 -117.071 47.8471 -121.914C45.7779 -122.124 43.7113 -122.345 41.6447 -122.566C-32.5491 -130.87 -115.033 -145.745 -203.507 -166.8L-203.686 -166.315C-115.142 -145.246 -32.6052 -130.361 41.6238 -122.05C43.6875 -121.819 45.7568 -121.609 47.8262 -121.399C96.3174 -116.541 143.951 -117.071 192.541 -118.092C204.663 -118.358 217.19 -119.121 229.302 -119.852C254.393 -121.384 280.345 -122.962 305.703 -120.407C315.242 -119.447 324.422 -117.878 333.029 -115.73C359.869 -109.001 380.141 -96.8706 401.599 -84.0348C412.005 -77.7983 422.783 -71.3541 434.3 -65.6362C460.103 -52.8262 488.117 -42.027 517.533 -33.5318C525.406 -31.2562 533.482 -29.122 541.499 -27.1914C583.219 -17.1416 625.234 -12.2995 663.006 -13.1744C703.62 -14.1185 738.664 -21.8056 764.322 -35.3842C784.92 -46.285 802.142 -59.2881 818.813 -71.8673C828.69 -79.3149 838.893 -87.0268 849.727 -94.2433C862.098 -102.494 873.015 -107.796 885.116 -111.445C911.195 -119.303 944.131 -114.689 977.864 -98.4512C1025.87 -75.3612 1055.4 -43.0366 1083.99 -11.7773C1090.84 -4.27657 1097.94 3.48679 1105.05 10.824C1133.57 40.1939 1167.03 68.9668 1204.49 96.3461C1245.68 126.268 1292.19 154.864 1342.75 181.32C1452.99 239.418 1557.28 278.144 1653.71 296.881L1653.73 296.863Z" fill="url(#paint18_linear_256_1612)"/>
<path d="M1662.61 294.396C1683.52 298.46 1703.99 301.578 1724.17 303.769L1724.19 303.253C1663 296.584 1599.05 281.47 1528.69 257.065C1473.04 237.754 1413.1 212.39 1345.44 179.504C1291.27 153.182 1245.36 127.416 1205.09 100.721C1167.31 75.6862 1132.68 48.6423 1102.15 20.3257C1094.12 12.868 1086.47 5.29225 1078.37 -2.72315C1048.69 -32.0823 1017.99 -62.4522 970.773 -84.7906C927.861 -105.128 896.642 -103.963 878.016 -99.4131C865.337 -96.3177 853.766 -91.7755 841.602 -85.1338C830.038 -78.8162 819.183 -72.0218 808.681 -65.4527C792.023 -55.0179 774.78 -44.2447 754.582 -35.3452C728.519 -23.8677 694.906 -18.2415 654.665 -18.6146C617.666 -18.9567 576.363 -24.5643 535.228 -34.8056C527.295 -36.7764 519.336 -38.9331 511.535 -41.2059C482.535 -49.6655 454.645 -60.158 428.641 -72.3969C417.518 -77.6316 407.024 -83.4557 396.888 -89.0861C374.655 -101.417 353.671 -113.076 326.424 -119.218C317.814 -121.139 308.672 -122.498 299.242 -123.234C274.084 -125.196 248.465 -123.259 223.692 -121.384C211.831 -120.479 199.558 -119.554 187.682 -119.093C142.01 -117.358 93.3733 -116.007 45.1051 -120.075C43.0627 -120.246 41.0259 -120.438 38.9714 -120.634C-37.7155 -128.066 -121.879 -142.725 -204.423 -163.001L-204.62 -162.52C-122.026 -142.223 -37.7893 -127.561 38.9681 -120.115C41.0224 -119.919 43.0621 -119.738 45.122 -119.563C93.481 -115.489 142.153 -116.833 187.862 -118.572C199.759 -119.04 212.032 -119.966 223.911 -120.867C248.645 -122.738 274.212 -124.685 299.277 -122.719C308.651 -121.982 317.743 -120.645 326.283 -118.737C353.354 -112.629 374.276 -101.016 396.426 -88.7239C406.598 -83.0866 417.088 -77.2518 428.244 -71.9995C454.295 -59.7288 482.253 -49.2119 511.306 -40.7419C519.121 -38.4551 527.119 -36.3023 535.051 -34.3315C576.289 -24.0589 617.701 -18.4415 654.808 -18.0897C695.215 -17.7181 728.983 -23.3709 755.15 -34.8958C775.389 -43.8101 792.637 -54.6047 809.336 -65.0542C819.838 -71.6234 830.673 -78.4104 842.234 -84.7172C854.334 -91.3261 865.842 -95.8355 878.445 -98.923C896.893 -103.428 927.808 -104.562 970.376 -84.3932C1017.43 -62.1213 1048.08 -31.8046 1077.72 -2.48803C1085.82 5.52735 1093.49 13.1065 1101.51 20.575C1132.08 48.92 1166.73 75.9922 1204.55 101.045C1244.85 127.757 1290.8 153.555 1345.01 179.895C1412.72 212.791 1472.69 238.183 1528.4 257.504C1575.66 273.907 1620.04 286.112 1662.63 294.389L1662.61 294.396Z" fill="url(#paint19_linear_256_1612)"/>
<path d="M1672.61 292.171C1690.01 295.551 1707.46 298.354 1724.96 300.501L1725 299.989C1591.89 283.717 1460.41 228.532 1347.63 178.089C1290.17 152.394 1244.87 129.297 1205.05 105.426C1166.65 82.3945 1130.8 57.0444 1098.51 30.0719C1089.42 22.4415 1080.72 14.6607 1071.51 6.41926C1040.92 -20.959 1009.29 -49.262 963.211 -70.7231C939.903 -81.5908 905.031 -93.2252 871.332 -86.9037C858.05 -84.4113 845.866 -80.7227 834.101 -75.6418C821.84 -70.3523 810.355 -64.5616 799.236 -58.9712C782.545 -50.5765 765.3 -41.894 745.422 -34.8982C719.236 -25.682 685.953 -21.8558 646.475 -23.5497C610.154 -25.1045 569.452 -31.4765 528.749 -41.9617C520.935 -43.9658 513.02 -46.148 505.263 -48.4461C476.643 -56.8771 448.81 -67.0873 422.507 -78.808C411.883 -83.539 401.765 -88.7365 391.971 -93.7579C368.943 -105.577 347.17 -116.745 319.576 -122.254C319.382 -122.291 319.206 -122.325 319.013 -122.363C310.624 -123.993 301.779 -125.068 292.715 -125.575C267.885 -126.942 242.634 -124.64 218.217 -122.424C206.592 -121.361 194.574 -120.273 182.922 -119.61C138.172 -117.142 90.4588 -115.001 42.3229 -118.287C40.3101 -118.43 38.2799 -118.576 36.255 -118.743C-42.8388 -125.208 -126.396 -139.207 -205.362 -159.251L-205.559 -158.769C-126.522 -138.712 -42.8773 -124.696 36.2897 -118.228C38.3172 -118.071 40.3447 -117.915 42.3777 -117.779C90.6043 -114.487 138.355 -116.632 183.143 -119.104C194.812 -119.763 206.852 -120.859 218.476 -121.922C242.84 -124.148 268.05 -126.435 292.79 -125.074C302 -124.561 310.953 -123.477 319.472 -121.777C346.905 -116.288 368.599 -105.169 391.545 -93.3888C401.338 -88.3674 411.474 -83.1665 422.131 -78.4179C448.483 -66.6762 476.366 -56.445 505.039 -48.0038C512.816 -45.7129 520.732 -43.5308 528.56 -41.5125C569.349 -30.9995 610.159 -24.6177 646.57 -23.0566C686.195 -21.3569 719.629 -25.1988 745.938 -34.459C765.859 -41.4803 783.142 -50.1668 799.835 -58.5722C810.937 -64.166 822.419 -69.9459 834.66 -75.2281C846.381 -80.2835 858.487 -83.9536 871.711 -86.4347C905.101 -92.7032 939.697 -81.145 962.84 -70.3546C1008.79 -48.9638 1040.37 -20.6926 1070.92 6.6431C1080.13 14.8845 1088.83 22.6761 1097.93 30.3099C1130.27 57.3034 1166.13 82.6784 1204.58 105.742C1244.43 129.641 1289.77 152.745 1347.28 178.472C1445.32 222.324 1557.52 269.762 1672.68 292.139L1672.61 292.171Z" fill="url(#paint20_linear_256_1612)"/>
<path d="M1683.45 290.22C1697.56 292.961 1711.65 295.315 1725.75 297.229L1725.8 296.72C1601.55 279.865 1476.19 228.479 1365.58 183.135C1360.3 180.968 1355.05 178.819 1349.82 176.683C1288.37 151.534 1243.71 131.015 1205.02 110.13C1165.96 89.0624 1128.9 65.4096 1094.86 39.8244C1084.47 31.9876 1074.53 23.9318 1064.01 15.4126C1032.73 -9.92966 1000.36 -36.1388 955.625 -56.6279C932.673 -67.1553 898.26 -78.7796 864.604 -74.3593C850.354 -72.4844 837.905 -69.7849 826.553 -66.104C813.652 -61.9218 801.547 -57.2459 789.853 -52.7277C773.119 -46.2621 755.816 -39.5908 736.213 -34.3946C685.563 -20.9719 607.568 -26.3195 522.22 -49.0612C514.476 -51.1197 506.641 -53.3312 498.955 -55.6157C470.768 -64.0077 442.975 -73.9391 416.338 -85.1484C406.336 -89.3517 396.719 -93.9094 387.415 -98.3161C363.435 -109.664 340.807 -120.377 312.695 -125.23C304.279 -126.684 295.33 -127.564 286.155 -127.856C261.635 -128.632 236.752 -125.964 212.686 -123.386C201.318 -122.172 189.551 -120.91 178.127 -120.057C134.312 -116.842 87.5088 -113.926 39.5025 -116.418C37.5167 -116.521 35.5161 -116.639 33.5007 -116.771C-45.5362 -121.869 -130.713 -135.595 -206.36 -155.412L-206.574 -154.934C-130.86 -135.092 -45.5924 -121.36 33.5324 -116.245C35.5479 -116.113 37.5513 -116.006 39.5519 -115.889C87.6313 -113.393 134.475 -116.325 178.343 -119.529C189.784 -120.379 201.552 -121.64 212.94 -122.863C236.951 -125.44 261.793 -128.092 286.24 -127.319C295.379 -127.035 304.235 -126.15 312.601 -124.717C340.502 -119.906 363.08 -109.214 386.995 -97.9006C396.299 -93.4939 405.933 -88.9327 415.968 -84.7118C442.637 -73.4849 470.48 -63.5326 498.72 -55.1303C506.421 -52.8316 514.256 -50.62 522.018 -48.5582C538.766 -44.0949 555.24 -40.295 571.262 -37.1817C637.145 -24.3803 695.745 -23.0383 736.633 -33.8723C756.274 -39.0724 773.603 -45.7726 790.354 -52.2347C802.049 -56.753 814.133 -61.4215 827.014 -65.5963C838.325 -69.2626 850.713 -71.94 864.888 -73.8071C898.237 -78.1851 932.412 -66.641 955.215 -56.1767C999.856 -35.7404 1032.16 -9.56639 1063.39 15.744C1073.91 24.2741 1083.87 32.3332 1094.25 40.1701C1128.33 65.7728 1165.44 89.4575 1204.52 110.554C1243.25 131.456 1287.93 151.992 1349.42 177.159C1354.65 179.295 1359.9 181.455 1365.18 183.611C1463.32 223.844 1573.1 268.834 1683.44 290.274L1683.45 290.22Z" fill="url(#paint21_linear_256_1612)"/>
<path d="M1693.3 288.225C1704.35 290.371 1715.41 292.284 1726.51 293.943L1726.58 293.438C1619.64 277.461 1514.81 237.351 1413.42 198.555C1392.22 190.435 1372.19 182.77 1351.99 175.263C1295.14 154.127 1248.4 135.769 1204.96 114.831C1165.23 95.6773 1126.96 73.7217 1091.2 49.577C1079.26 41.4718 1067.8 33.0757 1055.69 24.1808C1023.99 0.925945 991.202 -23.1172 948.041 -42.554C915.664 -57.1612 884.489 -63.8288 857.895 -61.8328C842.161 -60.653 829.81 -58.9854 819.028 -56.5948C805.584 -53.614 792.92 -50.1429 780.671 -46.783C763.838 -42.1672 746.429 -37.3922 727.029 -33.9304C676.003 -24.8178 600.953 -32.7343 515.719 -56.2109C508.094 -58.3026 500.338 -60.5328 492.678 -62.8462C464.992 -71.1748 437.238 -80.8273 410.182 -91.553C400.978 -95.1946 392.056 -99.075 383.417 -102.833C358.295 -113.759 334.554 -124.089 305.825 -128.259C297.46 -129.478 288.636 -130.13 279.588 -130.193C255.376 -130.367 230.864 -127.345 207.169 -124.413C196.037 -123.039 184.524 -121.616 173.328 -120.571C130.436 -116.635 84.5398 -112.932 36.678 -114.616C34.7044 -114.695 32.7307 -114.773 30.7422 -114.866C-49.4029 -118.733 -133.956 -131.795 -207.341 -151.648L-207.555 -151.169C-134.085 -131.289 -49.4239 -118.217 30.8119 -114.344C32.8004 -114.251 34.7917 -114.169 36.7653 -114.091C84.7003 -112.403 130.635 -116.11 173.564 -120.051C184.777 -121.092 196.294 -122.526 207.443 -123.896C231.1 -126.825 255.574 -129.843 279.711 -129.661C288.686 -129.601 297.454 -128.948 305.766 -127.74C334.314 -123.582 357.973 -113.29 383.029 -102.4C391.668 -98.6418 400.608 -94.758 409.827 -91.1023C436.9 -80.3732 464.686 -70.703 492.408 -62.3676C500.068 -60.0542 507.842 -57.8206 515.485 -55.7254C600.909 -32.2005 676.143 -24.2822 727.359 -33.4144C746.799 -36.8908 764.246 -41.6698 781.1 -46.2929C793.328 -49.6455 805.975 -53.12 819.398 -56.0934C830.142 -58.4801 842.435 -60.1365 858.114 -61.3158C884.501 -63.2955 915.444 -56.6616 947.642 -42.1458C990.705 -22.7618 1023.45 1.26033 1055.12 24.4869C1067.24 33.3851 1078.7 41.7812 1090.66 49.9007C1126.46 74.0771 1164.78 96.0645 1204.54 115.236C1248.02 136.191 1294.81 154.571 1351.67 175.71C1371.87 183.217 1391.9 190.882 1413.1 199.002C1504.05 233.802 1597.76 269.673 1693.33 288.243L1693.3 288.225Z" fill="url(#paint22_linear_256_1612)"/>
<path d="M1704.43 286.579C1712.04 288.059 1719.67 289.428 1727.29 290.671L1727.38 290.169C1633.9 274.93 1541.37 241.179 1451.89 208.538C1418.1 196.21 1386.2 184.577 1354.18 173.858C1301.58 156.248 1251.9 139.613 1204.92 119.535C1164.49 102.256 1124.99 82.0054 1087.55 59.3189C1073.69 50.8735 1060.37 42.0256 1046.27 32.6658C1014.52 11.57 981.675 -10.246 940.441 -28.4836C908.568 -42.6085 877.698 -49.8159 851.17 -49.3097C835.737 -49.0205 823.078 -48.5313 811.483 -47.0783C797.622 -45.3537 784.507 -43.1564 771.819 -41.0346C754.773 -38.1888 737.147 -35.2411 717.823 -33.4482C667.45 -28.7734 593.348 -39.3869 509.194 -63.3317C501.656 -65.4744 493.961 -67.7266 486.376 -70.0478C459.378 -78.2539 431.667 -87.6383 404.02 -97.9255C395.859 -100.957 387.851 -104.152 380.111 -107.238C353.587 -117.804 328.522 -127.792 298.953 -131.278C290.638 -132.261 281.921 -132.678 273.037 -132.517C249.115 -132.092 224.986 -128.691 201.63 -125.422C190.734 -123.889 179.495 -122.31 168.528 -121.074C128.364 -116.619 81.534 -111.934 33.8694 -112.801C31.9226 -112.84 29.9583 -112.883 27.9994 -112.947C-52.9049 -115.504 -136.834 -127.903 -208.327 -147.862L-208.559 -147.387C-136.963 -127.397 -52.9287 -114.978 28.0691 -112.425C30.028 -112.361 31.9924 -112.318 33.9567 -112.275C81.7119 -111.402 128.58 -116.091 168.781 -120.551C179.749 -121.787 191.026 -123.369 201.904 -124.905C225.208 -128.184 249.313 -131.568 273.163 -131.996C281.991 -132.156 290.635 -131.742 298.897 -130.769C328.305 -127.303 353.285 -117.343 379.726 -106.815C387.466 -103.729 395.477 -100.546 403.652 -97.4997C431.335 -87.2057 459.064 -77.8179 486.076 -69.5976C493.681 -67.2837 501.374 -65.0207 508.912 -62.878C549.269 -51.3981 587.222 -42.9387 621.71 -37.7515C659.165 -32.112 691.574 -30.4924 718.027 -32.9453C737.409 -34.7495 755.053 -37.6938 772.116 -40.5362C784.784 -42.6506 797.899 -44.848 811.739 -46.5652C823.276 -48.0069 835.898 -48.4921 851.295 -48.7882C877.636 -49.2856 908.334 -42.1231 940.021 -28.068C981.17 -9.85832 1013.97 11.9259 1045.69 32.9934C1059.78 42.3532 1073.1 51.2118 1087 59.6641C1124.49 82.3715 1164.02 102.651 1204.5 119.95C1251.53 140.05 1301.22 156.688 1353.84 174.301C1385.85 185.017 1417.75 196.65 1451.54 208.978C1533.78 238.969 1618.6 269.913 1704.39 286.583L1704.43 286.579Z" fill="url(#paint23_linear_256_1612)"/>
<path d="M1715.61 285.079C1719.76 285.886 1723.92 286.66 1728.09 287.402L1728.21 286.907C1645.61 272.269 1563.33 243.231 1483.75 215.134C1439.7 199.583 1398.11 184.903 1356.37 172.441C1349.26 170.326 1342.21 168.222 1335.18 166.143C1289.53 152.596 1246.41 139.799 1204.88 124.238C1163.69 108.8 1123 90.2492 1083.92 69.0743C1067.61 60.1895 1051.95 50.7619 1035.37 40.7843C1004.08 21.9466 971.724 2.47438 932.89 -14.3928C901.542 -28.0429 870.976 -35.7901 844.495 -36.7663L839.229 -36.9647C826.121 -37.4666 814.805 -37.9027 804.008 -37.5488C789.972 -37.0899 776.591 -36.2325 763.639 -35.3934C746.203 -34.2731 728.186 -33.1187 708.689 -32.9638C658.783 -32.571 587.569 -45.5274 502.723 -70.4538C495.337 -72.6122 487.744 -74.9011 480.126 -77.24C454.367 -85.1604 426.692 -94.2552 397.906 -104.278C391.074 -106.656 384.317 -109.11 377.783 -111.498C349.525 -121.78 322.822 -131.499 292.125 -134.255C283.861 -135.002 275.25 -135.184 266.531 -134.799C242.913 -133.761 219.138 -130.009 196.146 -126.363C185.508 -124.679 174.522 -122.938 163.803 -121.519C124.499 -116.377 78.5898 -110.891 31.1223 -110.94C29.185 -110.943 27.2679 -110.954 25.3183 -110.983C-54.8887 -112.15 -140.384 -124.198 -209.231 -144.038L-209.48 -143.567C-140.513 -123.692 -54.9125 -111.624 25.4232 -110.454C27.3728 -110.425 29.3074 -110.411 31.2449 -110.407C78.7881 -110.367 124.753 -115.853 164.095 -120.999C174.834 -122.426 185.837 -124.163 196.476 -125.847C219.444 -129.475 243.185 -133.234 266.726 -134.264C275.387 -134.637 283.925 -134.459 292.137 -133.722C322.67 -130.975 349.27 -121.287 377.46 -111.03C383.997 -108.653 390.752 -106.188 397.601 -103.806C426.401 -93.7692 454.076 -84.6744 479.871 -76.7472C487.486 -74.3976 495.099 -72.116 502.483 -69.9468C587.449 -44.9857 658.804 -32.002 708.839 -32.3924C728.374 -32.5513 746.411 -33.713 763.864 -34.8299C776.795 -35.6616 790.177 -36.519 804.195 -36.9814C814.955 -37.3313 826.235 -36.902 839.325 -36.4036L844.591 -36.2052C870.906 -35.2275 901.317 -27.5218 932.532 -13.9313C971.298 2.91146 1003.62 22.3661 1034.88 41.1862C1051.48 51.1672 1067.16 60.609 1083.47 69.4972C1122.61 90.6932 1163.34 109.275 1204.59 124.735C1246.17 140.317 1289.31 153.117 1334.97 166.667C1341.99 168.754 1349.06 170.851 1356.14 172.962C1397.85 185.417 1439.44 200.097 1483.47 215.635C1559.1 242.329 1637.16 269.891 1715.65 285.143L1715.61 285.079Z" fill="url(#paint24_linear_256_1612)"/>
<path d="M1726.78 283.714C1727.48 283.851 1728.17 283.984 1728.87 284.121L1729 283.626C1728.31 283.492 1727.61 283.356 1726.91 283.219C1654.08 269.068 1581.19 243.866 1510.7 219.48C1460.47 202.106 1408.54 184.15 1358.54 171.023C1346.03 167.734 1333.51 164.52 1321.38 161.407C1280.77 150.974 1242.42 141.126 1204.83 128.941C1162.82 115.321 1120.9 98.4535 1080.25 78.8145C1060.8 69.3753 1042.09 59.1524 1022.28 48.342C992.173 31.9168 961.049 14.9319 925.295 -0.33139C894.457 -13.5208 864.192 -21.797 837.757 -24.2557C832.744 -24.7213 827.923 -25.2173 823.264 -25.6934C813.857 -26.6625 804.968 -27.5649 796.468 -28.0413C782.708 -28.8056 769.475 -29.2526 756.649 -29.6998C738.422 -30.3262 719.591 -30.9686 699.474 -32.5047C650.454 -36.2333 583.947 -50.9978 496.173 -77.6119C488.874 -79.8212 481.341 -82.1322 473.782 -84.4824C446.23 -93.0449 418.038 -102.139 391.684 -110.694C386.587 -112.351 381.499 -114.04 376.581 -115.674C346.138 -125.781 317.395 -135.321 285.208 -137.304C276.992 -137.804 268.489 -137.762 259.952 -137.149C236.625 -135.513 213.212 -131.373 190.557 -127.38C180.177 -125.556 169.449 -123.663 158.975 -122.049C120.512 -116.224 75.5065 -109.941 28.2687 -109.154C26.361 -109.129 24.4533 -109.104 22.5308 -109.094C-57.9607 -108.859 -142.799 -120.225 -210.241 -140.29L-210.491 -139.819C-142.911 -119.716 -57.9288 -108.333 22.6736 -108.569C24.5962 -108.58 26.5215 -108.601 28.4292 -108.626C75.7429 -109.42 120.786 -115.707 159.287 -121.536C169.778 -123.147 180.507 -125.04 190.886 -126.864C213.504 -130.853 236.896 -134.986 260.168 -136.622C268.665 -137.219 277.097 -137.276 285.275 -136.771C317.283 -134.811 345.956 -125.285 376.314 -115.206C381.232 -113.572 386.32 -111.883 391.434 -110.223C417.788 -101.667 445.96 -92.5663 473.533 -84.0111C481.092 -81.661 488.624 -79.35 495.924 -77.1407C583.8 -50.4953 650.378 -35.7171 699.505 -31.9788C719.643 -30.45 738.492 -29.8042 756.736 -29.1744C769.545 -28.7306 782.777 -28.2836 796.521 -27.5227C804.985 -27.0532 813.871 -26.14 823.263 -25.185C827.923 -24.709 832.743 -24.213 837.774 -23.7439C864.065 -21.3018 894.193 -13.0638 924.913 0.0802381C960.617 15.3225 991.726 32.2932 1021.8 48.7008C1041.63 59.5254 1060.34 69.7375 1079.82 79.1944C1120.52 98.8544 1162.49 115.743 1204.55 129.384C1242.17 141.587 1280.54 151.438 1321.17 161.874C1333.29 164.988 1345.82 168.201 1358.33 171.49C1408.27 184.607 1460.18 202.556 1510.38 219.916C1580.93 244.312 1653.85 269.531 1726.76 283.7L1726.78 283.714Z" fill="url(#paint25_linear_256_1612)"/>
<path d="M1729.64 280.834L1729.76 280.339C1663.94 266.781 1597.82 244.159 1533.88 222.29C1476.82 202.774 1417.85 182.592 1360.73 169.606C1344.07 165.815 1327.43 162.22 1311.32 158.739C1274.35 150.743 1239.45 143.204 1204.79 133.633C1161.9 121.797 1118.78 106.627 1076.61 88.5593C1052.95 78.3571 1030.14 67.0552 1006.01 55.0783C978.187 41.2774 949.43 27.0235 917.729 13.7454C887.401 1.01656 857.437 -7.78863 831.081 -11.7121C823.79 -12.8011 816.96 -13.9587 810.326 -15.0895C802.896 -16.3526 795.89 -17.5444 788.972 -18.5043C776.655 -20.2199 764.643 -21.7628 753.045 -23.2595C732.044 -25.9616 712.224 -28.5135 690.337 -32.0093C632.741 -41.1894 559.875 -62.7827 489.702 -84.7338C482.351 -87.0322 474.968 -89.3481 467.535 -91.6851C443.661 -99.1826 413.925 -108.52 385.575 -117.068C382.783 -117.915 379.987 -118.752 377.212 -119.597C343.958 -129.685 312.533 -139.203 278.385 -140.302C270.199 -140.56 261.803 -140.282 253.433 -139.456C230.39 -137.199 207.325 -132.687 185.02 -128.332C174.915 -126.352 164.463 -124.316 154.241 -122.528C116.601 -116.024 72.5023 -108.954 25.509 -107.318C23.6282 -107.254 21.7325 -107.204 19.8369 -107.154C-60.7657 -105.472 -144.965 -116.161 -211.178 -136.484L-211.445 -136.016C-145.114 -115.648 -60.7542 -104.939 19.9798 -106.63C21.8903 -106.665 23.7887 -106.726 25.6694 -106.79C72.7183 -108.427 116.875 -115.507 154.553 -122.016C164.793 -123.8 175.248 -125.847 185.353 -127.827C207.64 -132.185 230.682 -136.679 253.669 -138.936C261.981 -139.75 270.325 -140.038 278.452 -139.769C312.436 -138.68 343.773 -129.179 376.942 -119.118C379.717 -118.274 382.51 -117.426 385.305 -116.589C413.655 -108.041 443.373 -98.7074 467.247 -91.2099C474.663 -88.8763 482.064 -86.557 489.415 -84.2586C559.637 -62.2865 632.559 -40.6937 690.24 -31.4858C712.147 -27.9973 731.986 -25.442 752.983 -22.7291C764.582 -21.2324 776.575 -19.6929 788.893 -17.9774C795.793 -17.0209 802.781 -15.8325 810.194 -14.5728C816.828 -13.442 823.676 -12.281 830.966 -11.192C857.214 -7.27825 887.075 1.49566 917.321 14.1858C948.99 27.4464 977.729 41.6969 1005.53 55.4943C1029.68 67.4747 1052.51 78.7908 1076.2 88.9998C1118.43 107.103 1161.61 122.283 1204.55 134.13C1239.26 143.711 1274.18 151.264 1311.17 159.252C1327.26 162.73 1343.9 166.324 1360.56 170.115C1417.61 183.088 1476.57 203.256 1533.58 222.762C1597.56 244.652 1663.72 267.281 1729.63 280.855L1729.64 280.834Z" fill="url(#paint26_linear_256_1612)"/>
<path d="M1730.42 277.562L1730.58 277.074C1671.96 264.148 1612.98 243.919 1555.93 224.36C1492.52 202.615 1426.94 180.167 1362.9 168.197C1345.66 164.984 1328.44 161.953 1311.78 159.032C1274.76 152.54 1239.8 146.402 1204.73 138.345C1160.91 128.283 1116.58 114.81 1072.94 98.309C1043.36 87.0588 1014.84 74.138 984.623 60.4595C960.813 49.6752 936.209 38.5331 910.145 27.8304C882.033 16.2553 852.311 8.01712 824.39 0.829027C812.054 -2.33614 800.615 -4.81867 789.523 -7.21135C786.811 -7.79487 784.116 -8.37497 781.441 -8.96241C775.272 -10.3195 769.184 -11.6379 763.17 -12.9534C735.594 -18.9669 709.537 -24.6401 681.13 -31.5159C633.807 -42.9709 576.566 -61.5618 515.982 -81.2316C505.193 -84.7404 494.249 -88.2907 483.163 -91.8684C475.897 -94.2069 468.577 -96.5556 461.22 -98.9004C430.912 -108.529 404.146 -116.555 379.399 -123.454C342.844 -133.63 308.341 -143.238 271.495 -143.313C263.339 -143.327 255.066 -142.811 246.883 -141.779C224.125 -138.902 201.388 -134.01 179.396 -129.289C169.57 -127.176 159.395 -124.995 149.442 -123.031C103.751 -114.136 64.7181 -107.744 22.7047 -105.512C20.8536 -105.42 18.9822 -105.321 17.1013 -105.257C-62.3182 -102.136 -148.01 -112.402 -212.137 -132.727L-212.404 -132.259C-148.121 -111.893 -62.2512 -101.603 17.2969 -104.721C19.1805 -104.796 21.0492 -104.885 22.9207 -104.985C65.0098 -107.224 104.099 -113.617 149.83 -122.526C159.801 -124.487 169.976 -126.668 179.804 -128.792C201.761 -133.52 224.475 -138.394 247.195 -141.267C255.323 -142.298 263.558 -142.81 271.658 -142.796C308.32 -142.722 342.753 -133.128 379.205 -122.983C403.934 -116.088 430.683 -108.065 460.99 -98.4365C468.348 -96.0917 475.67 -93.7537 482.934 -91.4045C494.002 -87.8302 504.964 -84.2765 515.753 -80.7678C576.369 -61.0803 633.627 -42.4859 681.003 -31.0207C709.428 -24.1415 735.485 -18.4684 763.061 -12.4548C769.075 -11.1393 775.145 -9.8243 781.332 -8.46385C784.007 -7.8764 786.702 -7.29628 789.414 -6.71276C800.471 -4.32693 811.91 -1.8444 824.228 1.31736C852.1 8.48443 881.768 16.7124 909.813 28.2631C935.859 38.9623 960.464 50.1044 984.256 60.8853C1014.48 74.578 1043.05 87.5057 1072.64 98.7592C1116.31 115.277 1160.71 128.764 1204.59 138.837C1239.69 146.9 1274.67 153.042 1311.7 159.538C1328.37 162.459 1345.57 165.486 1362.81 168.699C1426.83 180.619 1492.29 203.09 1555.65 224.814C1612.74 244.38 1671.75 264.615 1730.43 277.566L1730.42 277.562Z" fill="url(#paint27_linear_256_1612)"/>
<path d="M1731.2 274.279L1731.38 273.794C1677.96 261.21 1624.08 242.764 1571.98 224.924C1504.2 201.708 1434.08 177.713 1365.08 166.78C1342.55 163.215 1320.07 160.179 1298.31 157.241C1266.05 152.881 1235.57 148.767 1204.69 143.049C1159.85 134.742 1114.3 122.977 1069.3 108.064C1030.89 95.267 993.776 79.7621 954.497 63.3394C937.702 56.3134 920.322 49.0495 902.578 41.9071C873.308 30.0957 843.95 20.2217 817.678 13.3656C806.569 10.4612 796.274 7.33091 786.322 4.30125C782.073 3.01238 778.047 1.78948 773.963 0.577848C739.377 -9.6452 706.977 -19.6808 672.008 -31.0064C643.806 -40.1357 612.768 -51.2399 579.917 -62.9789C547.016 -74.7389 513 -86.9074 476.71 -98.9869C469.239 -101.467 461.931 -103.859 454.987 -106.089C426.411 -115.269 398.932 -123.252 373.288 -129.817C336.987 -139.107 301.36 -147.352 264.672 -146.312C256.564 -146.079 248.38 -145.331 240.381 -144.083C217.888 -140.578 195.495 -135.303 173.833 -130.213C164.288 -127.966 154.39 -125.641 144.708 -123.511C100.004 -113.78 61.6948 -106.682 19.9452 -103.676C18.1033 -103.548 16.2617 -103.42 14.4077 -103.317C-64.8944 -98.7048 -149.914 -108.276 -213.073 -128.921L-213.355 -128.467C-150.061 -107.774 -64.8449 -98.1754 14.6061 -102.793C16.4803 -102.903 18.3193 -103.021 20.1638 -103.159C61.969 -106.166 100.336 -113.275 145.081 -123.02C154.781 -125.147 164.661 -127.475 174.227 -129.729C195.871 -134.823 218.243 -140.091 240.696 -143.581C248.656 -144.825 256.785 -145.573 264.853 -145.791C301.374 -146.83 336.895 -138.605 373.109 -129.332C398.718 -122.774 426.182 -114.805 454.723 -105.632C461.666 -103.401 468.975 -101.01 476.446 -98.5298C512.718 -86.4538 546.719 -74.2994 579.62 -62.5394C612.486 -50.7863 643.527 -39.6929 671.743 -30.5494C706.73 -19.2203 739.145 -9.17051 773.731 1.05253C777.815 2.26416 781.824 3.48363 786.073 4.7725C796.042 7.80557 806.337 10.9359 817.482 13.8471C843.718 20.6964 873.026 30.5493 902.229 42.3363C919.972 49.4787 937.335 56.7392 954.13 63.7652C993.444 80.1948 1030.57 95.7139 1069.04 108.521C1114.11 123.459 1159.68 135.241 1204.6 143.551C1235.52 149.276 1266.01 153.394 1298.29 157.756C1320.03 160.692 1342.51 163.727 1365.05 167.292C1433.98 178.201 1503.98 202.176 1571.73 225.384C1623.86 243.231 1677.76 261.692 1731.25 274.289L1731.2 274.279Z" fill="url(#paint28_linear_256_1612)"/>
<path d="M1731.98 271.007L1732.18 270.526C1683.86 258.414 1635.08 241.546 1587.9 225.239C1515.86 200.337 1441.36 174.585 1367.27 165.375C1342.65 162.309 1318.04 159.966 1294.25 157.694C1264.8 154.887 1234.36 151.989 1204.65 147.753C1158.79 141.225 1112.02 131.143 1065.65 117.807C1012.59 102.467 961.363 82.2095 907.139 60.7699L895 55.9705C866.381 44.6471 837.32 34.2549 810.972 25.8925C797.43 21.6001 784.901 16.9511 772.793 12.4629C770.668 11.6771 768.542 10.8913 766.435 10.1089C729.471 -3.52519 694.056 -17.8752 662.821 -30.5204C649.738 -35.8194 636.381 -41.3413 622.237 -47.1853C577.037 -65.8659 525.795 -87.0539 470.209 -106.125C462.995 -108.601 455.748 -111.014 448.71 -113.308C420.84 -122.362 393.383 -130.07 367.147 -136.196C332.428 -144.309 295.149 -151.508 257.816 -149.316C249.66 -148.822 241.581 -147.838 233.846 -146.392C211.597 -142.252 189.511 -136.589 168.174 -131.109C158.929 -128.736 149.349 -126.281 139.941 -123.996C102.109 -114.862 61.0399 -105.849 17.1526 -101.846C15.3378 -101.679 13.508 -101.526 11.6635 -101.387C-24.9175 -98.5975 -64.2208 -99.0258 -101.976 -102.622C-143.947 -106.631 -181.649 -114.194 -214.04 -125.131L-214.34 -124.681C-181.846 -113.712 -144.055 -106.132 -101.977 -102.114C-64.1334 -98.5003 -24.7746 -98.0726 11.8821 -100.87C13.7294 -101.02 15.5592 -101.173 17.3741 -101.34C61.3372 -105.351 102.444 -114.368 140.317 -123.517C149.725 -125.801 159.305 -128.256 168.553 -130.64C189.887 -136.11 211.955 -141.776 234.167 -145.912C241.861 -147.343 249.884 -148.326 258.003 -148.817C295.166 -150.996 332.322 -143.822 366.953 -135.725C393.154 -129.606 420.558 -121.908 448.41 -112.858C455.466 -110.561 462.696 -108.15 469.892 -105.679C525.46 -86.6105 576.67 -65.4401 621.853 -46.7629C635.996 -40.9189 649.353 -35.397 662.436 -30.098C693.686 -17.4386 729.121 -3.09594 766.082 10.5489C768.19 11.3313 770.315 12.1171 772.441 12.9029C784.566 17.3945 797.11 22.0577 810.67 26.3535C837.003 34.7017 866.043 45.1013 894.63 56.4071L906.769 61.2065C961.026 82.6637 1012.27 102.925 1065.4 118.278C1111.83 131.638 1158.66 141.72 1204.58 148.258C1234.33 152.491 1264.78 155.392 1294.25 158.202C1318.04 160.474 1342.64 162.814 1367.24 165.876C1441.18 175.081 1515.61 200.809 1587.61 225.678C1634.81 241.992 1683.62 258.864 1732 271L1731.98 271.007Z" fill="url(#paint29_linear_256_1612)"/>
<path d="M1732.77 267.725L1732.98 267.247C1689.2 255.587 1644.98 240.091 1602.19 225.1C1526.47 198.568 1448.17 171.129 1369.45 163.955C1343.13 161.553 1316.76 160.067 1291.26 158.627C1262.84 157.025 1233.45 155.37 1204.58 152.451C1157.61 147.697 1109.63 139.323 1061.98 127.556C998.459 111.812 938.07 89.6488 887.402 70.0414C860.642 59.6781 832.659 49.0432 804.229 38.4233C788.219 32.4426 773.642 26.13 758.872 19.6331C726.854 5.57039 697.295 -8.79431 666.013 -24.0022C661.893 -26.0118 657.752 -28.014 653.599 -30.0412L645.386 -34.0212C592.225 -59.8415 531.953 -89.1115 463.656 -113.274C456.544 -115.786 449.378 -118.229 442.363 -120.541C415.387 -129.41 387.228 -137.04 360.939 -142.6C316.384 -152.026 281.418 -155.125 250.914 -152.352C242.786 -151.604 234.831 -150.381 227.265 -148.733C205.237 -143.94 183.436 -137.872 162.368 -132C153.443 -129.508 144.221 -126.939 135.128 -124.514C98.1283 -114.664 57.8782 -104.882 14.314 -100.048C12.5288 -99.8522 10.7085 -99.6635 8.89083 -99.4857C-27.2203 -96.0057 -66.2197 -95.889 -103.891 -99.1639C-145.229 -102.756 -183.658 -110.438 -215.056 -121.363L-215.356 -120.913C-183.858 -109.945 -145.324 -102.243 -103.877 -98.6414C-66.1324 -95.3636 -27.045 -95.4631 9.12716 -98.9652C10.9448 -99.143 12.7652 -99.3317 14.5679 -99.5237C58.1876 -104.358 98.4784 -114.156 135.536 -124.016C144.629 -126.441 153.854 -129.022 162.794 -131.499C183.861 -137.371 205.642 -143.432 227.651 -148.217C235.175 -149.851 243.089 -151.059 251.166 -151.817C281.538 -154.582 316.375 -151.485 360.81 -142.094C387.063 -136.541 415.17 -128.921 442.096 -120.074C449.111 -117.761 456.26 -115.322 463.356 -112.824C531.586 -88.6857 591.826 -59.4333 644.951 -33.6199L653.162 -29.6291C657.317 -27.6126 661.455 -25.5997 665.578 -23.6008C696.878 -8.38952 726.437 5.97517 758.47 20.0521C773.258 26.5524 787.852 32.8684 803.894 38.8667C832.324 49.4866 860.289 60.118 887.05 70.4813C937.77 90.099 998.192 112.28 1061.79 128.038C1109.5 139.829 1157.55 148.217 1204.58 152.97C1233.48 155.896 1262.89 157.554 1291.31 159.157C1316.79 160.593 1343.14 162.075 1369.44 164.474C1448.01 171.639 1526.22 199.039 1601.86 225.543C1644.66 240.537 1688.91 256.052 1732.75 267.721L1732.77 267.725Z" fill="url(#paint30_linear_256_1612)"/>
<path d="M1072.67 140.727C1116.69 149.281 1161 154.976 1204.61 157.698C1232.96 159.423 1261.68 159.963 1289.42 160.473C1316.27 160.966 1344.04 161.494 1371.68 163.079C1454.5 167.974 1535.99 197.016 1614.78 225.094C1653.63 238.937 1693.78 253.246 1733.54 264.463L1733.77 263.989C1694.06 252.793 1653.91 238.483 1615.1 224.648C1536.2 196.527 1454.63 167.457 1371.63 162.56C1343.96 160.969 1316.18 160.452 1289.32 159.955C1261.57 159.435 1232.89 158.901 1204.55 157.179C1156.24 154.175 1107.05 147.498 1058.34 137.323C1001.09 125.34 942.698 107.948 879.831 84.1401C850.813 73.1461 823.129 61.993 797.53 50.9854C783.192 44.821 768.512 37.9008 751.351 29.1994C718.956 12.7811 687.822 -4.88389 657.722 -21.9749C653.305 -24.4829 648.87 -26.9943 644.42 -29.5199C593.814 -58.0415 530.814 -93.5473 457.183 -120.385C450.208 -122.927 443.123 -125.399 436.113 -127.733C409.571 -136.563 381.448 -143.903 354.81 -148.966C311.692 -157.152 275.454 -159.244 244.072 -155.343C235.967 -154.33 228.121 -152.883 220.743 -151.028C198.892 -145.557 177.334 -139.069 156.492 -132.78C147.934 -130.206 139.091 -127.529 130.371 -124.975C94.1661 -114.406 54.7321 -103.843 11.552 -98.2002C9.7761 -97.9691 8.00307 -97.7486 6.19469 -97.5351C-54.474 -90.4205 -144.689 -91.9394 -215.975 -117.553L-216.292 -117.106C-144.803 -91.4193 -54.3543 -89.8774 6.46888 -97.0185C8.27714 -97.2321 10.0679 -97.4491 11.8262 -97.6837C55.0849 -103.345 94.5744 -113.909 130.803 -124.495C139.522 -127.05 148.38 -129.712 156.941 -132.297C177.781 -138.575 199.323 -145.078 221.152 -150.531C228.489 -152.371 236.297 -153.814 244.361 -154.812C275.626 -158.691 311.719 -156.604 354.714 -148.442C381.281 -143.393 409.351 -136.063 435.843 -127.254C442.835 -124.924 449.905 -122.466 456.88 -119.924C530.426 -93.1141 593.379 -57.6401 643.952 -29.1362C648.388 -26.6248 652.823 -24.1133 657.237 -21.5946C687.355 -4.50013 718.504 13.179 750.916 29.6008C768.094 38.3056 782.79 45.24 797.16 51.422C822.777 62.433 850.478 73.5895 879.511 84.5977C942.446 108.43 1000.91 125.847 1058.21 137.84C1063.03 138.844 1067.86 139.816 1072.68 140.752L1072.67 140.727Z" fill="url(#paint31_linear_256_1612)"/>
<path d="M1033.73 143.783C1090.6 154.834 1147.82 161.083 1204.6 162.409C1232.59 163.056 1260.76 162.521 1288.03 162.011C1316.1 161.476 1345.11 160.933 1373.92 161.673C1460.68 163.922 1544.99 194.62 1626.54 224.317C1661.8 237.157 1698.28 250.438 1734.36 261.188L1734.61 260.716C1698.56 249.984 1662.12 236.71 1626.87 223.873C1545.24 194.149 1460.83 163.408 1373.85 161.162C1345 160.415 1315.99 160.969 1287.9 161.5C1260.67 162.017 1232.49 162.553 1204.53 161.898C1123.89 160.015 1042.37 148.195 962.167 126.759C881.986 105.327 808.529 75.7094 743.817 38.741C711.63 20.3519 680.846 0.449909 651.089 -18.7778C584.922 -61.5427 516.488 -105.765 429.828 -134.931C394.079 -146.962 356.457 -155.346 321.044 -159.153C279.543 -163.624 243.6 -161.671 214.206 -153.338C192.453 -147.17 171.073 -140.217 150.413 -133.486C106.14 -119.084 60.3731 -104.182 8.73906 -96.3736C-84.9881 -82.1917 -171.414 -96.8833 -216.945 -113.764L-217.279 -113.32C-186.05 -101.738 -147.038 -94.1694 -104.483 -91.4371C-66.2874 -88.9868 -25.9757 -90.5546 9.03088 -95.8537C60.7437 -103.68 106.548 -118.587 150.862 -133.003C171.519 -139.724 192.882 -146.679 214.614 -152.84C243.872 -161.143 279.665 -163.092 321.003 -158.63C356.325 -154.829 393.859 -146.462 429.505 -134.463C516.03 -105.346 584.399 -61.1584 650.519 -18.4253C680.29 0.816601 711.075 20.7186 743.294 39.1253C808.086 76.1431 881.643 105.802 961.926 127.266C985.756 133.637 1009.71 139.161 1033.72 143.826L1033.73 143.783Z" fill="url(#paint32_linear_256_1612)"/>
</g>
<defs>
<linearGradient id="paint0_linear_256_1612" x1="1775.58" y1="100.098" x2="-148.608" y2="-391.406" gradientUnits="userSpaceOnUse">
<stop stop-color="#0497DC"/>
<stop offset="1" stop-color="#465CE0"/>
</linearGradient>
<linearGradient id="paint1_linear_256_1612" x1="1773.28" y1="109.255" x2="-150.808" y2="-382.223" gradientUnits="userSpaceOnUse">
<stop stop-color="#0497DC"/>
<stop offset="1" stop-color="#465CE0"/>
</linearGradient>
<linearGradient id="paint2_linear_256_1612" x1="1771.02" y1="118.228" x2="-152.941" y2="-373.218" gradientUnits="userSpaceOnUse">
<stop stop-color="#0497DC"/>
<stop offset="1" stop-color="#465CE0"/>
</linearGradient>
<linearGradient id="paint3_linear_256_1612" x1="1768.82" y1="127.019" x2="-155.046" y2="-364.401" gradientUnits="userSpaceOnUse">
<stop stop-color="#0497DC"/>
<stop offset="1" stop-color="#465CE0"/>
</linearGradient>
<linearGradient id="paint4_linear_256_1612" x1="1767.48" y1="132.386" x2="-156.276" y2="-359.008" gradientUnits="userSpaceOnUse">
<stop stop-color="#0497DC"/>
<stop offset="1" stop-color="#465CE0"/>
</linearGradient>
<linearGradient id="paint5_linear_256_1612" x1="1766.59" y1="136.011" x2="-157.042" y2="-355.352" gradientUnits="userSpaceOnUse">
<stop stop-color="#0497DC"/>
<stop offset="1" stop-color="#465CE0"/>
</linearGradient>
<linearGradient id="paint6_linear_256_1612" x1="1765.82" y1="139.26" x2="-157.731" y2="-352.08" gradientUnits="userSpaceOnUse">
<stop stop-color="#0497DC"/>
<stop offset="1" stop-color="#465CE0"/>
</linearGradient>
<linearGradient id="paint7_linear_256_1612" x1="1765.06" y1="142.436" x2="-158.401" y2="-348.882" gradientUnits="userSpaceOnUse">
<stop stop-color="#0497DC"/>
<stop offset="1" stop-color="#465CE0"/>
</linearGradient>
<linearGradient id="paint8_linear_256_1612" x1="1764.31" y1="145.59" x2="-159.063" y2="-345.706" gradientUnits="userSpaceOnUse">
<stop stop-color="#0497DC"/>
<stop offset="1" stop-color="#465CE0"/>
</linearGradient>
<linearGradient id="paint9_linear_256_1612" x1="1763.57" y1="148.722" x2="-159.702" y2="-342.547" gradientUnits="userSpaceOnUse">
<stop stop-color="#0497DC"/>
<stop offset="1" stop-color="#465CE0"/>
</linearGradient>
<linearGradient id="paint10_linear_256_1612" x1="1762.82" y1="151.875" x2="-160.368" y2="-339.372" gradientUnits="userSpaceOnUse">
<stop stop-color="#0497DC"/>
<stop offset="1" stop-color="#465CE0"/>
</linearGradient>
<linearGradient id="paint11_linear_256_1612" x1="1762.07" y1="155.007" x2="-161.025" y2="-336.218" gradientUnits="userSpaceOnUse">
<stop stop-color="#0497DC"/>
<stop offset="1" stop-color="#465CE0"/>
</linearGradient>
<linearGradient id="paint12_linear_256_1612" x1="1761.34" y1="158.117" x2="-161.676" y2="-333.086" gradientUnits="userSpaceOnUse">
<stop stop-color="#0497DC"/>
<stop offset="1" stop-color="#465CE0"/>
</linearGradient>
<linearGradient id="paint13_linear_256_1612" x1="1760.58" y1="161.213" x2="-162.314" y2="-329.959" gradientUnits="userSpaceOnUse">
<stop stop-color="#0497DC"/>
<stop offset="1" stop-color="#465CE0"/>
</linearGradient>
<linearGradient id="paint14_linear_256_1612" x1="1759.83" y1="164.357" x2="-162.97" y2="-326.793" gradientUnits="userSpaceOnUse">
<stop stop-color="#0497DC"/>
<stop offset="1" stop-color="#465CE0"/>
</linearGradient>
<linearGradient id="paint15_linear_256_1612" x1="1759.08" y1="167.521" x2="-163.638" y2="-323.606" gradientUnits="userSpaceOnUse">
<stop stop-color="#0497DC"/>
<stop offset="1" stop-color="#465CE0"/>
</linearGradient>
<linearGradient id="paint16_linear_256_1612" x1="1758.33" y1="170.653" x2="-164.296" y2="-320.453" gradientUnits="userSpaceOnUse">
<stop stop-color="#0497DC"/>
<stop offset="1" stop-color="#465CE0"/>
</linearGradient>
<linearGradient id="paint17_linear_256_1612" x1="1756.92" y1="175.96" x2="-165.657" y2="-315.132" gradientUnits="userSpaceOnUse">
<stop stop-color="#0497DC"/>
<stop offset="1" stop-color="#465CE0"/>
</linearGradient>
<linearGradient id="paint18_linear_256_1612" x1="1755.51" y1="181.29" x2="-167.019" y2="-309.789" gradientUnits="userSpaceOnUse">
<stop stop-color="#0497DC"/>
<stop offset="1" stop-color="#465CE0"/>
</linearGradient>
<linearGradient id="paint19_linear_256_1612" x1="1754.09" y1="186.618" x2="-168.385" y2="-304.448" gradientUnits="userSpaceOnUse">
<stop stop-color="#0497DC"/>
<stop offset="1" stop-color="#465CE0"/>
</linearGradient>
<linearGradient id="paint20_linear_256_1612" x1="1752.66" y1="192.001" x2="-169.781" y2="-299.055" gradientUnits="userSpaceOnUse">
<stop stop-color="#0497DC"/>
<stop offset="1" stop-color="#465CE0"/>
</linearGradient>
<linearGradient id="paint21_linear_256_1612" x1="1751.23" y1="197.406" x2="-171.163" y2="-293.638" gradientUnits="userSpaceOnUse">
<stop stop-color="#0497DC"/>
<stop offset="1" stop-color="#465CE0"/>
</linearGradient>
<linearGradient id="paint22_linear_256_1612" x1="1749.78" y1="202.853" x2="-172.559" y2="-288.177" gradientUnits="userSpaceOnUse">
<stop stop-color="#0497DC"/>
<stop offset="1" stop-color="#465CE0"/>
</linearGradient>
<linearGradient id="paint23_linear_256_1612" x1="1748.33" y1="208.3" x2="-173.972" y2="-282.721" gradientUnits="userSpaceOnUse">
<stop stop-color="#0497DC"/>
<stop offset="1" stop-color="#465CE0"/>
</linearGradient>
<linearGradient id="paint24_linear_256_1612" x1="1746.88" y1="213.758" x2="-175.37" y2="-277.251" gradientUnits="userSpaceOnUse">
<stop stop-color="#0497DC"/>
<stop offset="1" stop-color="#465CE0"/>
</linearGradient>
<linearGradient id="paint25_linear_256_1612" x1="1746.22" y1="216.117" x2="-175.974" y2="-274.878" gradientUnits="userSpaceOnUse">
<stop stop-color="#0497DC"/>
<stop offset="1" stop-color="#465CE0"/>
</linearGradient>
<linearGradient id="paint26_linear_256_1612" x1="1746.94" y1="213.16" x2="-175.24" y2="-277.83" gradientUnits="userSpaceOnUse">
<stop stop-color="#0497DC"/>
<stop offset="1" stop-color="#465CE0"/>
</linearGradient>
<linearGradient id="paint27_linear_256_1612" x1="1747.71" y1="210.021" x2="-174.439" y2="-280.96" gradientUnits="userSpaceOnUse">
<stop stop-color="#0497DC"/>
<stop offset="1" stop-color="#465CE0"/>
</linearGradient>
<linearGradient id="paint28_linear_256_1612" x1="1748.53" y1="206.666" x2="-173.585" y2="-284.307" gradientUnits="userSpaceOnUse">
<stop stop-color="#0497DC"/>
<stop offset="1" stop-color="#465CE0"/>
</linearGradient>
<linearGradient id="paint29_linear_256_1612" x1="1749.41" y1="203.064" x2="-172.684" y2="-287.904" gradientUnits="userSpaceOnUse">
<stop stop-color="#0497DC"/>
<stop offset="1" stop-color="#465CE0"/>
</linearGradient>
<linearGradient id="paint30_linear_256_1612" x1="1750.36" y1="199.214" x2="-171.701" y2="-291.745" gradientUnits="userSpaceOnUse">
<stop stop-color="#0497DC"/>
<stop offset="1" stop-color="#465CE0"/>
</linearGradient>
<linearGradient id="paint31_linear_256_1612" x1="1750.79" y1="197.388" x2="-171.238" y2="-293.562" gradientUnits="userSpaceOnUse">
<stop stop-color="#0497DC"/>
<stop offset="1" stop-color="#465CE0"/>
</linearGradient>
<linearGradient id="paint32_linear_256_1612" x1="1750.13" y1="199.893" x2="-171.88" y2="-291.053" gradientUnits="userSpaceOnUse">
<stop stop-color="#0497DC"/>
<stop offset="1" stop-color="#465CE0"/>
</linearGradient>
<clipPath id="clip0_256_1612">
<rect width="1990.09" height="305.332" fill="white" transform="matrix(-0.98164 -0.190741 -0.247488 0.968891 1796.12 22.7363)"/>
</clipPath>
</defs>
</svg>
