<svg fill="none" height="942" viewBox="0 0 1400 942" width="1400" xmlns="http://www.w3.org/2000/svg" xmlns:xlink="http://www.w3.org/1999/xlink"><linearGradient id="a"><stop offset="0" stop-color="#0497dc"/><stop offset="1" stop-color="#465ce0"/></linearGradient><linearGradient id="b" gradientUnits="userSpaceOnUse" x1="-1487.02" x2="1351.34" xlink:href="#a" y1="322.349" y2="1262.86"/><linearGradient id="c" gradientUnits="userSpaceOnUse" x1="-1482.6" x2="1355.61" xlink:href="#a" y1="308.837" y2="1249.29"/><linearGradient id="d" gradientUnits="userSpaceOnUse" x1="-1478.27" x2="1359.76" xlink:href="#a" y1="295.597" y2="1235.99"/><linearGradient id="e" gradientUnits="userSpaceOnUse" x1="-1474.03" x2="1363.85" xlink:href="#a" y1="282.625" y2="1222.97"/><linearGradient id="f" gradientUnits="userSpaceOnUse" x1="-1471.46" x2="1366.27" xlink:href="#a" y1="274.704" y2="1215"/><linearGradient id="g" gradientUnits="userSpaceOnUse" x1="-1469.75" x2="1367.8" xlink:href="#a" y1="269.354" y2="1209.59"/><linearGradient id="h" gradientUnits="userSpaceOnUse" x1="-1468.24" x2="1369.18" xlink:href="#a" y1="264.555" y2="1204.75"/><linearGradient id="i" gradientUnits="userSpaceOnUse" x1="-1466.77" x2="1370.52" xlink:href="#a" y1="259.865" y2="1200.02"/><linearGradient id="j" gradientUnits="userSpaceOnUse" x1="-1465.31" x2="1371.85" xlink:href="#a" y1="255.208" y2="1195.32"/><linearGradient id="k" gradientUnits="userSpaceOnUse" x1="-1463.87" x2="1373.14" xlink:href="#a" y1="250.58" y2="1190.64"/><linearGradient id="l" gradientUnits="userSpaceOnUse" x1="-1462.41" x2="1374.47" xlink:href="#a" y1="245.925" y2="1185.94"/><linearGradient id="m" gradientUnits="userSpaceOnUse" x1="-1460.96" x2="1375.79" xlink:href="#a" y1="241.298" y2="1181.27"/><linearGradient id="n" gradientUnits="userSpaceOnUse" x1="-1459.53" x2="1377.1" xlink:href="#a" y1="236.704" y2="1176.63"/><linearGradient id="o" gradientUnits="userSpaceOnUse" x1="-1458.06" x2="1378.39" xlink:href="#a" y1="232.134" y2="1172.01"/><linearGradient id="p" gradientUnits="userSpaceOnUse" x1="-1456.61" x2="1379.71" xlink:href="#a" y1="227.49" y2="1167.32"/><linearGradient id="q" gradientUnits="userSpaceOnUse" x1="-1455.15" x2="1381.04" xlink:href="#a" y1="222.819" y2="1162.6"/><linearGradient id="r" gradientUnits="userSpaceOnUse" x1="-1453.7" x2="1382.36" xlink:href="#a" y1="218.193" y2="1157.94"/><linearGradient id="s" gradientUnits="userSpaceOnUse" x1="-1451.02" x2="1384.97" xlink:href="#a" y1="210.369" y2="1150.09"/><linearGradient id="t" gradientUnits="userSpaceOnUse" x1="-1448.34" x2="1387.57" xlink:href="#a" y1="202.513" y2="1142.21"/><linearGradient id="u" gradientUnits="userSpaceOnUse" x1="-1445.65" x2="1390.19" xlink:href="#a" y1="194.659" y2="1134.33"/><linearGradient id="v" gradientUnits="userSpaceOnUse" x1="-1442.93" x2="1392.85" xlink:href="#a" y1="186.725" y2="1126.38"/><linearGradient id="w" gradientUnits="userSpaceOnUse" x1="-1440.21" x2="1395.5" xlink:href="#a" y1="178.757" y2="1118.38"/><linearGradient id="x" gradientUnits="userSpaceOnUse" x1="-1437.46" x2="1398.17" xlink:href="#a" y1="170.73" y2="1110.33"/><linearGradient id="y" gradientUnits="userSpaceOnUse" x1="-1434.72" x2="1400.86" xlink:href="#a" y1="162.699" y2="1102.28"/><linearGradient id="z" gradientUnits="userSpaceOnUse" x1="-1431.96" x2="1403.54" xlink:href="#a" y1="154.654" y2="1094.21"/><linearGradient id="A" gradientUnits="userSpaceOnUse" x1="-1430.73" x2="1404.69" xlink:href="#a" y1="151.18" y2="1090.71"/><linearGradient id="B" gradientUnits="userSpaceOnUse" x1="-1432.12" x2="1403.28" xlink:href="#a" y1="155.546" y2="1095.07"/><linearGradient id="C" gradientUnits="userSpaceOnUse" x1="-1433.6" x2="1401.75" xlink:href="#a" y1="160.18" y2="1099.69"/><linearGradient id="D" gradientUnits="userSpaceOnUse" x1="-1435.18" x2="1400.12" xlink:href="#a" y1="165.133" y2="1104.62"/><linearGradient id="E" gradientUnits="userSpaceOnUse" x1="-1436.89" x2="1398.38" xlink:href="#a" y1="170.45" y2="1109.93"/><linearGradient id="F" gradientUnits="userSpaceOnUse" x1="-1438.72" x2="1396.5" xlink:href="#a" y1="176.132" y2="1115.6"/><linearGradient id="G" gradientUnits="userSpaceOnUse" x1="-1439.55" x2="1395.62" xlink:href="#a" y1="178.83" y2="1118.28"/><linearGradient id="H" gradientUnits="userSpaceOnUse" x1="-1438.3" x2="1396.85" xlink:href="#a" y1="175.138" y2="1114.58"/><clipPath id="I"><path d="m0 0h2996.33v459.715h-2996.33z" transform="matrix(.965926 .258819 .314537 -.949245 -1526 436.383)"/></clipPath><g clip-path="url(#I)" opacity=".12"><path d="m-1464.38 254.368-.35.703 9.02 3.004c173.55 57.741 353.01 117.428 491.322 207.391 11.181 7.266 22.45 14.781 33.35 22.041 43.599 29.04 88.686 59.067 140.198 82.205 89.919 40.363 193.174 57.173 282.312 68.298 58.192 7.259 117.291 12.981 174.445 18.493 78.259 7.57 159.188 15.39 238.9052 27.293 163.9961 24.51 293.7598 62.946 396.7018 117.516 30.452 16.147 59.433 34.251 87.451 51.751 36.571 22.853 74.391 46.472 115.853 65.949 140.026 65.77 307.23 79.573 452.969 87.348 10.429.55 20.91 1.11 31.37 1.65 142.323 7.38 289.473 14.99 425.983 61.68l.37-.69c-136.78-46.78-284.08-54.41-426.517-61.78-10.487-.55-20.947-1.08-31.371-1.65-145.572-7.762-312.557-21.542-452.239-87.15-41.363-19.434-79.158-43.046-115.687-65.852-28.038-17.523-57.066-35.657-87.57-51.818-103.16-54.681-233.1329-93.172-397.3428-117.722-79.7692-11.918-160.7242-19.744-238.9892-27.299-57.122-5.521-116.195-11.235-174.387-18.494-89.003-11.107-192.07-27.884-281.765-68.152-51.392-23.071-96.433-53.068-139.958-82.071-10.9-7.26-22.195-14.782-33.371-22.064-138.443-90.068-318.033-149.806-491.683-207.575z" fill="url(#b)"/><path d="m-1459.35 238.928-.35.702c177.97 56.832 363.42 119.939 503.167 211.204 12.248 7.985 24.548 16.242 36.457 24.222 42.713 28.63 86.889 58.24 136.517 81.669 87.445 41.324 188.249 61.678 275.318 76.139 83.008 13.788 163.505 24.794 260.096 37.743 47.033 6.345 89.59 11.645 130.074 16.182 5.907.666 11.782 1.342 17.632 2.01 19.5871 2.275 35.5871 4.245 50.3614 6.233 72.5214 9.733 135.8455 22.223 193.5476 38.151 53.571 14.7 103.562 33.265 148.569 55.144 34.383 16.699 67.287 36.062 99.124 54.793 10.47 6.159 21.273 12.512 32.04 18.716 20.483 11.816 47.771 27.15 77.051 40.926 17.791 8.38 36.652 16.356 56.053 23.732 51.027 19.378 102.085 33.699 156.106 43.783 64.598 12.07 130.786 17.202 187.778 21.062 16.367 1.118 33.856 2.191 55.053 3.375l18.297 1.031c40.749 2.274 82.919 4.635 124.539 7.975 171.93 13.75 261.04 38.24 319.43 58l.37-.7c-111.39-37.71-229.47-50.87-319.93-58.11-41.64-3.349-83.82-5.694-124.568-7.969l-18.297-1.03c-21.166-1.193-38.655-2.266-55.022-3.384-56.935-3.863-123.091-9.003-187.559-21.039-53.886-10.064-104.839-24.357-155.767-43.691-19.354-7.347-38.189-15.316-55.933-23.666-29.228-13.762-56.47-29.066-76.932-40.859-10.741-6.197-21.544-12.55-32.014-18.709-31.863-18.738-64.819-38.115-99.243-54.86-45.132-21.93-95.228-40.522-148.897-55.266-57.8071-15.956-121.1885-28.444-193.8142-38.205-14.8003-1.995-30.8263-3.972-50.4138-6.247-5.875-.675-11.746-1.367-17.632-2.01-40.483-4.537-83.014-9.831-130.048-16.175-96.591-12.949-177.057-23.964-260.039-37.745-86.933-14.442-187.555-34.747-274.801-75.984-49.534-23.369-93.637-52.942-136.304-81.542-11.909-7.98-24.235-16.245-36.478-24.245-139.868-91.332-325.438-154.489-503.538-211.356z" fill="url(#c)"/><path d="m-1454.29 223.496-.32.71c74.15 22.704 171.3 53.56 265.15 90.981 96.52 38.501 175.32 78.096 240.835 121.032 13.451 8.807 26.968 17.927 40.017 26.749 41.661 28.123 84.764 57.203 132.379 80.801 84.501 41.988 178.913 65.194 268.321 83.982 92.432 19.424 173.12 34.648 253.897 47.89 48.547 8.029 91.379 13.524 130.902 16.766 2.706.224 5.438.454 8.144.678 3.144.272 6.267.521 9.385.786l7.1019.572c13.9529 1.128 28.3749 2.295 42.4159 3.585 72.5357 6.608 132.7144 15.662 189.4032 28.483 53.104 11.999 103.342 28.451 149.37 48.875 39.153 17.372 76.933 38.37 113.444 58.664 7.045 3.911 14.11 7.844 21.207 11.768 24.155 13.319 50.357 27.48 78.45 40.73 17.859 8.433 36.792 16.618 56.296 24.368 55.911 22.191 105.287 37.219 155.319 47.272 63.25 12.712 130.457 17.338 189.727 21.429 16.201 1.108 33.371 2.199 55.657 3.52l6.539.386c45.16 2.677 91.85 5.437 137.93 9.591 90.28 8.126 208.53 22.386 322.71 60.696l.37-.7c-19.22-6.45-38.59-12.22-57.9-17.4-95.52-25.59-190.06-36.593-265.26-43.379-46.11-4.16-92.83-6.927-137.983-9.604l-6.539-.387c-22.286-1.321-39.431-2.405-55.631-3.513-59.218-4.076-126.367-8.705-189.482-21.398-49.928-10.024-99.174-25.017-154.986-47.164-19.451-7.736-38.359-15.915-56.171-24.318-28.019-13.213-54.227-27.358-78.329-40.663-7.103-3.908-14.169-7.842-21.208-11.768-36.557-20.324-74.364-41.329-113.59-58.738-46.148-20.491-96.521-36.962-149.723-49.004-56.7939-12.85-117.0561-21.909-189.6752-28.521-14.0464-1.274-28.4945-2.449-42.442-3.593l-7.1018-.571c-3.123-.249-6.241-.514-9.385-.786-2.706-.224-5.412-.448-8.144-.678-39.465-3.245-82.246-8.726-130.735-16.757-80.778-13.242-161.414-28.451-253.819-47.869-89.298-18.775-183.56-41.923-267.863-83.824-47.541-23.561-90.571-52.604-132.191-80.682-13.075-8.828-26.593-17.948-40.043-26.756-65.609-43.011-144.509-82.65-241.129-121.179-93.92-37.457-191.12-68.327-265.3-91.039z" fill="url(#d)"/><path d="m-1449.26 208.04-.29.717c103.53 30.352 190.77 59.882 266.66 90.263 96.05 38.461 175.28 78.552 242.176 122.565 14.841 9.751 29.706 19.854 44.108 29.643 40.453 27.489 82.27 55.913 127.746 79.543 85.5 44.624 179.721 70.805 261.326 91.823 77.29 19.915 157.222 40.503 247.729 58.029 49.043 9.614 92.125 15.297 131.724 17.367l4.182.221c4.432.237 8.838.467 13.224.674 8.411.386 16.7231.729 24.9779 1.074 7.9471.331 15.8422.649 23.6954 1.007 72.3158 3.333 131.1893 9.305 185.2597 18.814 52.303 9.191 102.839 23.545 150.165 42.622 44.976 18.12 86.717 40.179 130.922 63.538l7.243 3.825c26.489 13.979 52.505 27.589 79.827 40.511 17.931 8.47 36.958 16.888 56.513 24.997 43.531 18.027 95.923 38.168 154.537 50.744 58.578 12.602 119.433 16.788 178.286 20.854 4.464.314 8.932.612 13.396.926 19.631 1.371 39.446 2.617 56.262 3.665 45.088 2.798 96.201 5.983 146.091 10.983 133.87 13.393 234.4 32.935 325.99 63.365l.35-.7c-91.72-30.47-192.39-50.044-326.42-63.447-49.95-4.999-101.061-8.184-146.176-10.988-16.816-1.048-36.656-2.302-56.262-3.665-4.463-.314-8.927-.629-13.395-.927-58.801-4.051-119.568-8.249-178.015-20.815-58.453-12.55-110.746-32.648-154.204-50.637-19.529-8.103-38.53-16.514-56.435-24.977-27.275-12.892-53.291-26.502-79.754-40.474l-7.217-3.818c-44.231-23.366-86.019-45.455-131.094-63.618-47.445-19.144-98.117-33.517-150.55-42.743-54.1542-9.514-113.1059-15.508-185.5051-18.846-7.8532-.358-15.7429-.691-23.6953-1.007-8.2548-.344-16.5406-.68-24.9516-1.067-4.36-.2-8.766-.429-13.198-.666l-4.182-.222c-39.516-2.065-82.489-7.736-131.453-17.329-90.424-17.521-170.33-38.101-247.594-58.009-81.5-20.991-175.591-47.136-260.924-91.664-45.372-23.602-87.173-51.988-127.58-79.446-14.402-9.789-29.267-19.893-44.102-29.659-66.983-44.073-146.313-84.224-242.483-122.736-75.94-30.41-163.23-59.954-266.85-90.328z" fill="url(#e)"/><path d="m-1444.23 192.602-.24.73c219.95 61.649 387.29 131.54 511.64 213.63 16.433 10.852 32.896 22.127 48.833 33.019 38.985 26.697 79.313 54.307 122.448 77.812 81.739 44.757 170.455 73.767 254.33 99.665 8.493 2.621 16.929 5.245 25.37 7.852 67.529 20.947 137.377 42.602 216.159 60.323 49.742 11.185 93.101 17.063 132.526 17.945l1.069.027c5.35.12 10.868.25 16.213.299 11.651.113 23.1507.083 34.2541.05 4.5425-.011 9.0591-.028 13.5443-.036 52.6745-.063 115.3695.969 181.1156 9.146 51.472 6.392 102.254 18.633 150.934 36.362 47.747 17.376 92.399 39.385 141.653 64.287l9.67 4.89c23.226 11.756 47.233 23.894 71.56 35.409 17.874 8.472 36.974 17.099 56.751 25.649 51.478 22.213 98.583 41.612 153.75 54.232 55.881 12.778 114.093 16.723 170.365 20.529 7.77.526 15.539 1.052 23.271 1.602 19.543 1.381 39.373 2.667 56.893 3.817 49.99 3.246 98.911 6.622 147.751 11.98 131.64 14.441 236.27 35.419 329.25 66.039l.34-.7c-93.11-30.66-197.86-51.671-329.67-66.138-48.86-5.364-97.815-8.731-147.83-11.984-17.494-1.144-37.35-2.436-56.867-3.81-7.732-.551-15.502-1.076-23.271-1.602-56.215-3.808-114.343-7.748-170.063-20.5-55.016-12.563-102.017-31.934-153.416-54.126-19.752-8.543-38.825-17.163-56.705-25.619-24.301-11.508-48.302-23.662-71.507-35.394l-9.671-4.891c-49.306-24.916-94.004-46.955-141.851-64.374-48.831-17.787-99.748-30.047-151.376-36.481-65.8558-8.189-128.6083-9.219-181.3402-9.155-4.5113.002-9.0277.019-13.5703.029-11.1035.034-22.6085.08-34.2275-.042-5.341-.066-10.863-.18-16.188-.292l-1.069-.027c-39.284-.879-82.512-6.723-132.145-17.895-78.704-17.7-148.494-39.357-216.003-60.281-8.441-2.608-16.903-5.238-25.37-7.853-83.776-25.853-172.414-54.842-253.981-99.519-43.062-23.468-83.343-51.048-122.301-77.738-15.932-10.908-32.396-22.183-48.829-33.035-124.479-82.196-292.029-152.158-512.179-213.879z" fill="url(#f)"/><path d="m-1438.63 177.315-.59-.161-.25.731.6.16c212.26 56.873 385.14 128.973 513.887 214.301 18.332 12.139 36.638 24.789 54.371 37.027 37.24 25.711 75.771 52.321 116.305 75.457 83.498 47.926 174.345 80.947 247.339 107.491 12.306 4.473 24.747 9.051 36.75 13.495 61.333 22.606 124.756 46.014 198.581 64.827 50.04 12.769 93.653 18.819 133.353 18.53 5.231-.034 11.291-.087 17.159-.243 13.623-.361 26.8667-1.031 39.6512-1.685l7.3025-.378c64.72066-3.283 119.5789-4.628 176.9453-.529 49.858 3.557 102.32 13.984 151.724 30.126 50.28 16.411 99.467 39.117 145.14 61.21 10.343 5.001 20.863 10.154 31.045 15.13 16.821 8.224 34.205 16.72 51.584 24.973 17.822 8.458 36.473 17.069 56.994 26.284l7.532 3.384c47.407 21.313 92.195 41.457 145.436 54.322 54.18 13.117 110.761 16.85 165.484 20.449 9.887.643 20.127 1.33 30.107 2.033 16.404 1.18 33.054 2.304 49.15 3.384l8.353.561c47.643 3.223 98.427 6.89 149.377 12.97 131.03 15.608 236.7 37.456 332.53 68.716l.35-.7c-95.93-31.306-201.74-53.174-332.9-68.8-51-6.094-101.795-9.745-149.485-12.998l-8.353-.561c-16.091-1.096-32.74-2.22-49.144-3.4-10.001-.726-20.221-1.39-30.133-2.04-54.641-3.594-111.138-7.322-165.13-20.406-53.049-12.848-97.774-32.924-145.103-54.215l-7.532-3.384c-20.515-9.232-39.146-17.82-56.942-26.27-17.353-8.246-34.737-16.742-51.558-24.967-10.181-4.975-20.701-10.128-31.044-15.13-45.721-22.122-94.986-44.849-145.396-61.295-49.56-16.184-102.184-26.637-152.203-30.22-57.4763-4.111-112.39192-2.764-177.17.521l-7.3285.371c-12.7846.654-26.0025 1.331-39.6255 1.691-5.836.148-11.897.201-17.133.25-39.501.291-82.974-5.756-132.831-18.476-73.768-18.815-137.092-42.179-198.373-64.772-12.008-4.427-24.449-9.006-36.749-13.494-72.916-26.523-163.686-59.523-247.043-107.36-40.482-23.122-78.971-49.686-116.212-75.397-17.706-12.231-36.038-24.888-54.397-37.034-128.915-85.44-302.025-157.619-514.435-214.534z" fill="url(#g)"/><path d="m-1407.33 168.742c-9.17-2.457-18.1-4.798-26.84-7.018l-.24.73c143.42 36.614 349.54 103.686 517.335 215.277 20.602 13.681 41.088 27.97 60.934 41.794 35.147 24.493 71.492 49.826 109.169 72.335 76.963 46.244 159.2 81.021 231.76 111.701l8.584 3.631c13.637 5.763 27.383 11.711 40.655 17.463 57.462 24.871 116.888 50.58 188.476 71.007 49.64 14.148 94.77 20.587 134.149 19.123 5.086-.193 11.068-.44 17.036-.812 14.95-.939 29.2541-2.414 43.084-3.825l3.0258-.313c60.171-6.163 114.6905-11.194 172.8015-10.198 48.9377.855 101.6667 9.106 152.5197 23.873 54.87 15.913 108.242 39.429 148.627 58.133 19.38 8.979 39.02 18.374 58.018 27.475 8.646 4.132 17.312 8.287 25.983 12.426 20.27 9.632 40.28 19.022 57.206 26.929 6.636 3.092 13.208 6.201 19.76 9.288 42.931 20.269 83.513 39.406 132.447 51.913 53.068 13.563 108.611 17.087 162.318 20.499 11.561.729 23.533 1.5 35.197 2.343 13.16.95 26.3 1.878 39.414 2.798 6.241.428 12.478.871 18.714 1.315 56.303 3.97 103.527 7.858 151.007 13.975 128.41 16.496 238.26 39.862 335.78 71.386l.35-.7c-97.65-31.577-207.61-54.955-336.16-71.47-47.53-6.116-94.781-10.011-151.11-13.988-6.237-.443-12.478-.871-18.714-1.314-13.114-.921-26.259-1.832-39.415-2.798-11.664-.844-23.636-1.614-35.222-2.35-53.624-3.407-109.078-6.942-161.963-20.456-48.868-12.454-89.262-31.559-132.093-51.784-6.552-3.087-13.125-6.196-19.76-9.288-16.927-7.907-36.968-17.288-57.206-26.929-8.703-4.13-17.343-8.278-25.988-12.41-18.999-9.101-38.665-18.503-58.045-27.482-40.457-18.741-93.934-42.285-148.909-58.226-51.009-14.809-103.925-23.092-153.0351-23.941-58.2204-1.009-112.7973 4.024-172.9996 10.196l-3.0257.313c-13.8298 1.411-28.1036 2.877-43.0266 3.823-5.942.379-11.95.619-17.004.803-39.182 1.465-84.176-4.955-133.55-19.049-71.489-20.383-130.837-46.07-188.253-70.912-13.272-5.752-27.017-11.7-40.68-17.47l-8.584-3.631c-72.513-30.65-154.678-65.391-231.542-111.591-37.625-22.495-73.948-47.805-109.075-72.275-19.846-13.824-40.331-28.113-60.954-41.816-157.796-104.953-349.426-170.546-491.046-208.492z" fill="url(#h)"/><path d="m-1382.19 158.276c-15.55-4.168-31.19-8.169-46.95-11.992l-.19.744c95.39 23.189 187.12 52.593 272.62 87.379 92.9 37.79 176.195 81.098 247.537 128.723 23.33 15.552 46.47 31.849 68.855 47.598 32.57 22.938 66.27 46.663 100.675 68.174 69.518 43.713 142.652 79.164 207.179 110.457 8.822 4.283 17.55 8.506 26.149 12.695 13.946 6.797 27.929 13.828 41.474 20.639 54.55 27.41 110.949 55.748 181.484 77.984 49.906 15.741 95.311 22.375 134.95 19.701 6.729-.444 12.097-.89 16.938-1.374 15.823-1.604 30.756-3.947 45.1773-6.203l6.4646-1.017c54.65-8.593 106.2788-16.715 162.2502-18.851 48.0379-1.823 101.0339 4.251 153.3149 17.62 44.99 11.484 93.295 28.975 152.141 55.064 28.298 12.544 56.542 25.938 85.405 39.689 17.025 8.123 37.185 17.743 57.449 27.564 9.416 4.546 18.764 9.212 27.794 13.723 39.839 19.838 77.428 38.589 123.6 50.961l.208.056c52.243 13.998 107.077 17.349 160.075 20.589 12.901.794 26.223 1.598 39.212 2.554 10.579.778 21.164 1.539 31.749 2.301 9.005.649 18.01 1.299 26.989 1.941 48.721 3.563 100.92 7.835 152.66 14.972 127.33 17.521 238.23 41.755 339.06 74.083l.35-.7c-100.94-32.358-211.97-56.611-339.41-74.16-51.79-7.136-104.02-11.414-152.768-14.984-8.973-.659-17.978-1.308-26.988-1.942-10.585-.761-21.17-1.523-31.75-2.3-12.988-.956-26.337-1.767-39.211-2.554-52.915-3.235-107.635-6.59-159.695-20.54l-.208-.056c-45.989-12.322-83.51-31.02-123.245-50.83-9.056-4.519-18.41-9.169-27.821-13.731-20.29-9.828-40.419-19.457-57.475-27.571-28.884-13.773-57.133-27.152-85.457-39.703-58.945-26.133-107.406-43.665-152.448-55.163-52.438-13.411-105.647-19.526-153.8623-17.68-56.0861 2.139-107.7463 10.271-162.4535 18.865l-6.4022.999c-14.484 2.274-29.386 4.608-45.177 6.203-4.815.491-10.152.928-16.881 1.373-39.404 2.65-84.565-3.953-134.267-19.622-70.379-22.195-126.705-50.496-181.182-77.869-13.545-6.811-27.554-13.849-41.5-20.646-8.599-4.189-17.322-8.428-26.144-12.711-64.479-31.263-137.588-66.707-207.012-110.36-34.358-21.481-68.032-45.199-100.608-68.122-22.379-15.765-45.519-32.061-68.875-47.621-71.441-47.669-154.83-91.036-247.83-128.87-71.47-29.075-147.28-54.401-225.95-75.479z" fill="url(#i)"/><path d="m-1362.37 146.246c-20.43-5.474-41.02-10.612-61.74-15.401l-.16.751c196.06 45.291 381.77 122.334 522.978 216.911 26.728 17.88 53.099 36.668 78.596 54.842 29.374 20.94 59.763 42.586 90.36 62.575 61.032 40.125 121.761 73.462 180.475 105.687 15.938 8.749 31.012 17.024 45.857 25.306 13.72 7.653 27.481 15.61 40.789 23.308 52.091 30.123 105.968 61.277 175.97 85.463 50.172 17.333 95.854 24.162 135.773 20.301 6.479-.632 11.847-1.251 16.814-1.943 15.23-2.126 29.127-5.024 44.4221-8.29 6.7476-1.442 13.4429-2.899 20.107-4.346 48.3553-10.487 94.0492-20.39 144.4063-25.188 47.1016-4.478 100.3856-.556 154.1096 11.367 46.704 10.336 97.608 27.347 155.629 51.987 25.664 10.905 52.44 23.076 86.782 39.47 20.843 9.959 39.716 19.183 57.687 28.217 11.385 5.712 22.596 11.604 33.417 17.304 37.539 19.757 72.969 38.431 117.195 50.852 51.787 14.602 106.288 17.761 158.995 20.853 13.97.822 28.413 1.666 42.424 2.706 8.249.62 16.529 1.231 24.783 1.834 11.523.841 23.041 1.697 34.554 2.569 48.82 3.693 101.317 8.182 154.287 15.961 125.92 18.456 237.88 43.565 342.32 76.758l.32-.71c-104.57-33.227-216.64-58.364-342.64-76.825-53.05-7.784-105.548-12.273-154.42-15.981-11.513-.872-23.037-1.712-34.56-2.552-8.254-.604-16.534-1.215-24.783-1.834-14.036-1.047-28.48-1.892-42.45-2.713-52.597-3.081-106.941-6.284-158.567-20.774-44.043-12.372-79.406-30.993-116.847-50.706-10.846-5.708-22.052-11.615-33.436-17.328-17.972-9.033-36.845-18.257-57.714-28.223-34.389-16.424-61.165-28.595-86.855-39.507-58.12-24.684-109.154-41.73-155.962-52.094-53.907-11.972-107.383-15.91-154.6626-11.411-50.4719 4.802-96.171 14.721-144.5838 25.21-6.664 1.447-13.3543 2.887-20.107 4.346-15.2696 3.273-29.1606 6.155-44.3066 8.286-4.967.692-10.278 1.309-16.758 1.942-39.657 3.844-85.037-2.956-134.959-20.188-69.851-24.128-123.629-55.239-175.653-85.309-13.308-7.697-27.068-15.655-40.814-23.314-14.871-8.29-29.919-16.558-45.884-25.313-58.693-32.203-119.374-65.509-180.36-105.605-30.571-19.982-60.934-41.62-90.313-62.546-25.497-18.173-51.894-36.968-78.617-54.864-126.468-84.698-288.598-155.335-461.868-201.764z" fill="url(#j)"/><path d="m-1344.47 133.579c-24.73-6.626-49.59-12.682-74.61-18.175l-.16.751c193.14 42.365 379.9 119.671 525.826 217.726 31.028 20.831 61.447 42.813 90.882 64.081 25.288 18.29 51.476 37.202 77.475 54.974 51.143 35.124 101.594 66.087 150.369 96.03 24.187 14.848 47.057 28.877 68.946 42.782 13.217 8.399 26.465 17.136 39.239 25.589 49.897 32.976 101.486 67.096 171.326 93.313 50.434 18.942 96.391 25.966 136.574 20.879 6.219-.788 11.682-1.607 16.691-2.512 15.477-2.786 29.444-6.495 43.5522-10.373 9.99-2.752 19.9698-5.559 29.6051-8.267 43.5519-12.258 84.6718-23.854 130.759-30.92 46.1807-7.093 99.7527-5.324 154.8997 5.13 48.83 9.229 100.863 25.228 159.111 48.927 27.301 11.102 56.125 23.942 88.181 39.274 20.228 9.673 39.73 19.394 57.93 28.852 12.831 6.654 25.359 13.624 37.475 20.38 35.761 19.904 69.532 38.703 112.376 51.272 51.519 15.153 105.728 18.165 158.201 21.108 14.872.838 30.249 1.691 45.167 2.818 5.923.446 11.846.892 17.769 1.339 13.844 1.029 28.131 2.091 42.204 3.199 46.65 3.649 101.662 8.517 155.912 16.968 122.38 19.014 238.67 45.745 345.61 79.431l.32-.71c-107.04-33.729-223.41-60.466-345.9-79.491-54.33-8.456-109.373-13.332-156.081-16.978-14.073-1.108-28.359-2.17-42.203-3.2-5.923-.446-11.846-.892-17.77-1.338-14.943-1.134-30.321-1.987-45.198-2.81-52.363-2.931-106.489-5.937-157.748-21.02-42.635-12.513-76.338-31.261-112-51.12-12.122-6.74-24.644-13.726-37.501-20.387-18.226-9.465-37.729-19.186-57.983-28.866-32.076-15.355-60.952-28.21-88.279-39.318-58.373-23.75-110.537-39.784-159.502-49.032-55.335-10.487-109.105-12.257-155.4945-5.133-46.1811 7.093-87.3271 18.681-130.9156 30.964-9.6354 2.708-19.615 5.515-29.6051 8.267-14.1028 3.862-28.0128 7.569-43.4578 10.346-4.978.897-10.415 1.722-16.602 2.502-39.886 5.045-85.52-1.927-135.673-20.776-69.657-26.168-121.158-60.213-170.982-93.152-12.8-8.46-26.016-17.205-39.26-25.612-21.915-13.912-44.785-27.94-68.972-42.789-48.78-29.927-99.205-60.883-150.327-95.984-26.004-17.756-52.166-36.661-77.454-54.951-29.436-21.268-59.876-43.273-90.924-64.127-127.198-85.465-285.428-155.229-451.848-199.821z" fill="url(#k)"/><path d="m-1328.73 120.249c-28.3-7.582-56.78-14.365-85.31-20.2828l-.14.7588c190.53 39.555 378.26 117.174 528.651 218.534 36.691 24.717 72.365 50.959 106.853 76.331 19.958 14.683 40.597 29.878 60.931 44.368 39.033 28.007 77.498 54.046 114.683 79.241 34.686 23.489 67.452 45.667 97.642 67.397 12.579 9.041 25.115 18.469 37.24 27.596 47.808 35.942 97.224 73.111 167.146 101.476 49.992 20.276 97.487 27.712 137.371 21.473 6.074-.948 11.485-1.954 16.568-3.081 15.645-3.467 29.677-8.057 42.713-12.465 12.1997-4.114 24.2803-8.38 35.9692-12.492 39.8178-14.002 77.45337-27.24 120.2557-36.379 45.302-9.662 99.1351-10.054 155.6951-1.123 50.038 7.893 104.733 23.309 162.625 45.857 28.896 11.253 58.195 24.031 89.584 39.063 20.17 9.675 39.725 19.582 58.147 29.481 13.971 7.495 27.456 15.43 40.492 23.09 34.336 20.178 66.746 39.236 108.577 52.035 51.278 15.711 105.446 18.59 157.825 21.387 15.638.836 31.835 1.701 47.498 2.89l12.232.926c15.856 1.206 32.239 2.449 48.35 3.741 46.833 3.783 102.172 8.861 157.572 17.964 120.19 19.707 237.57 47.336 348.86 82.101l.32-.709c-111.39-34.809-228.87-62.45-349.15-82.178-55.45-9.102-110.845-14.193-157.709-17.968-16.111-1.291-32.494-2.535-48.35-3.74l-12.233-.927c-15.689-1.196-31.885-2.06-47.554-2.888-52.27-2.785-106.334-5.636-157.346-21.293-41.602-12.72-73.938-31.741-108.181-51.86-13.057-7.682-26.568-15.625-40.565-23.127-18.449-9.905-38.024-19.835-58.22-29.517-31.41-15.055-60.756-27.863-89.704-39.129-58.022-22.584-112.868-38.058-163.016-45.962-56.773-8.972-110.8307-8.588-156.3207 1.128-42.89623 9.166-80.5318 22.404-120.4122 36.423-11.689 4.112-23.7642 8.363-35.9381 12.483-13.004 4.399-27.005 8.981-42.583 12.414-5.051 1.118-10.431 2.115-16.478 3.07-39.555 6.189-86.701-1.188-136.391-21.349-69.698-28.27-119.046-65.386-166.761-101.269-12.125-9.127-24.687-18.561-37.266-27.603-30.217-21.737-62.977-43.931-97.689-67.426-37.19-25.179-75.629-51.211-114.662-79.218-20.329-14.507-40.973-29.685-60.931-44.369-34.514-25.378-70.183-51.637-106.9-76.36-128.03-86.31-283.14-155.431-444.01-198.536z" fill="url(#l)"/><path d="m-1314.65 106.422c-31.37-8.4055-62.85-15.7165-94.34-21.8887l-.11.7653c188.12 36.9034 376.87 114.7944 531.472 219.3594 44.483 30.054 87.144 62.18 128.4 93.238 12.739 9.585 25.905 19.51 38.806 29.121 23.391 17.506 46.612 34.585 69.058 51.093 49.179 36.172 95.646 70.337 136.281 103.355 11.827 9.6 23.595 19.634 34.967 29.32 45.77 39.01 93.091 79.334 163.195 109.892 50.274 21.908 98.044 29.538 138.171 22.051 5.954-1.102 11.319-2.309 16.47-3.643 15.695-4.128 29.844-9.673 41.843-14.549 13.6335-5.527 27.0848-11.276 40.0713-16.821 36.8814-15.757 71.71075-30.628 111.9789-41.709 44.4176-12.216 98.5388-14.761 156.4848-7.36 51.748 6.588 107.629 20.99 166.113 42.781 29.773 11.09 60.364 24.162 90.956 38.86 20.264 9.734 39.891 19.852 58.386 30.132 14.834 8.228 29.051 17.034 42.769 25.55 33.13 20.565 64.428 39.981 105.517 53.048 51.167 16.304 105.325 19.042 157.699 21.682 16.322.829 33.232 1.678 49.552 2.939l5.783.443c18.15 1.388 36.932 2.842 55.431 4.376 47.077 3.901 102.816 9.224 159.196 18.954 117.43 20.262 235.9 48.774 352.14 84.795l.32-.71c-116.29-36.035-234.86-64.574-352.38-84.841-56.46-9.752-112.228-15.066-159.357-18.981-18.5-1.534-37.255-2.98-55.431-4.376l-5.783-.442c-16.377-1.26-33.257-2.117-49.609-2.937-52.26-2.645-106.277-5.38-157.215-21.604-40.829-12.998-72.059-32.361-105.095-52.866-13.743-8.523-27.956-17.345-42.837-25.603-18.521-10.287-38.194-20.434-58.485-30.176-30.644-14.712-61.308-27.821-91.133-38.924-58.603-21.858-114.646-36.287-166.555-42.9-58.192-7.432-112.5162-4.872-157.1217 7.397-40.362177 11.107-75.228 26.003-112.1408 41.769-12.9866 5.545-26.4325 11.278-40.0655 16.805-11.994 4.86-26.081 10.387-41.713 14.497-5.094 1.332-10.453 2.524-16.35 3.624-27.729 5.173-74.041 5.558-137.082-21.915-69.879-30.463-117.112-70.711-162.82-109.653-11.393-9.709-23.166-19.727-34.987-29.343-40.682-33.047-87.144-67.229-136.323-103.4-22.446-16.509-45.667-33.588-69.058-51.093-12.901-9.612-26.072-19.52-38.811-29.106-41.277-31.08-83.965-63.213-128.468-93.291-128.93-87.19-281.58-155.875-437.81-197.737z" fill="url(#m)"/><path d="m-1301.86 92.2159c-34.03-9.1181-68.12-16.8523-102.12-23.1448l-.09.7723c185.93 34.3616 375.68 112.5576 534.325 220.1746 55.85 37.872 108.39 78.713 159.165 118.2l10.896 8.469c71.86 56.08 139.749 109.073 194.921 159.609 11.079 10.143 22.068 20.729 32.687 30.974 43.717 42.125 88.885 85.693 159.274 118.385 35.15 16.437 87.816 33.696 138.969 22.644 5.745-1.243 11.236-2.659 16.346-4.212 14.141-4.319 26.611-9.761 40.999-16.624 14.555-6.94 28.7827-14.176 42.561-21.168 34.4875-17.522 67.03739-34.076 105.3448-47.031 43.554-14.746 97.9372-19.451 157.2802-13.612 53.358 5.238 110.437 18.596 169.595 39.72 30.821 11.007 61.893 24.001 92.354 38.664 20.332 9.787 40.052 20.136 58.629 30.768 15.552 8.887 30.289 18.523 44.51 27.832 30.706 20.087 62.485 40.877 102.964 54.248 51.112 16.894 105.344 19.496 157.818 22.007 16.952.808 34.489 1.652 51.414 2.971l1.053.075c19.913 1.549 40.487 3.155 60.765 4.889 44.61 3.81 103.18 9.51 160.83 19.944 114.05 20.619 233.61 50.043 355.39 87.465l.32-.709c-121.86-37.443-241.52-66.896-355.63-87.513-57.73-10.454-116.381-16.159-161.017-19.977-20.278-1.733-40.884-3.33-60.765-4.888l-1.054-.075c-16.956-1.311-34.518-2.161-51.471-2.969-52.307-2.502-106.424-5.108-157.281-21.916-40.275-13.298-70.539-33.095-102.573-54.057-14.268-9.338-29.004-18.975-44.603-27.891-18.598-10.654-38.371-21.018-58.723-30.828-30.514-14.677-61.658-27.707-92.532-38.729-59.34-21.173-116.549-34.566-170.074-39.814-59.568-5.847-114.1854-1.118-157.9534 13.675-38.3753 12.988-70.9825 29.544-105.4806 47.098-13.7783 6.992-28.006 14.227-42.535 21.174-14.351 6.839-26.79 12.272-40.837 16.564-5.053 1.551-10.512 2.958-16.226 4.193-50.693 10.949-102.916-6.19-137.801-22.487-70.139-32.591-115.255-76.058-158.883-118.107-10.646-10.253-21.63-20.854-32.709-30.998-55.218-50.566-123.134-103.566-195.014-159.668l-10.891-8.485c-50.823-39.517-103.362-80.357-159.259-118.26-129.823-88.087-280.518-156.491-432.898-197.3203z" fill="url(#n)"/><path d="m-1290.04 77.7293c-36.38-9.7464-72.77-17.8199-108.88-24.0892l-.06.7793c183.92 31.9401 374.69 110.4236 537.149 220.9836 60.748 41.328 118.025 86.706 166.059 125.648 86.525 70.382 145.54 122.847 191.385 170.107 10.239 10.54 20.371 21.571 30.171 32.236 41.71 45.356 84.834 92.266 155.613 127.293 64.055 31.858 111.352 30.217 139.764 23.238 5.621-1.381 11.091-2.993 16.223-4.782 14.947-5.209 28.114-12.072 40.155-18.7 15.039-8.314 29.6983-17.024 43.8406-25.458 32.4798-19.339 63.1831-37.599 99.9262-52.424 42.7321-17.232 97.4032-24.09 158.1022-19.859 54.097 3.776 113.958 16.445 173.082 36.644 31.807 10.857 63.348 23.803 93.758 38.452 20.451 9.854 40.244 20.413 58.872 31.403 16.114 9.505 31.244 19.921 45.865 29.993 29.891 20.579 60.766 41.87 100.847 55.583 51.163 17.513 105.499 19.97 158.099 22.36 17.5.782 35.61 1.606 53.083 2.986 22.201 1.747 42.187 3.334 62.422 5.108 44.882 3.935 103.934 9.885 162.474 20.957 111.36 21.038 228.69 50.522 358.68 90.143l.32-.71c-130.07-39.642-247.45-69.139-358.88-90.199-58.63-11.092-117.736-17.041-162.675-20.974-20.235-1.774-40.247-3.367-62.448-5.115-17.504-1.371-35.615-2.195-53.141-2.984-52.438-2.363-106.659-4.824-157.541-22.244-39.852-13.635-70.638-34.851-100.436-55.369-14.646-10.08-29.771-20.512-45.958-30.053-18.649-11.013-38.489-21.602-58.992-31.47-30.483-14.686-62.102-27.653-93.956-38.54-59.301-20.264-119.324-32.958-173.614-36.752-60.944-4.262-115.8286 2.643-158.7538 19.944-36.8058 14.843-68.9669 33.991-100.0621 52.491-14.1424 8.434-28.7961 17.128-43.8301 25.427-11.978 6.61-25.109 13.448-39.988 18.624-5.1 1.78-10.508 3.374-16.097 4.746-28.11 6.921-74.974 8.541-138.514-23.076-70.508-34.902-113.554-81.705-155.176-126.986-9.799-10.665-19.958-21.702-30.191-32.259-45.861-47.298-104.922-99.793-191.494-170.205-48.055-38.965-105.353-84.365-166.152-125.708-130.77-88.997-279.881-157.235-429.001-197.1916z" fill="url(#o)"/><path d="m-1279.07 63.0001c-38.49-10.312-76.87-18.6253-114.82-24.8015l-.06.7793c182.05 29.6235 373.82 108.3951 539.99 221.8151 52.153 35.585 106.276 77.213 165.485 127.292 77.542 65.728 137.86 123.936 184.395 177.933 9.361 10.876 18.668 22.256 27.643 33.271 39.703 48.673 80.757 99.005 151.941 136.405 23.521 12.405 46.918 20.905 69.519 25.301 25.561 4.965 49.469 4.473 71.047-1.485 5.527-1.527 10.946-3.325 16.099-5.35 14.907-5.861 27.691-13.448 39.285-20.784 15.257-9.656 30.0299-19.823 44.2963-29.658 29.3898-20.288 59.7987-41.254 95.3215-57.877 41.7639-19.704 96.7022-28.738 158.8912-26.095 55.51 2.339 116.568 13.963 176.596 33.574 32.685 10.694 64.706 23.562 95.13 38.249 20.567 9.937 40.457 20.712 59.085 32.048 16.602 10.085 31.996 21.246 46.891 32.032 29.144 21.121 59.277 42.94 99.039 57.017 51.182 18.14 105.764 20.456 158.494 22.708 18.017.764 36.648 1.556 54.585 2.99 20.288 1.616 41.869 3.353 63.053 5.26 45.179 4.066 104.694 10.229 164.104 21.947 107.49 21.176 222.51 50.665 361.94 92.814l.29-.717c-139.5-42.169-254.57-71.689-362.14-92.869-59.52-11.73-119.065-17.9-164.301-21.964-21.184-1.908-42.766-3.645-63.054-5.26-17.993-1.433-36.625-2.224-54.668-2.996-52.621-2.24-107.004-4.554-157.936-22.592-39.507-13.992-69.546-35.751-98.602-56.797-14.915-10.808-30.356-21.999-47.01-32.098-18.675-11.366-38.612-22.171-59.257-32.129-30.498-14.724-62.591-27.629-95.38-38.351-60.179-19.669-121.425-31.325-177.127-33.682-62.446-2.642-117.6185 6.416-159.5548 26.212-35.5907 16.656-66.0101 37.654-95.4624 57.96-14.2664 9.835-29.0138 20.009-44.2648 29.649-11.558 7.311-24.305 14.874-39.118 20.708-5.122 2.016-10.478 3.796-15.974 5.315-28.258 7.797-75.38 10.022-139.257-23.656-70.919-37.26-111.89-87.5-151.515-136.066-8.974-11.015-18.277-22.411-27.664-33.294-46.576-54.042-106.935-112.296-184.524-178.054-59.256-50.109-113.426-91.767-165.6-127.375-131.716-89.908-279.571-158.086-425.901-197.2953z" fill="url(#p)"/><path d="m-1267.32 48.3431c-40.8-10.9334-81.38-19.4717-121.54-25.5821l-.03.7863c93.43 14.1936 189.18 41.6494 284.57 81.6097 89.4 37.458 176.292 84.91 258.244 141.014 55.432 37.933 110.9 81.322 164.912 128.937 72.124 63.671 131.814 126.171 177.43 185.765 8.531 11.155 16.977 22.823 25.127 34.101 37.649 52.047 76.575 105.889 148.232 145.715 50.631 28.193 100.814 36.85 141.336 24.403 5.361-1.623 10.733-3.624 15.976-5.919 14.809-6.509 27.215-14.838 38.414-22.867 15.256-10.936 29.903-22.519 44.0845-33.726 27.9765-22.102 56.9148-44.966 91.368808-63.5 41.046292-22.161 96.272192-33.348 159.686692-32.348 56.865.904 119.131 11.451 180.105 30.52 33.545 10.493 66.015 23.29 96.533 38.038 20.712 10.01 40.67 21.011 59.328 32.684 16.992 10.621 32.603 22.497 47.689 33.991 28.48 21.67 57.933 44.084 97.454 58.546 51.29 18.757 106.08 20.956 159.056 23.066 18.481.733 37.603 1.5 56.009 2.974 23.682 1.903 43.589 3.555 63.657 5.405 45.533 4.196 105.508 10.602 165.738 22.937 130.1 26.646 257.61 63.233 365.21 95.507l.3-.716c-107.64-32.281-235.2-68.866-365.38-95.534-60.33-12.362-120.39-18.774-165.949-22.977-20.068-1.85-39.975-3.502-63.689-5.395-18.432-1.481-37.585-2.239-56.092-2.98-52.83-2.123-107.427-4.304-158.441-22.952-39.297-14.368-68.636-36.7-97.022-58.31-15.112-11.5-30.744-23.4-47.803-34.074-18.705-11.702-38.736-22.74-59.495-32.78-30.591-14.784-63.16-27.626-96.783-38.139-61.13-19.112-123.604-29.714-180.641-30.613-63.6967-1.006-119.1368 10.227-160.3605693 32.497-34.5218307 18.567-63.4915307 41.44-91.4785307 63.574-14.1769 11.191-28.8239 22.774-44.0739 33.694-11.163 8.005-23.526 16.293-38.268 22.768-5.211 2.286-10.521 4.269-15.85 5.884-40.085 12.322-89.798 3.704-139.976-24.229-71.365-39.678-110.219-93.397-147.81-145.36-8.176-11.285-16.617-22.969-25.148-34.124-45.658-59.64-105.384-122.201-177.576-185.925-54.027-47.654-109.574-91.064-165.047-129.043-82.045-56.163-169.037-103.659-258.567-141.168-54.56-22.8483-109.21-41.626-163.49-56.1689z" fill="url(#q)"/><path d="m-1256.59 33.4438c-42.71-11.443-85.2-20.1843-127.24-26.12222v.77738c171.45 24.20654 350.83 95.25004 518.835 205.44404 75.529 49.542 145.779 105.087 208.771 165.066 61.163 58.227 112.568 117.816 152.809 177.111 7.722 11.37 15.333 23.247 22.7 34.747 35.563 55.517 72.346 112.916 144.459 155.216 50.83 29.819 101.314 38.678 142.138 24.981 20.557-6.905 36.229-17.557 53.423-31.432 15.102-12.187 29.518-25.129 43.4275-37.653 26.699-23.983 54.2974-48.797 87.85475-69.248 77.42795-47.197 209.29875-51.506 344.09975-11.15 58.126 17.39 111.127 41.342 157.503 71.161 17.303 11.137 33.053 23.708 48.283 35.88 27.884 22.27 56.683 45.288 96.099 60.154 51.424 19.38 106.454 21.453 159.67 23.437 18.94.718 38.501 1.447 57.318 2.963 79.207 6.424 156.52 13.5 231.66 29.482 124.69 26.514 245.45 61.567 368.47 98.178l.29-.716c-123.07-36.625-243.86-71.686-368.63-98.22-75.24-15.994-152.633-23.091-231.897-29.514-18.87-1.529-38.456-2.265-57.401-2.967-53.044-1.99-107.914-4.037-159.061-23.309-39.139-14.758-67.85-37.699-95.62-59.887-15.255-12.179-31.021-24.789-48.397-35.962-46.511-29.925-99.663-53.935-157.972-71.374-135.234-40.419-267.5998-36.157-345.3464 11.232-33.6304 20.5-61.2604 45.323-87.97 69.337-13.9356 12.518-28.3196 25.451-43.4176 37.622-17.12 13.825-32.718 24.427-53.146 31.281-54.48 18.268-111.522-7.701-140.693-24.802-71.827-42.136-108.532-99.428-144.049-154.829-7.367-11.5-14.999-23.399-22.721-34.77-40.303-59.363-91.75-118.998-152.953-177.27-63.061-60.032-133.378-115.63-208.98-165.209-127.031-83.328-260.616-144.2951-392.356-179.5946z" fill="url(#r)"/><path d="m-1269.55 36.6953c-39.14-10.4865-77.79-18.681-115.82-24.5485l-.03.7863c124.83 19.238 323.26 75.0178 559.655 231.5619 71.114 46.941 136.58 97.746 194.544 150.984 51.951 47.841 97.123 96.96 134.275 145.97 8.744 11.54 17.386 23.641 25.733 35.352 37.709 52.807 76.696 107.409 147.786 148.518 50.086 28.98 100.047 38.65 140.681 27.235 22.747-6.404 40.239-17.156 54.338-26.829 16.079-11.026 31.3372-22.826 46.0931-34.225 26.5064-20.49 53.9275-41.686 86.75571-58.909 39.74419-20.972 93.63839-31.565 155.84919-30.611 57.751.883 121.169 11.461 183.394 30.607 12 3.682 23.973 7.703 35.596 11.923 43.684 15.855 84.557 35.399 121.441 58.076 17.039 10.478 32.708 22.18 47.826 33.492 28.694 21.45 58.373 43.614 97.932 57.533 13.009 4.575 26.506 8.192 41.22 11.045 38.384 7.45 78.132 8.384 116.561 9.276 18.607.439 37.834.888 56.329 2.092 74.424 4.849 147.221 10.317 219.511 23.843 3.1.571 6.22 1.182 9.33 1.792 106.73 21.146 219.62 50.495 366.03 95.19l.32-.709c-146.46-44.709-259.4-74.072-366.21-95.239-3.12-.611-6.23-1.221-9.33-1.793-72.4-13.537-145.277-19.026-219.758-23.873-18.552-1.202-37.806-1.659-56.413-2.098-38.366-.909-78.005-1.831-116.232-9.239-14.636-2.833-28.029-6.421-40.934-10.968-39.304-13.834-68.888-35.938-97.468-57.306-15.164-11.341-30.854-23.066-47.946-33.558-37.004-22.744-77.97-42.348-121.784-58.237-11.675-4.235-23.674-8.263-35.7-11.952-62.382-19.187-126.014-29.806-183.937-30.683-62.4663-.953-116.6005 9.679-156.51708 30.743-32.89612 17.257-60.32242 38.469-86.86542 58.984-14.7558 11.399-30.0135 23.199-46.0615 34.216-14.031 9.639-31.45 20.342-54.041 26.702-40.195 11.29-89.666 1.682-139.305-27.023-70.824-40.968-109.733-95.463-147.39-148.169-8.373-11.718-17.01-23.835-25.754-35.376-37.188-49.071-82.408-98.22-134.4-146.106-58.032-53.291-123.544-104.126-194.726-151.12-87.776-58.131-177.548-106.994-266.778-145.236-59.92-25.6685-119.4-46.429-177.82-62.082z" fill="url(#s)"/><path d="m-1283.32 39.6271c-35.13-9.4114-69.65-16.9505-103.55-22.6263l-.06.7793c171.61 28.6765 359.26 105.5989 557.765 228.6339 73.086 45.015 139.864 92.8 198.533 142.026 53.336 45.03 100.508 91.711 140.205 138.775 9.891 11.762 19.743 24.152 29.247 36.138 39.704 50.04 80.743 101.786 150.658 141.646 49.364 28.165 98.806 38.629 139.23 29.475 18.678-4.227 35.731-11.086 55.279-22.22 17.0666-9.725 33.2281-20.228 48.8461-30.376 26.3244-17.116 53.5529-34.819 85.543-48.999 39.7969-17.621 92.9999-25.443 153.8749-22.6 56.656 2.647 119.065 14.304 180.517 33.726 11.838 3.743 23.691 7.783 35.257 12.006 43.189 15.808 84.005 34.922 121.345 56.822 16.65 9.769 32.134 20.574 47.087 31.012 30.995 21.618 60.255 42.044 100.119 55.042 12.781 4.151 26.509 7.501 40.812 9.968 37.98 6.528 77.187 6.868 115.117 7.212 18.243.168 37.137.338 55.315 1.215 73.035 3.56 144.57 7.791 216.79 20.157 3.08.533 6.16 1.081 9.24 1.63 110.57 20.272 232.89 51.285 363.56 92.211l.32-.71c-130.77-40.953-253.18-71.987-363.79-92.273-3.08-.565-6.16-1.098-9.25-1.631-72.32-12.393-143.916-16.606-217.003-20.18-18.236-.876-37.13-1.046-55.399-1.221-37.846-.338-76.991-.696-114.809-7.198-14.225-2.446-27.848-5.768-40.551-9.898-39.604-12.928-68.776-33.279-99.656-54.814-14.974-10.461-30.484-21.273-47.18-31.072-37.408-21.952-78.35-41.117-121.637-56.969-11.587-4.246-23.492-8.3-35.33-12.043-61.604-19.48-124.2-31.17-181.023-33.827-61.099-2.851-114.5422 5.01-154.5063 22.707-32.0839 14.207-59.3176 31.926-85.6786 49.067-15.618 10.147-31.7535 20.657-48.7831 30.357-19.449 11.092-36.403 17.908-54.961 22.116-39.996 9.061-88.979-1.332-137.937-29.267-69.675-39.727-110.632-91.381-150.279-141.336-9.503-11.986-19.35-24.393-29.267-36.161-39.739-47.11-86.978-93.844-140.361-138.904-58.711-49.272-125.556-97.11-198.715-142.161-159.477-98.851-312.034-167.979-454.904-206.2597z" fill="url(#t)"/><path d="m-1296.92 42.3983c-30.98-8.3013-61.4-15.1374-91.47-20.5484l-.08.7723c91.2 16.4507 185.65 45.8736 288.76 89.9258 81.56 34.855 168.924 79.252 267.083 135.757 78.603 45.231 144.836 88.755 202.518 133.083 54.113 41.574 103.279 85.833 146.166 131.573 11.272 12.045 21.959 24.227 33.291 37.118 41.491 47.216 84.4 96.058 152.974 134.573 62.314 35.058 109.325 36.589 137.778 31.714 19.369-3.316 37.227-8.922 56.194-17.619 18.0325-8.273 35.0503-17.336 51.5144-26.099 26.1169-13.921 53.147896-28.289 84.4201-39.532 40.3512-14.499 91.4285-19.415 151.8285-14.624 55.535 4.403 116.981 17.168 177.686 36.874 11.708 3.794 23.436 7.87 34.913 12.104 42.667 15.755 83.453 34.446 121.224 55.562 16.156 9.032 31.304 18.882 45.936 28.405 32.097 20.858 62.388 40.575 102.667 52.664 12.729 3.791 26.317 6.792 40.402 8.89 37.581 5.592 76.263 5.376 113.668 5.163 17.91-.111 36.44-.211 54.327.346 68.777 2.195 141.97 5.279 214.04 16.464 3.05.471 6.09.974 9.15 1.484 114.4 19.226 239.27 50.091 361.11 89.222l.35-.702c-121.92-39.169-246.9-70.046-361.4-89.299-3.06-.51-6.11-.997-9.18-1.475-72.21-11.205-145.452-14.302-214.287-16.496-17.918-.548-36.448-.447-54.384-.343-37.347.21-75.952.447-113.392-5.142-14.002-2.092-27.516-5.056-40.142-8.82-40.018-12.019-70.22-31.661-102.197-52.452-14.684-9.536-29.827-19.402-46.03-28.464-37.838-21.169-78.724-39.904-121.469-55.68-11.498-4.256-23.283-8.33-34.991-12.124-60.857-19.764-122.464-32.555-178.161-36.985-60.65-4.806-111.9617.134-152.4747 14.693-31.3348378 11.261-58.3763 25.661-84.5559 39.6-16.4641 8.762-33.4505 17.817-51.4774 26.074-18.868 8.654-36.627 14.217-55.881 17.53-28.182 4.827-74.734 3.28-136.549-31.488-68.328-38.398-111.181-87.155-152.609-134.302-11.332-12.891-22.045-25.081-33.311-37.141-42.93-45.787-92.137-90.091-146.297-131.695-57.729-44.357-124.029-87.934-202.679-133.196-98.237-56.525-185.643-100.968-267.283-135.844-69.25-29.6046-134.63-52.6021-197.73-69.5118z" fill="url(#u)"/><path d="m-1312.18 44.6903c-25.77-6.9049-51.68-12.9492-77.75-18.0147l-.11.7654c198.22 38.4348 389.9 135.143 553.976 222.761 83.596 44.633 149.22 84.087 206.508 124.125 55.258 38.63 106.444 80.474 152.096 124.38 12.851 12.416 25.101 25.017 38.069 38.363 43.069 44.337 87.599 90.172 154.549 127.25 33.866 18.773 85.018 39.914 136.297 33.962 20.21-2.347 38.899-6.607 57.1029-13.001 18.9718-6.656 36.8299-14.145 54.1187-21.373 25.9516-10.854 52.7648-22.081 83.356-30.499 40.2995-11.089 90.6904-13.337 149.8074-6.642 54.388 6.153 114.85 20.003 174.882 40.03 11.525 3.832 23.185 7.941 34.594 12.209 42.099 15.671 82.829 33.933 121.102 54.302 15.46 8.223 30.11 17.093 44.292 25.664 33.345 20.173 64.873 39.236 105.739 50.41.286.077.547.147.834.224 12.428 3.33 25.6 5.874 39.16 7.588 37.15 4.664 75.318 3.861 112.224 3.1 17.571-.374 35.737-.745 53.306-.515 67.473.998 139.357 2.798 211.317 12.794 3 .425 6.04.858 9.06 1.322 118.12 18.026 242.14 47.835 358.64 86.243l.35-.703c-116.61-38.435-240.76-68.28-358.99-86.317-3.03-.448-6.05-.897-9.09-1.314-72.09-10.014-144.036-11.813-211.566-12.809-17.596-.237-35.793.143-53.364.517-36.827.782-74.932 1.568-111.947-3.077-13.779-1.739-27.113-4.309-39.729-7.758-40.626-11.128-72.039-30.109-105.265-50.214-14.181-8.572-28.857-17.449-44.364-25.701-38.346-20.406-79.149-38.704-121.327-54.397-11.44-4.259-23.1-8.368-34.645-12.223-60.158-20.078-120.781-33.953-175.305-40.126-59.335-6.719-109.9562-4.463-150.4435 6.679-30.6592 8.452-57.5296 19.681-83.4865 30.551-17.2627 7.234-35.1156 14.708-54.056 21.355-18.136 6.361-36.705 10.6-56.827 12.936-50.809 5.905-101.555-15.092-135.181-33.732-66.762-36.958-111.225-82.74-154.231-127.008-12.968-13.347-25.214-25.964-38.091-38.387-45.724-43.942-96.926-85.825-152.252-124.508-57.329-40.084-123.005-79.552-206.669-124.237-142.65-76.172-306.171-159.2159-476.791-204.9321z" fill="url(#v)"/><path d="m-1328.66 46.4786c-20.9-5.5993-41.82-10.6169-62.79-14.9733l-.13.7584c184.84 38.3787 367.73 128.7373 529.09 208.4693 7.702 3.81 15.357 7.591 22.992 11.348 89.657 44.234 154.573 79.746 210.492 115.182 56.44 35.749 109.62 75.171 158.057 117.177 14.774 12.862 28.859 26.007 43.771 39.909 44.313 41.351 90.172 84.119 155.213 119.596 33.366 18.224 83.83 39.301 134.845 36.2 21.6-1.318 40.5814-4.063 58.0182-8.398 19.8168-4.925 38.4885-10.676 56.5287-16.233 25.81268-7.951 52.5024-16.152 82.4913-21.896 77.4848-14.835 194.0668 1.396 319.8648 44.526 11.415 3.906 22.949 8.051 34.254 12.291 41.453 15.567 82.153 33.406 120.981 53.042 14.581 7.364 28.546 15.221 42.057 22.818 34.823 19.565 67.683 38.034 109.396 48.278 12.487 3.069 25.837 5.332 39.586 6.734 36.746 3.743 74.399 2.353 110.816 1.011 17.202-.629 35.009-1.286 52.256-1.367 66.146-.222 136.751.318 208.591 9.108 2.97.364 5.96.751 8.98 1.161 118.17 15.966 244.66 45.537 356.19 83.254l.37-.696c-111.63-37.761-238.25-67.35-356.56-83.352-3.01-.409-6.01-.78-9-1.167-71.95-8.802-142.616-9.325-208.84-9.124-17.273.074-35.08.732-52.313 1.37-36.334 1.346-73.924 2.719-110.561-1.012-13.697-1.388-26.906-3.648-39.32-6.68-41.4-10.16-74.187-28.592-108.916-48.098-13.512-7.597-27.502-15.461-42.13-22.855-38.875-19.666-79.648-37.541-121.179-53.13-11.326-4.262-22.86-8.407-34.302-12.32-24.685-8.464-49.029-15.904-72.766-22.264-97.606-26.154-185.481-34.33-248.0312-22.356-30.0463 5.745-56.77775 13.987-82.6166 21.931-18.0402 5.557-36.6807 11.298-56.4661 16.215-17.3742 4.317-36.2611 7.036-57.7471 8.35-50.55 3.07-100.665-17.862-133.813-35.976-64.9-35.388-110.665-78.095-154.911-119.394-14.907-13.918-29.017-27.069-43.791-39.931-48.484-42.037-101.732-81.511-158.214-117.305-55.966-35.466-120.928-71.009-210.632-115.273-7.635-3.757-15.285-7.553-22.993-11.347-143.168-70.745-303.318-149.8576-466.788-193.6608z" fill="url(#w)"/><path d="m-1343.66 48.4426c-16.37-4.3845-32.79-8.4216-49.28-12.0796l-.16.7514c158.94 35.2395 312.18 106.5036 460.377 175.4316 30.994 14.425 60.269 28.044 89.817 41.441 83.162 37.723 151.435 70.21 214.481 106.225 57.653 32.944 112.828 69.944 163.993 109.967 17.082 13.429 33.413 27.244 50.664 41.877 45.168 38.26 91.891 77.819 154.673 111.55 47.093 25.343 93.215 38.635 133.368 38.433 23.756-.118 42.4826-1.324 58.9283-3.781 20.505-3.064 39.8911-6.946 58.64048-10.705 25.76812-5.163 52.41802-10.504 81.91962-13.664 77.5966-8.322 189.4846 11.458 315.0336 55.679 11.233 3.944 22.647 8.109 33.91 12.389 40.708 15.419 81.378 32.835 120.886 51.789 13.442 6.437 26.434 13.203 39.015 19.755 36.582 19.052 71.154 37.063 113.866 46.347 12.436 2.709 25.619 4.617 39.202 5.663 36.348 2.807 73.481.845 109.378-1.068 16.864-.893 34.306-1.821 51.231-2.213 64.835-1.403 134.157-2.139 205.867 5.422 2.96.326 5.91.651 8.89.999 119.97 14.234 245.59 42.742 353.72 80.274l.37-.695c-108.25-37.583-234.04-66.117-354.14-80.37-2.98-.348-5.96-.681-8.92-1.006-71.81-7.574-141.194-6.836-206.087-5.431-16.951.386-34.399 1.329-51.288 2.215-35.84 1.911-72.916 3.871-109.149 1.061-13.473-1.034-26.573-2.937-38.931-5.626-42.441-9.245-76.893-27.19-113.382-46.182-12.581-6.552-25.599-13.325-39.062-19.785-39.533-18.961-80.251-36.406-121.01-51.84-11.263-4.28-22.703-8.452-33.962-12.402-125.831-44.314-237.995-64.117-315.8785-55.785-29.5643 3.178-56.2715 8.521-82.07093 13.693-18.71807 3.75-38.07827 7.639-58.55187 10.694-16.3883 2.455-35.0257 3.65-58.6987 3.773-39.84.2-85.618-13.017-132.451-38.204-62.641-33.641-109.292-73.164-154.418-111.378-17.277-14.64-33.607-28.455-50.711-41.907-51.233-40.076-106.475-77.128-164.174-110.102-63.094-36.045-131.439-68.569-214.628-106.298-29.547-13.398-58.823-27.017-89.817-41.442-132.93-61.829-269.92-125.5567-411.51-163.4953z" fill="url(#x)"/><path d="m-1360.55 49.7431c-11.28-3.0231-22.59-5.8804-33.9-8.5491l-.19.7444c138.8 32.7158 274.22 93.1356 405.189 151.5676 49.455 22.069 96.144 42.895 143.113 62.361 77.15 31.98 150.009 62.186 218.466 97.282 58.903 30.202 116.102 64.771 169.949 102.78 19.938 14.143 39.015 28.832 59.199 44.372 45.475 35.023 92.51 71.243 152.524 102.969 46.386 24.566 91.994 38.637 131.89 40.665 23.2102 1.188 42.2755 1.785 59.8435.821 21-1.133 40.9279-3.054 60.20904-4.907 25.90106-2.482 52.68386-5.057 81.89666-5.718 76.1478-1.726 186.3298 22.006 310.2078 66.817 11.097 4.011 22.418 8.202 33.566 12.486 39.686 15.164 80.321 32.172 120.764 50.529 11.938 5.412 23.629 11.051 34.931 16.5 38.726 18.658 75.323 36.296 119.368 44.64 12.384 2.35 25.434 3.893 38.793 4.586 35.975 1.876 72.573-.696 107.997-3.151 16.525-1.156 33.572-2.345 50.174-3.049 60.792-2.469 131.62-4.582 203.12 1.73 2.92.264 5.87.535 8.8.837 121.25 12.346 246 39.792 351.28 77.286l.4-.689c-105.43-37.551-230.34-65.039-351.73-77.388-2.93-.303-5.88-.573-8.83-.844-71.63-6.332-142.517-4.216-203.366-1.745-16.602.703-33.706 1.895-50.206 3.058-35.346 2.475-71.907 5.023-107.772 3.158-13.276-.687-26.216-2.218-38.523-4.548-43.805-8.297-80.276-25.884-118.883-44.475-11.301-5.448-22.998-11.072-34.957-16.507-40.495-18.371-81.156-35.386-120.862-50.573-11.18-4.274-22.495-8.482-33.592-12.493-59.407-21.485-115.522-38.18-166.776-49.597-55.663-12.408-104.169-18.248-144.1572-17.345-29.3013.672-56.1102 3.24-82.03729 5.715-19.24981 1.844-39.17781 3.766-60.14641 4.89-17.4793.952-36.4872.354-59.6451-.82-39.614-2.022-84.967-16.007-131.083-40.449-59.888-31.676-106.856-67.842-152.289-102.82-20.185-15.539-39.256-30.245-59.246-44.401-53.92-38.047-111.161-72.661-170.136-102.9-68.531-35.133-141.415-65.346-218.591-97.332-46.944-19.46-93.633-40.286-143.088-62.354-120.364-53.691-244.514-109.0851-371.614-143.1419z" fill="url(#y)"/><path d="m-1377.5 50.82c-6.15-1.6477-12.32-3.2477-18.5-4.8001l-.24.7304c122.52 30.6686 243.05 82.9327 359.63 133.4997 64.519 27.988 125.44 54.408 186.835 77.515 10.445 3.923 20.812 7.824 31.164 11.687 67.131 25.145 130.552 48.899 191.292 76.637 60.245 27.518 119.413 59.658 175.884 95.57 23.55 15.058 46.086 30.865 69.933 47.594 45.026 31.583 91.571 64.231 148.123 93.647 45.648 23.797 90.743 38.647 130.414 42.897l7.888.852c19.6345 2.131 36.5841 3.976 52.8384 4.58 21.13.786 41.318103.905 60.8595 1.006 26.3054.151 53.487.311 82.7861 2.128 74.998 4.657 180.597 31.603 305.409 77.962 10.868 4.018 22.032 8.254 33.227 12.568 37.857 14.604 78.467 31.173 120.647 49.253 10.012 4.29 19.903 8.687 29.466 12.961 41.361 18.413 80.445 35.818 126.261 43.184 12.333 1.991 25.248 3.17 38.384 3.508 35.582.924 71.686-2.212 106.601-5.27 16.155-1.411 32.838-2.871 49.087-3.877 59.574-3.59 129.101-7.003 200.391-1.94 2.91.209 5.79.427 8.71.675 120.35 10.186 247.49 37.269 348.81 74.307l.42-.682c-101.49-37.102-228.79-64.227-349.33-74.43-2.92-.248-5.83-.473-8.74-.682-71.4-5.059-141.013-1.652-200.645 1.941-16.28 1.014-32.988 2.467-49.144 3.878-34.878 3.033-70.931 6.184-106.397 5.256-13.048-.35-25.853-1.516-38.108-3.486-45.571-7.335-84.505-24.683-125.767-43.052-9.568-4.258-19.453-8.67-29.491-12.968-42.201-18.102-82.811-34.671-120.72-49.29-11.19-4.329-22.385-8.556-33.247-12.591-124.99-46.422-230.798-73.425-305.988-78.099-29.357-1.815-56.5698-1.966-82.9013-2.124-19.51001-.11-39.698-.229-60.802-1.008-16.1969-.606-33.0944-2.437-52.7029-4.561l-7.8878-.852c-39.421-4.235-84.287-19.006-129.742-42.7-56.453-29.372-102.951-61.99-147.93-93.543-23.874-16.736-46.431-32.565-70.007-47.631-56.543-35.949-115.779-68.141-176.096-95.697-60.813-27.774-124.261-51.535-191.418-76.687-10.32-3.872-20.718-7.764-31.137-11.68-61.343-23.093-122.264-49.513-186.759-77.479-110.78-48.043-225.12-97.648-341.41-128.8073z" fill="url(#z)"/><path d="m-1394.42 51.6969c-1.04-.2793-2.06-.5515-3.1-.8308l-.24.7304c1.01.2723 2.06.5515 3.1.8308 107.9 28.9112 214.72 74.4257 318.03 118.4627 73.61 31.375 149.728 63.805 223.441 88.777 18.439 6.255 36.914 12.398 54.801 18.349 59.892 19.938 116.464 38.762 171.645 61.016 61.661 24.873 122.843 54.613 181.839 88.384 28.214 16.222 55.242 33.543 83.867 51.863 43.487 27.835 88.448 56.617 140.544 83.301 44.93 23.052 89.517 38.664 128.9625 45.136 7.4803 1.226 14.6685 2.478 21.6169 3.683 14.0273 2.444 27.2829 4.734 39.9984 6.343 20.5875 2.595 40.4154 4.657 59.633 6.678 27.3093 2.857 55.5258 5.801 85.5792 10.223 73.233 10.754 171.571 39.921 300.605 89.122 10.731 4.086 21.801 8.349 32.908 12.673 40.482 15.757 81.869 32.379 120.552 48 7.48 3.025 14.945 6.097 22.159 9.067 44.662 18.381 86.829 35.731 134.964 42.093 12.287 1.616 25.062 2.446 37.95 2.424 35.208-.006 70.808-3.762 105.255-7.377 15.781-1.65 32.094-3.364 47.994-4.688 58.383-4.705 126.636-9.41 197.666-5.626 2.87.163 5.74.327 8.63.513 120.92 8.11 247.15 34.1 346.33 71.327l.43-.682c-99.39-37.298-225.83-63.329-346.92-71.448-2.89-.187-5.78-.357-8.65-.52-71.15-3.781-139.46.926-197.901 5.633-15.926 1.317-32.239 3.031-48.02 4.681-34.39 3.614-69.958 7.361-105.083 7.371-12.825.004-25.495-.797-37.726-2.415-47.868-6.308-89.931-23.63-134.468-41.96-7.215-2.971-14.679-6.043-22.186-9.074-38.683-15.621-80.039-32.252-120.552-48-11.106-4.325-22.176-8.588-32.908-12.673-129.185-49.259-227.627-78.454-301.022-89.234-30.0843-4.413-58.3269-7.365-85.6623-10.229-19.1915-2.013-39.01916-4.075-59.5807-6.663-12.6633-1.595-25.9137-3.901-39.9202-6.323-6.9485-1.205-14.1367-2.456-21.643-3.69-39.2318-6.432-83.6148-21.972-128.3738-44.943-52.023-26.647-96.963-55.407-140.403-83.212-28.647-18.342-55.679-35.648-83.94-51.899-59.069-33.808-120.324-63.585-182.058-88.495-55.228-22.284-111.826-41.115-171.744-61.059-17.887-5.951-36.362-12.095-54.801-18.349-73.635-24.952-149.708-57.368-223.288-88.72-103.39-44.058-210.26-89.6021-318.29-118.5482z" fill="url(#A)"/><path d="m-1399.01 55.7228-.25.7304c97.44 27.2821 194.37 68.2108 288.1 107.7788 83.65 35.311 170.107 71.824 254.536 97.334 24.626 7.445 49.237 14.593 73.071 21.516 54.678 15.895 106.307 30.888 157.359 48.906 63.171 22.286 126.347 49.605 187.775 81.175 34.468 17.811 67.539 37.183 102.526 57.709 40.334 23.653 82.026 48.085 128.244 71.361 44.213 22.306 88.292 38.682 127.4646 47.345 10.8356 2.402 20.9721 4.859 30.8168 7.255 11.0277 2.678 21.4249 5.205 31.7136 7.374 18.320397 3.871 36.1983 7.452 53.4613 10.919 31.2577 6.266 60.759 12.183 93.2647 19.734 85.541 19.843 192.712 59.936 295.8 100.283 10.799 4.224 21.645 8.479 32.564 12.771 35.069 13.77 78.749 30.92 120.43 46.74 4.106 1.566 8.216 3.117 12.295 4.677 48.886 18.648 95.083 36.248 146.256 41.489 12.268 1.247 24.909 1.712 37.567 1.352 34.846-.967 69.963-5.319 103.921-9.515 15.386-1.911 31.298-3.872 46.839-5.482 57.218-5.812 124.196-11.793 194.946-9.311 2.83.102 5.69.226 8.54.351 121.24 5.947 246.58 30.853 343.89 68.338l.45-.674c-97.49-37.566-223.06-62.519-344.5-68.468-2.87-.147-5.73-.256-8.56-.358-70.84-2.487-137.905 3.505-195.181 9.32-15.567 1.603-31.484 3.579-46.87 5.49-33.932 4.203-69.012 8.53-103.775 9.503-12.57.349-25.132-.096-37.311-1.354-50.928-5.209-96.995-22.774-145.756-41.372-4.079-1.559-8.184-3.126-12.295-4.677-41.681-15.819-85.335-32.962-120.405-46.733-10.892-4.284-21.764-8.546-32.563-12.771-103.161-40.383-210.416-80.481-296.082-100.375-32.5366-7.543-62.064-13.466-93.3165-19.748-17.2629-3.468-35.114844-7.041-53.4353-10.912-10.2625-2.162-20.6336-4.682-31.6353-7.353-9.8447-2.396-20.0072-4.86-30.8428-7.262-39.0111-8.638-82.9391-24.955-127.0321-47.195-46.171-23.246-87.838-47.671-128.145-71.317-35.013-20.532-68.105-39.928-102.625-57.753-61.522-31.629-124.776-58.969-188.025-81.276-51.13-18.04-102.78-33.055-157.489-48.942-23.809-6.915-48.42-14.063-73.045-21.508-84.325-25.482-170.761-61.972-254.331-97.262-93.8-39.605-190.79-80.548-288.35-107.865z" fill="url(#B)"/><path d="m-1400.53 60.5541-.29.7165c86.67 25.5762 173.13 62.1594 256.76 97.5344 92.96 39.326 189.095 79.937 284.03 104.648 25.546 6.638 51.097 13 75.816 19.139 54.913 13.643 106.783 26.538 158.603 42.325 64.758 19.721 129.929 44.617 193.731 73.988 43.244 20.007 84.729 42.412 128.671 66.133 34.628 18.7 70.411 38.022 108.433 56.837 41.005 20.341 84.779 35.839 125.9606 49.57 18.1942 6.051 35.1138 10.982 51.5228 15.742 4.0124 1.162 7.99873 2.316 11.95372 3.48 9.12421 2.687 18.12858 5.307 27.02348 7.915 40.7852 11.931 79.3244 23.191 121.2694 36.505 69.872 22.18 153.89 56.12 242.816 92.032 15.835 6.405 31.9 12.888 48.174 19.427 10.668 4.276 21.415 8.573 32.219 12.868 44.508 17.649 83.866 32.517 120.309 45.48 53.834 19.127 104.646 37.186 159.979 41.172 12.248.879 24.728.973 37.127.284 34.483-1.929 69.148-6.886 102.676-11.664 14.979-2.141 30.49-4.347 45.646-6.251 69.56-8.556 128.86-14.054 192.19-12.988 2.79.056 5.62.103 8.45.205 119.61 3.662 247.23 28.091 341.41 65.359l.45-.675c-94.4-37.347-222.29-61.83-342.1-65.509-2.84-.086-5.65-.149-8.47-.196-63.46-1.061-122.84 4.431-192.46 13.005-15.181 1.897-30.693 4.103-45.677 6.26-33.476 4.792-68.104 9.724-102.53 11.651-12.316.694-24.738.598-36.903-.275-55.056-3.965-105.764-21.995-159.447-41.064-36.417-12.957-75.749-27.818-120.257-45.466-10.804-4.296-21.556-8.577-32.219-12.869-16.247-6.532-32.338-13.022-48.174-19.426-88.973-35.942-173.017-69.89-242.967-92.091-41.971-13.32-80.5102-24.58-121.2954-36.512-8.895-2.608-17.87312-5.221-27.02339-7.915-3.955-1.163-7.94141-2.318-11.95381-3.479-16.3569-4.746-33.2765-9.677-51.4445-15.721-41.1089-13.695-84.8039-29.172-125.7109-49.469-37.996-18.808-73.779-38.129-108.38-56.823-43.964-23.744-85.501-46.163-128.771-66.177-63.848-29.4-129.123-54.325-193.96-74.066-51.872-15.801-103.768-28.704-158.707-42.353-24.719-6.139-50.245-12.495-75.791-19.132-94.903-24.634-190.859-65.266-283.749-104.556-83.68-35.389-170.19-71.9859-256.97-97.6059z" fill="url(#C)"/><path d="m-1402.05 65.4028-.32.7095c78.91 24.5162 157.9 57.8867 234.27 90.1587 99.37 41.994 202.149 85.405 304.634 109.08 33.47 7.723 66.921 14.647 99.283 21.347 47.999 9.939 93.345 19.324 139.126 31.159 66.476 17.189 133.646 39.648 199.666 66.777 56.351 23.26 110.464 50.449 167.732 79.245 24.487 12.318 49.827 25.055 75.726 37.648 42.72 20.818 85.7776 38.734 124.5151 51.794 16.3808 5.53 31.5142 11.314 46.1424 16.911 6.2462 2.382 12.164228 4.642 18.17095 6.891 50.87185 18.991 98.48055 37.47 149.81155 58.157 41.397 16.676 86.848 36.618 134.955 57.703 48.179 21.121 97.989 42.974 151.226 64.932 10.959 4.51 21.685 8.871 31.879 12.951 41.955 16.791 82.388 31.671 120.214 44.227 53.546 17.77 106.189 33.899 161.402 36.193 12.202.504 24.573.24 36.717-.794 34.153-2.899 68.34-8.468 101.41-13.836 14.573-2.371 29.684-4.822 44.45-7.003 68.17-9.916 126.45-16.549 189.47-16.675 2.78.002 5.56.003 8.36.044 119.59 1.409 246.28 24.723 338.97 62.37l.47-.652c-92.89-37.735-219.87-61.11-339.69-62.527-2.82-.031-5.6-.049-8.38-.034-63.11.12-121.48 6.764-189.709 16.697-14.792 2.175-29.877 4.633-44.481 7.013-33.044 5.374-67.199 10.935-101.29 13.816-12.086 1.032-24.375 1.301-36.514.78-54.963-2.28-107.449-18.366-160.864-36.102-37.775-12.542-78.186-27.398-120.089-44.176-10.195-4.08-20.92-8.441-31.88-12.951-53.21-21.951-102.999-43.78-151.179-64.902-48.128-21.108-93.584-41.033-135.002-57.733-51.357-20.694-98.9864-39.196-149.85816-58.186-6.00673-2.25-11.8987-4.503-18.14484-6.885-14.6543-5.604-29.7879-11.387-46.2207-16.932-38.6855-13.045-81.6693-30.925-124.2913-51.699-25.899-12.593-51.213-25.323-75.699-37.641-57.321-28.81-111.455-56.022-167.884-79.302-66.118-27.174-133.335-49.662-199.921-66.864-45.834-11.849-91.205-21.24-139.23-31.186-32.336-6.694-65.787-13.617-99.258-21.341-102.385-23.63-205.005-66.999-304.325-108.98-76.42-32.286-155.43-65.679-234.45-90.2231z" fill="url(#D)"/><path d="m-1403.57 70.2351-.34.7025c71.29 23.2708 142.79 53.7354 211.93 83.1864 105.58 44.974 214.767 91.485 325.08 113.108 36.653 7.193 73.382 13.3 108.87 19.214 43.933 7.311 89.347 14.863 133.524 24.349 68.205 14.628 137.389 34.687 205.621 59.591 78.094 28.619 152.897 64.43 232.085 102.332l17.728 8.484c41.794 20.016 84.3487 38.68 123.0431 54.01 19.889 7.87 38.21754 16.17 55.93132 24.184 3.10948 1.404 6.21898 2.807 9.30238 4.204 54.0844 24.364 105.7672 49.64 151.3522 71.916 19.092 9.335 38.574 19.032 59.201 29.297 65.925 32.809 140.661 70.02 222.143 104.508 10.574 4.476 21.206 8.863 31.536 13.049 40.907 16.528 81.336 30.991 120.097 42.95 51.293 15.836 106.527 30.567 162.829 31.2 12.303.115 24.54-.513 36.309-1.872 33.854-3.878 67.62-10.062 100.243-16.05 14.136-2.592 28.783-5.272 43.153-7.714 57.782-9.742 120.412-18.962 186.752-20.36 2.74-.06 5.51-.098 8.29-.112 55.24-.345 114.22 4.431 170.55 13.801 62.62 10.433 118.45 25.756 165.95 45.59l.5-.645c-47.65-19.891-103.62-35.249-166.39-45.708-56.46-9.406-115.53-14.186-170.88-13.838-2.79.031-5.56.068-8.3.128-66.45 1.402-129.14 10.624-186.986 20.383-14.37 2.443-29.017 5.123-43.158 7.73-32.618 5.973-66.358 12.164-100.154 16.04-11.707 1.341-23.861 1.974-36.106 1.857-56.047-.633-111.098-15.315-162.261-31.116-38.709-11.946-79.06-26.388-119.941-42.909-10.356-4.193-20.961-8.573-31.509-13.042-81.456-34.481-156.146-71.662-222.044-104.464-20.628-10.264-40.11-19.962-59.202-29.297-45.605-22.299-97.3196-47.566-151.3989-71.946-3.0833-1.396-6.1927-2.8-9.3022-4.204-17.73979-8.021-36.089-16.343-56.0041-24.221-38.6736-15.307-81.1968-33.98-122.9448-53.966l-17.728-8.484c-79.234-37.932-154.063-73.75-232.261-102.396-68.331-24.948-137.599-45.013-205.882-59.661-44.235-9.484-89.674-17.044-133.633-24.362-35.489-5.913-72.192-12.013-108.819-19.199-110.094-21.599-219.186-68.066-324.696-112.988-69.19-29.465-140.71-59.9363-212.11-83.251z" fill="url(#E)"/><path d="m-1405.09 75.0821-.38.6956c64.54 22.1148 129.33 50.0393 192.01 77.0523 110.94 47.81 225.654 97.254 343.145 116.305 39.279 6.375 78.728 11.379 116.869 16.222 42.525 5.395 86.495 10.97 129.541 18.39 70.043 12.077 141.227 29.698 211.557 52.381 93.755 30.326 182.127 69.963 256.166 104.739 39.103 18.378 80.014 37.293 121.5976 56.233 23.4168 10.665 44.6474 21.679 66.1483 32.99 46.6108 24.487 89.4971 49.17 134.8831 75.3 5.977 3.452 11.985 6.894 18.009 10.376l11.918 6.841c77.13 44.37 164.579 94.668 264.617 138.139 10.417 4.521 20.924 8.944 31.217 13.154 39.584 16.156 81.076 30.576 119.976 41.691 65.929 18.841 118.12 27.172 164.226 26.214 12.288-.269 24.364-1.269 35.9-2.95 33.59-4.882 66.972-11.704 99.232-18.309 13.667-2.804 27.788-5.694 41.7-8.38 56.608-10.904 118.088-21.365 184.028-24.046 2.7-.105 5.46-.197 8.2-.273 54.61-1.431 113.2 2.494 169.43 11.373 61.71 9.741 118.62 25.319 164.63 45.029l.5-.645c-46.16-19.784-103.22-35.403-165.09-45.17-56.35-8.891-115.07-12.851-169.77-11.394-2.74.076-5.5.168-8.23.267-66.02 2.675-127.56 13.155-184.259 24.069-13.912 2.686-28.038 5.592-41.726 8.373-32.26 6.605-65.611 13.418-99.17 18.292-11.473 1.663-23.486 2.645-35.696 2.935-45.908.959-97.906-7.355-163.658-26.132-38.847-11.1-80.262-25.499-119.773-41.619-10.293-4.21-20.773-8.626-31.17-13.123-99.939-43.428-187.341-93.697-264.419-138.052l-11.913-6.857c-6.029-3.466-12.032-6.924-18.014-10.36-45.412-26.137-88.2982-50.82-134.9297-75.33-21.527-11.318-42.7835-22.339-66.2472-33.034-41.5836-18.94-82.4681-37.848-121.5711-56.226-74.117-34.797-162.537-74.464-256.396-104.817-70.429-22.727-141.717-40.376-211.843-52.459-43.099-7.433-87.094-13.015-129.619-18.41-38.115-4.836-77.539-9.833-116.791-16.201-117.247-19.021-231.835-68.397-342.655-116.157-62.71-27.02-127.55-54.9741-192.16-77.1099z" fill="url(#F)"/><path d="m-427.008 335.223c-65.218-17.475-131.169-30.686-196.381-39.36-42.411-5.572-85.483-9.402-127.1-13.085-40.268-3.563-81.932-7.275-123.274-12.561-123.873-16.059-243.207-68.245-358.607-118.702-56.89-24.874-115.69-50.588-174.23-71.6156l-.4.6886c58.47 20.99 117.27 46.704 174.11 71.565 115.54 50.53 235.001 102.767 359.151 118.848 41.394 5.3 83.064 8.997 123.357 12.567 41.612 3.698 84.632 7.515 127.016 13.08 72.256 9.592 145.434 24.792 217.513 45.194 84.725 24.016 170.605 56.277 262.526 98.646 42.427 19.563 82.8349 39.225 120.1255 58.449 20.88708 10.766 42.2089 22.703 67.0685 37.576 46.9287 28.065 91.834 57.87 135.246 86.705 6.371 4.231 12.768 8.469 19.186 12.73 73.009 48.158 163.899 108.11 271.668 156.159 10.209 4.551 20.59 9.01 30.872 13.252 38.938 16.052 80.406 30.033 119.881 40.438 63.901 16.828 118.109 23.78 165.654 21.22 12.278-.67 24.215-2.018 35.491-4.028 33.395-5.92 66.456-13.399 98.42-20.653 13.125-2.967 26.689-6.057 40.054-8.977 55.491-12.067 115.831-23.786 181.271-27.722 2.7-.161 5.38-.305 8.12-.436 91.87-4.308 227.21 7.458 331.58 53.423l.53-.638c-104.68-46.096-240.36-57.921-332.47-53.59-2.74.131-5.45.269-8.11.436-65.57 3.956-125.99 15.67-181.519 27.762-13.365 2.919-26.949 5.987-40.079 8.97-31.96 7.238-65 14.74-98.358 20.635-11.213 1.992-23.093 3.339-35.309 3.99-47.367 2.539-101.356-4.389-165.075-21.169-39.371-10.376-80.76-24.336-119.625-40.352-10.256-4.235-20.617-8.67-30.825-13.221-107.645-47.999-198.467-107.898-271.429-156.026-6.397-4.238-12.794-8.477-19.16-12.724-43.438-28.841-88.364-58.669-135.3188-86.741-24.8857-14.88-46.2283-26.84-67.1623-37.636-37.3167-19.231-77.7509-38.9-120.1979-58.486-92.02-42.412-177.999-74.717-262.803-98.754-7.134-2.015-14.283-3.983-21.423-5.896z" fill="url(#G)"/><path d="m-368.201 334.728c-84.265-22.579-169.548-37.978-254.685-45.94-41.966-3.914-84.345-6.072-125.351-8.173-42.212-2.148-85.842-4.382-129.038-8.522-130.075-12.499-253.485-67.47-372.825-120.645-51.62-22.994-105.02-46.776-158.07-66.7143l-.43.6815c53.01 19.9088 106.36 43.6768 157.95 66.6638 119.47 53.225 243.02 108.27 373.43 120.79 43.249 4.154 86.884 6.372 129.121 8.526 40.955 2.088 83.333 4.245 125.268 8.169 120.91 11.305 242.12 37.628 360.32 78.256 118.175 40.62 225.3898 92.826 318.6974 155.154 46.4096 31.003 90.5536 64.132 133.2256 96.139 94.883 71.187 193.018 144.801 320.112 197.718 52.428 21.828 108.053 38.375 160.841 47.817 61.862 11.078 116.052 11.923 161.077 2.497 33.319-6.977 66.163-15.172 97.901-23.109 68.009-16.977 138.317-34.548 216.687-40.847 142.27-11.447 270.53 19.705 337.14 49.846l.55-.631c-45.69-20.679-103.49-36.149-167.12-44.726-57.11-7.696-117.82-9.579-170.95-5.301-78.5 6.319-148.859 23.892-216.931 40.887-31.732 7.921-64.55 16.123-97.838 23.091-44.816 9.395-98.782 8.559-160.399-2.488-52.653-9.423-108.147-25.936-160.424-47.706-126.896-52.829-224.937-126.383-319.753-197.518-42.692-32.03-86.837-65.158-133.2931-96.191-93.4221-62.411-200.7829-114.69-319.1089-155.369-35.121-12.073-70.517-22.888-106.083-32.418z" fill="url(#H)"/></g></svg>