<?xml version="1.0" encoding="UTF-8" standalone="no"?>
<!DOCTYPE svg PUBLIC "-//W3C//DTD SVG 1.1//EN" "http://www.w3.org/Graphics/SVG/1.1/DTD/svg11.dtd">
<svg width="100%" height="100%" viewBox="0 0 15 26" version="1.1" xmlns="http://www.w3.org/2000/svg" xmlns:xlink="http://www.w3.org/1999/xlink" xml:space="preserve" xmlns:serif="http://www.serif.com/" style="fill-rule:evenodd;clip-rule:evenodd;stroke-linejoin:round;stroke-miterlimit:2;">
    <g id="Artboard1" transform="matrix(0.652174,0,0,0.911075,0,0.911075)">
        <rect x="0" y="-1" width="23" height="28" style="fill:none;"/>
        <g transform="matrix(1.53333,0,0,1.0976,-7.66667,-1)">
            <g transform="matrix(1,0,0,1,-0.0227821,-0.829227)">
                <path d="M8.884,23.638C9.599,23.638 10.179,24.217 10.179,24.932C10.179,25.647 9.599,26.227 8.884,26.227C8.169,26.227 7.589,25.647 7.589,24.932C7.589,24.217 8.169,23.638 8.884,23.638Z" style="fill:rgb(176,180,187);fill-opacity:0.39;fill-rule:nonzero;"/>
            </g>
            <g transform="matrix(1,0,0,1,-0.0227821,-0.829227)">
                <path d="M16.473,23.638C17.188,23.638 17.768,24.217 17.768,24.932C17.768,25.647 17.188,26.227 16.473,26.227C15.758,26.227 15.179,25.647 15.179,24.932C15.179,24.217 15.758,23.638 16.473,23.638Z" style="fill:rgb(176,180,187);fill-opacity:0.39;fill-rule:nonzero;"/>
            </g>
            <g transform="matrix(1,0,0,1,-0.0227821,-0.829227)">
                <path d="M8.884,16.048C9.599,16.048 10.179,16.628 10.179,17.343C10.179,18.058 9.599,18.638 8.884,18.638C8.169,18.638 7.589,18.058 7.589,17.343C7.589,16.628 8.169,16.048 8.884,16.048Z" style="fill:rgb(176,180,187);fill-opacity:0.39;fill-rule:nonzero;"/>
            </g>
            <g transform="matrix(1,0,0,1,-0.0227821,-0.829227)">
                <path d="M16.473,16.048C17.188,16.048 17.768,16.628 17.768,17.343C17.768,18.058 17.188,18.638 16.473,18.638C15.758,18.638 15.179,18.058 15.179,17.343C15.179,16.628 15.758,16.048 16.473,16.048Z" style="fill:rgb(176,180,187);fill-opacity:0.39;fill-rule:nonzero;"/>
            </g>
            <g transform="matrix(1,0,0,1,-0.0227821,-0.829227)">
                <path d="M8.884,8.459C9.599,8.459 10.179,9.039 10.179,9.754C10.179,10.469 9.599,11.048 8.884,11.048C8.169,11.048 7.589,10.469 7.589,9.754C7.589,9.039 8.169,8.459 8.884,8.459Z" style="fill:rgb(176,180,187);fill-opacity:0.39;fill-rule:nonzero;"/>
            </g>
            <g transform="matrix(1,0,0,1,-0.0227821,-0.829227)">
                <path d="M16.473,8.459C17.188,8.459 17.768,9.039 17.768,9.754C17.768,10.469 17.188,11.048 16.473,11.048C15.758,11.048 15.179,10.469 15.179,9.754C15.179,9.039 15.758,8.459 16.473,8.459Z" style="fill:rgb(176,180,187);fill-opacity:0.39;fill-rule:nonzero;"/>
            </g>
            <g transform="matrix(1,0,0,1,-0.0227821,-0.829227)">
                <path d="M8.884,0.87C9.599,0.87 10.179,1.449 10.179,2.164C10.179,2.879 9.599,3.459 8.884,3.459C8.169,3.459 7.589,2.879 7.589,2.164C7.589,1.449 8.169,0.87 8.884,0.87Z" style="fill:rgb(176,180,187);fill-opacity:0.39;fill-rule:nonzero;"/>
            </g>
            <g transform="matrix(1,0,0,1,-0.0227821,-0.829227)">
                <path d="M16.473,0.87C17.188,0.87 17.768,1.449 17.768,2.164C17.768,2.879 17.188,3.459 16.473,3.459C15.758,3.459 15.179,2.879 15.179,2.164C15.179,1.449 15.758,0.87 16.473,0.87Z" style="fill:rgb(176,180,187);fill-opacity:0.39;fill-rule:nonzero;"/>
            </g>
        </g>
    </g>
</svg>
