<svg fill="none" height="42" viewBox="0 0 42 42" width="42" xmlns="http://www.w3.org/2000/svg" xmlns:xlink="http://www.w3.org/1999/xlink"><clipPath id="a"><path d="m6 6h30v30h-30z"/></clipPath><rect fill="#f9fafb" height="42" rx="6.38009" width="42"/><g clip-path="url(#a)" fill="#d1d5db"><path d="m-.739279 3.31225c0 .55821-.452521 1.01073-1.010731 1.01073s-1.01073-.45252-1.01073-1.01073c0-.55822.45252-1.01074 1.01073-1.01074s1.010731.45252 1.010731 1.01074z"/><path d="m4.31438 3.31225c0 .55821-.45252 1.01073-1.01073 1.01073s-1.01073-.45252-1.01073-1.01073c0-.55822.45252-1.01074 1.01073-1.01074s1.01073.45252 1.01073 1.01074z"/><path d="m9.36804 3.31225c0 .55821-.45252 1.01073-1.01073 1.01073s-1.01073-.45252-1.01073-1.01073c0-.55822.45252-1.01074 1.01073-1.01074s1.01073.45252 1.01073 1.01074z"/><path d="m14.4217 3.31225c0 .55821-.4525 1.01073-1.0107 1.01073s-1.0108-.45252-1.0108-1.01073c0-.55822.4526-1.01074 1.0108-1.01074s1.0107.45252 1.0107 1.01074z"/><path d="m19.4754 3.31225c0 .55821-.4526 1.01073-1.0108 1.01073s-1.0107-.45252-1.0107-1.01073c0-.55822.4525-1.01074 1.0107-1.01074s1.0108.45252 1.0108 1.01074z"/><path d="m24.529 3.31225c0 .55821-.4525 1.01073-1.0107 1.01073s-1.0107-.45252-1.0107-1.01073c0-.55822.4525-1.01074 1.0107-1.01074s1.0107.45252 1.0107 1.01074z"/><path d="m29.5827 3.31225c0 .55821-.4525 1.01073-1.0108 1.01073-.5582 0-1.0107-.45252-1.0107-1.01073 0-.55822.4525-1.01074 1.0107-1.01074.5583 0 1.0108.45252 1.0108 1.01074z"/><path d="m34.6363 3.31225c0 .55821-.4525 1.01073-1.0107 1.01073s-1.0107-.45252-1.0107-1.01073c0-.55822.4525-1.01074 1.0107-1.01074s1.0107.45252 1.0107 1.01074z"/><path d="m39.69 3.31225c0 .55821-.4525 1.01073-1.0107 1.01073s-1.0108-.45252-1.0108-1.01073c0-.55822.4526-1.01074 1.0108-1.01074s1.0107.45252 1.0107 1.01074z"/><path d="m-.739279 8.3659c0 .55822-.452521 1.01074-1.010731 1.01074s-1.01073-.45252-1.01073-1.01074c0-.55821.45252-1.01073 1.01073-1.01073s1.010731.45252 1.010731 1.01073z"/><path d="m4.31438 8.3659c0 .55822-.45252 1.01074-1.01073 1.01074s-1.01073-.45252-1.01073-1.01074c0-.55821.45252-1.01073 1.01073-1.01073s1.01073.45252 1.01073 1.01073z"/><path d="m9.36804 8.3659c0 .55822-.45252 1.01074-1.01073 1.01074s-1.01073-.45252-1.01073-1.01074c0-.55821.45252-1.01073 1.01073-1.01073s1.01073.45252 1.01073 1.01073z"/><path d="m14.4217 8.3659c0 .55822-.4525 1.01074-1.0107 1.01074s-1.0108-.45252-1.0108-1.01074c0-.55821.4526-1.01073 1.0108-1.01073s1.0107.45252 1.0107 1.01073z"/><path d="m19.4754 8.3659c0 .55822-.4526 1.01074-1.0108 1.01074s-1.0107-.45252-1.0107-1.01074c0-.55821.4525-1.01073 1.0107-1.01073s1.0108.45252 1.0108 1.01073z"/><path d="m24.529 8.3659c0 .55822-.4525 1.01074-1.0107 1.01074s-1.0107-.45252-1.0107-1.01074c0-.55821.4525-1.01073 1.0107-1.01073s1.0107.45252 1.0107 1.01073z"/><path d="m29.5827 8.3659c0 .55822-.4525 1.01074-1.0108 1.01074-.5582 0-1.0107-.45252-1.0107-1.01074 0-.55821.4525-1.01073 1.0107-1.01073.5583 0 1.0108.45252 1.0108 1.01073z"/><path d="m34.6363 8.3659c0 .55822-.4525 1.01074-1.0107 1.01074s-1.0107-.45252-1.0107-1.01074c0-.55821.4525-1.01073 1.0107-1.01073s1.0107.45252 1.0107 1.01073z"/><path d="m39.69 8.3659c0 .55822-.4525 1.01074-1.0107 1.01074s-1.0108-.45252-1.0108-1.01074c0-.55821.4526-1.01073 1.0108-1.01073s1.0107.45252 1.0107 1.01073z"/><path d="m-.739279 13.4196c0 .5582-.452521 1.0107-1.010731 1.0107s-1.01073-.4525-1.01073-1.0107.45252-1.0108 1.01073-1.0108 1.010731.4526 1.010731 1.0108z"/><path d="m4.31438 13.4196c0 .5582-.45252 1.0107-1.01073 1.0107s-1.01073-.4525-1.01073-1.0107.45252-1.0108 1.01073-1.0108 1.01073.4526 1.01073 1.0108z"/><path d="m9.36804 13.4196c0 .5582-.45252 1.0107-1.01073 1.0107s-1.01073-.4525-1.01073-1.0107.45252-1.0108 1.01073-1.0108 1.01073.4526 1.01073 1.0108z"/><path d="m14.4217 13.4196c0 .5582-.4525 1.0107-1.0107 1.0107s-1.0108-.4525-1.0108-1.0107.4526-1.0108 1.0108-1.0108 1.0107.4526 1.0107 1.0108z"/><path d="m19.4754 13.4196c0 .5582-.4526 1.0107-1.0108 1.0107s-1.0107-.4525-1.0107-1.0107.4525-1.0108 1.0107-1.0108 1.0108.4526 1.0108 1.0108z"/><path d="m24.529 13.4196c0 .5582-.4525 1.0107-1.0107 1.0107s-1.0107-.4525-1.0107-1.0107.4525-1.0108 1.0107-1.0108 1.0107.4526 1.0107 1.0108z"/><path d="m29.5827 13.4196c0 .5582-.4525 1.0107-1.0108 1.0107-.5582 0-1.0107-.4525-1.0107-1.0107s.4525-1.0108 1.0107-1.0108c.5583 0 1.0108.4526 1.0108 1.0108z"/><path d="m34.6363 13.4196c0 .5582-.4525 1.0107-1.0107 1.0107s-1.0107-.4525-1.0107-1.0107.4525-1.0108 1.0107-1.0108 1.0107.4526 1.0107 1.0108z"/><path d="m39.69 13.4196c0 .5582-.4525 1.0107-1.0107 1.0107s-1.0108-.4525-1.0108-1.0107.4526-1.0108 1.0108-1.0108 1.0107.4526 1.0107 1.0108z"/><path d="m-.739279 18.4732c0 .5582-.452521 1.0108-1.010731 1.0108s-1.01073-.4526-1.01073-1.0108.45252-1.0107 1.01073-1.0107 1.010731.4525 1.010731 1.0107z"/><path d="m4.31438 18.4732c0 .5582-.45252 1.0108-1.01073 1.0108s-1.01073-.4526-1.01073-1.0108.45252-1.0107 1.01073-1.0107 1.01073.4525 1.01073 1.0107z"/><path d="m9.36804 18.4732c0 .5582-.45252 1.0108-1.01073 1.0108s-1.01073-.4526-1.01073-1.0108.45252-1.0107 1.01073-1.0107 1.01073.4525 1.01073 1.0107z"/><path d="m14.4217 18.4732c0 .5582-.4525 1.0108-1.0107 1.0108s-1.0108-.4526-1.0108-1.0108.4526-1.0107 1.0108-1.0107 1.0107.4525 1.0107 1.0107z"/><path d="m19.4754 18.4732c0 .5582-.4526 1.0108-1.0108 1.0108s-1.0107-.4526-1.0107-1.0108.4525-1.0107 1.0107-1.0107 1.0108.4525 1.0108 1.0107z"/><path d="m24.529 18.4732c0 .5582-.4525 1.0108-1.0107 1.0108s-1.0107-.4526-1.0107-1.0108.4525-1.0107 1.0107-1.0107 1.0107.4525 1.0107 1.0107z"/><path d="m29.5827 18.4732c0 .5582-.4525 1.0108-1.0108 1.0108-.5582 0-1.0107-.4526-1.0107-1.0108s.4525-1.0107 1.0107-1.0107c.5583 0 1.0108.4525 1.0108 1.0107z"/><path d="m34.6363 18.4732c0 .5582-.4525 1.0108-1.0107 1.0108s-1.0107-.4526-1.0107-1.0108.4525-1.0107 1.0107-1.0107 1.0107.4525 1.0107 1.0107z"/><path d="m39.69 18.4732c0 .5582-.4525 1.0108-1.0107 1.0108s-1.0108-.4526-1.0108-1.0108.4526-1.0107 1.0108-1.0107 1.0107.4525 1.0107 1.0107z"/><path d="m-.739279 23.5269c0 .5582-.452521 1.0107-1.010731 1.0107s-1.01073-.4525-1.01073-1.0107.45252-1.0107 1.01073-1.0107 1.010731.4525 1.010731 1.0107z"/><path d="m4.31438 23.5269c0 .5582-.45252 1.0107-1.01073 1.0107s-1.01073-.4525-1.01073-1.0107.45252-1.0107 1.01073-1.0107 1.01073.4525 1.01073 1.0107z"/><path d="m9.36804 23.5269c0 .5582-.45252 1.0107-1.01073 1.0107s-1.01073-.4525-1.01073-1.0107.45252-1.0107 1.01073-1.0107 1.01073.4525 1.01073 1.0107z"/><path d="m14.4217 23.5269c0 .5582-.4525 1.0107-1.0107 1.0107s-1.0108-.4525-1.0108-1.0107.4526-1.0107 1.0108-1.0107 1.0107.4525 1.0107 1.0107z"/><path d="m19.4754 23.5269c0 .5582-.4526 1.0107-1.0108 1.0107s-1.0107-.4525-1.0107-1.0107.4525-1.0107 1.0107-1.0107 1.0108.4525 1.0108 1.0107z"/><path d="m24.529 23.5269c0 .5582-.4525 1.0107-1.0107 1.0107s-1.0107-.4525-1.0107-1.0107.4525-1.0107 1.0107-1.0107 1.0107.4525 1.0107 1.0107z"/><path d="m29.5827 23.5269c0 .5582-.4525 1.0107-1.0108 1.0107-.5582 0-1.0107-.4525-1.0107-1.0107s.4525-1.0107 1.0107-1.0107c.5583 0 1.0108.4525 1.0108 1.0107z"/><path d="m34.6363 23.5269c0 .5582-.4525 1.0107-1.0107 1.0107s-1.0107-.4525-1.0107-1.0107.4525-1.0107 1.0107-1.0107 1.0107.4525 1.0107 1.0107z"/><path d="m39.69 23.5269c0 .5582-.4525 1.0107-1.0107 1.0107s-1.0108-.4525-1.0108-1.0107.4526-1.0107 1.0108-1.0107 1.0107.4525 1.0107 1.0107z"/><path d="m-.739279 28.5805c0 .5583-.452521 1.0108-1.010731 1.0108s-1.01073-.4525-1.01073-1.0108c0-.5582.45252-1.0107 1.01073-1.0107s1.010731.4525 1.010731 1.0107z"/><path d="m4.31438 28.5805c0 .5583-.45252 1.0108-1.01073 1.0108s-1.01073-.4525-1.01073-1.0108c0-.5582.45252-1.0107 1.01073-1.0107s1.01073.4525 1.01073 1.0107z"/><path d="m9.36804 28.5805c0 .5583-.45252 1.0108-1.01073 1.0108s-1.01073-.4525-1.01073-1.0108c0-.5582.45252-1.0107 1.01073-1.0107s1.01073.4525 1.01073 1.0107z"/><path d="m14.4217 28.5805c0 .5583-.4525 1.0108-1.0107 1.0108s-1.0108-.4525-1.0108-1.0108c0-.5582.4526-1.0107 1.0108-1.0107s1.0107.4525 1.0107 1.0107z"/><path d="m19.4754 28.5805c0 .5583-.4526 1.0108-1.0108 1.0108s-1.0107-.4525-1.0107-1.0108c0-.5582.4525-1.0107 1.0107-1.0107s1.0108.4525 1.0108 1.0107z"/><path d="m24.529 28.5805c0 .5583-.4525 1.0108-1.0107 1.0108s-1.0107-.4525-1.0107-1.0108c0-.5582.4525-1.0107 1.0107-1.0107s1.0107.4525 1.0107 1.0107z"/><path d="m29.5827 28.5805c0 .5583-.4525 1.0108-1.0108 1.0108-.5582 0-1.0107-.4525-1.0107-1.0108 0-.5582.4525-1.0107 1.0107-1.0107.5583 0 1.0108.4525 1.0108 1.0107z"/><path d="m34.6363 28.5805c0 .5583-.4525 1.0108-1.0107 1.0108s-1.0107-.4525-1.0107-1.0108c0-.5582.4525-1.0107 1.0107-1.0107s1.0107.4525 1.0107 1.0107z"/><path d="m39.69 28.5805c0 .5583-.4525 1.0108-1.0107 1.0108s-1.0108-.4525-1.0108-1.0108c0-.5582.4526-1.0107 1.0108-1.0107s1.0107.4525 1.0107 1.0107z"/><path d="m-.739279 33.6342c0 .5582-.452521 1.0107-1.010731 1.0107s-1.01073-.4525-1.01073-1.0107.45252-1.0107 1.01073-1.0107 1.010731.4525 1.010731 1.0107z"/><path d="m4.31438 33.6342c0 .5582-.45252 1.0107-1.01073 1.0107s-1.01073-.4525-1.01073-1.0107.45252-1.0107 1.01073-1.0107 1.01073.4525 1.01073 1.0107z"/><path d="m9.36804 33.6342c0 .5582-.45252 1.0107-1.01073 1.0107s-1.01073-.4525-1.01073-1.0107.45252-1.0107 1.01073-1.0107 1.01073.4525 1.01073 1.0107z"/><path d="m14.4217 33.6342c0 .5582-.4525 1.0107-1.0107 1.0107s-1.0108-.4525-1.0108-1.0107.4526-1.0107 1.0108-1.0107 1.0107.4525 1.0107 1.0107z"/><path d="m19.4754 33.6342c0 .5582-.4526 1.0107-1.0108 1.0107s-1.0107-.4525-1.0107-1.0107.4525-1.0107 1.0107-1.0107 1.0108.4525 1.0108 1.0107z"/><path d="m24.529 33.6342c0 .5582-.4525 1.0107-1.0107 1.0107s-1.0107-.4525-1.0107-1.0107.4525-1.0107 1.0107-1.0107 1.0107.4525 1.0107 1.0107z"/><path d="m29.5827 33.6342c0 .5582-.4525 1.0107-1.0108 1.0107-.5582 0-1.0107-.4525-1.0107-1.0107s.4525-1.0107 1.0107-1.0107c.5583 0 1.0108.4525 1.0108 1.0107z"/><path d="m34.6363 33.6342c0 .5582-.4525 1.0107-1.0107 1.0107s-1.0107-.4525-1.0107-1.0107.4525-1.0107 1.0107-1.0107 1.0107.4525 1.0107 1.0107z"/><path d="m39.69 33.6342c0 .5582-.4525 1.0107-1.0107 1.0107s-1.0108-.4525-1.0108-1.0107.4526-1.0107 1.0108-1.0107 1.0107.4525 1.0107 1.0107z"/><path d="m-.739279 38.6879c0 .5582-.452521 1.0107-1.010731 1.0107s-1.01073-.4525-1.01073-1.0107c0-.5583.45252-1.0108 1.01073-1.0108s1.010731.4525 1.010731 1.0108z"/><path d="m4.31438 38.6879c0 .5582-.45252 1.0107-1.01073 1.0107s-1.01073-.4525-1.01073-1.0107c0-.5583.45252-1.0108 1.01073-1.0108s1.01073.4525 1.01073 1.0108z"/><path d="m9.36804 38.6879c0 .5582-.45252 1.0107-1.01073 1.0107s-1.01073-.4525-1.01073-1.0107c0-.5583.45252-1.0108 1.01073-1.0108s1.01073.4525 1.01073 1.0108z"/><path d="m14.4217 38.6879c0 .5582-.4525 1.0107-1.0107 1.0107s-1.0108-.4525-1.0108-1.0107c0-.5583.4526-1.0108 1.0108-1.0108s1.0107.4525 1.0107 1.0108z"/><path d="m19.4754 38.6879c0 .5582-.4526 1.0107-1.0108 1.0107s-1.0107-.4525-1.0107-1.0107c0-.5583.4525-1.0108 1.0107-1.0108s1.0108.4525 1.0108 1.0108z"/><path d="m24.529 38.6879c0 .5582-.4525 1.0107-1.0107 1.0107s-1.0107-.4525-1.0107-1.0107c0-.5583.4525-1.0108 1.0107-1.0108s1.0107.4525 1.0107 1.0108z"/><path d="m29.5827 38.6879c0 .5582-.4525 1.0107-1.0108 1.0107-.5582 0-1.0107-.4525-1.0107-1.0107 0-.5583.4525-1.0108 1.0107-1.0108.5583 0 1.0108.4525 1.0108 1.0108z"/><path d="m34.6363 38.6879c0 .5582-.4525 1.0107-1.0107 1.0107s-1.0107-.4525-1.0107-1.0107c0-.5583.4525-1.0108 1.0107-1.0108s1.0107.4525 1.0107 1.0108z"/><path d="m39.69 38.6879c0 .5582-.4525 1.0107-1.0107 1.0107s-1.0108-.4525-1.0108-1.0107c0-.5583.4526-1.0108 1.0108-1.0108s1.0107.4525 1.0107 1.0108z"/><rect height="65.2174" rx="6" width="65.2174" x="15.7822" y="15.7826"/></g></svg>
