<svg fill="none" height="226" viewBox="0 0 1038 226" width="1038" xmlns="http://www.w3.org/2000/svg" xmlns:xlink="http://www.w3.org/1999/xlink"><linearGradient id="a" gradientUnits="userSpaceOnUse" x1="-.000013" x2="278.92" y1="113.01" y2="113.01"><stop offset="0" stop-color="#0497dc"/><stop offset=".51" stop-color="#465ce0"/><stop offset="1" stop-color="#984ad7"/></linearGradient><clipPath id="b"><path d="m0 0h1038v226h-1038z"/></clipPath><g clip-path="url(#b)"><path d="m242.02 177.64 12.33 29.09c2.14 5.05 1.16 11.11-2.96 15.23-2.71 2.71-6.26 4.06-9.81 4.06s-7.1-1.35-9.81-4.06l-11.72-11.72-44.24-44.25c-2.05-2.05-.6-5.54 2.3-5.54h25.14c.15 0 .3-.02.46-.02 26.48 0 47.96-21.79 47.46-48.38-.49-25.99-22.26-46.55-48.25-46.55h-53.65c-.86 0-1.69-.34-2.3-.95l-21.26-21.26c-2.05-2.05-.6-5.54 2.3-5.54h74.66c41.74 0 76.62 34.15 76.25 75.89-.24 27.21-15 51-36.89 64.02zm-166.01-17.2c-25.99 0-47.76-20.56-48.25-46.55s20.98-48.38 47.46-48.38c.16 0 .33-.02.49-.02h25.12c2.89 0 4.34-3.5 2.3-5.54l-46.51-46.51h.01l-9.16-9.18001c-5.23-5.230002-13.74-5.79-19.28-.88-4.65 4.11-5.84 10.52001-3.59 15.82001l12.33 29.08c-21.91 13.01-36.680013 36.8-36.9300128 64.01-.3700002 41.74 34.5100128 75.9 76.2500128 75.9h74.67c2.89 0 4.34-3.5 2.3-5.54l-21.26-21.26c-.61-.61-1.44-.95-2.3-.95h-53.66zm13.57-72.09c-13.27 0-24.03 10.76-24.03 24.03s10.76 24.03 24.03 24.03 24.03-10.76 24.03-24.03-10.76-24.03-24.03-24.03zm98.2-.01c-13.27 0-24.03 10.76-24.03 24.03s10.76 24.03 24.03 24.03 24.03-10.76 24.03-24.03-10.76-24.03-24.03-24.03z" fill="url(#a)"/><path d="m411.59 50.5c0 1.76-.07 3.24-.22 4.44s-.38 2.15-.7 2.86-.69 1.23-1.1 1.58-.88.53-1.41.53h-37.18v30.59h34.89c.53 0 1 .15 1.41.44s.78.79 1.1 1.49.56 1.64.7 2.81c.15 1.17.22 2.64.22 4.39s-.07 3.22-.22 4.39-.38 2.14-.7 2.9-.69 1.3-1.1 1.63c-.41.32-.88.48-1.41.48h-34.89v42.36c0 .65-.18 1.2-.53 1.67s-.98.87-1.89 1.19-2.1.57-3.56.75c-1.47.18-3.34.26-5.62.26s-4.09-.09-5.58-.26-2.68-.42-3.56-.75c-.88-.32-1.51-.72-1.89-1.19s-.57-1.02-.57-1.67v-103.08c0-2.58.66-4.44 1.98-5.58s2.94-1.71 4.88-1.71h53.53c.53 0 1 .16 1.41.48s.78.85 1.1 1.58.56 1.71.7 2.94.22 2.72.22 4.48zm39.64 101.25c0 .59-.18 1.1-.53 1.54s-.95.81-1.8 1.1-1.98.51-3.38.66c-1.41.15-3.19.22-5.36.22s-3.96-.07-5.36-.22c-1.41-.15-2.54-.37-3.38-.66-.85-.29-1.45-.66-1.8-1.1s-.53-.95-.53-1.54v-115.57c0-.58.18-1.11.53-1.58s.95-.86 1.8-1.19c.85-.32 1.98-.57 3.38-.75s3.19-.26 5.36-.26 3.96.09 5.36.26 2.53.43 3.38.75 1.45.72 1.8 1.19.53 1 .53 1.58v115.58zm101.34-39.99c0 6.68-.88 12.77-2.64 18.28s-4.42 10.25-8 14.24c-3.57 3.99-8.06 7.06-13.45 9.23s-11.69 3.25-18.9 3.25-13.04-.97-18.19-2.9c-5.16-1.93-9.43-4.75-12.83-8.44s-5.92-8.23-7.56-13.62-2.46-11.54-2.46-18.46.89-12.79 2.68-18.33 4.47-10.28 8.04-14.24 8.04-7.02 13.4-9.18c5.36-2.17 11.65-3.25 18.85-3.25s13.12.95 18.28 2.86 9.42 4.7 12.79 8.39 5.87 8.23 7.51 13.62 2.46 11.57 2.46 18.54zm-22.77.88c0-3.87-.31-7.43-.92-10.68s-1.66-6.08-3.12-8.48-3.41-4.28-5.84-5.62c-2.43-1.35-5.49-2.02-9.18-2.02-3.28 0-6.15.6-8.61 1.8s-4.48 2.96-6.06 5.27c-1.58 2.32-2.77 5.1-3.56 8.35s-1.19 6.96-1.19 11.12c0 3.87.32 7.43.97 10.68.64 3.25 1.68 6.08 3.12 8.48s3.38 4.26 5.84 5.58 5.51 1.98 9.14 1.98c3.34 0 6.24-.6 8.7-1.8s4.48-2.94 6.06-5.23 2.75-5.05 3.52-8.31c.76-3.25 1.14-6.96 1.14-11.12zm159.88-39.46c0 .65-.09 1.44-.26 2.37-.18.94-.5 2.29-.97 4.04l-20.92 70.93c-.29 1-.67 1.8-1.14 2.42s-1.19 1.1-2.15 1.45-2.34.58-4.13.7-4.12.18-6.99.18-5.22-.07-7.03-.22c-1.82-.15-3.24-.4-4.26-.75-1.03-.35-1.77-.83-2.24-1.45s-.82-1.39-1.05-2.33l-13.18-47.64-.18-.79-.18.79-12.13 47.64c-.23 1-.57 1.8-1.01 2.42s-1.19 1.1-2.24 1.45-2.49.58-4.31.7-4.16.18-7.03.18-5.29-.07-7.08-.22-3.19-.4-4.22-.75-1.77-.83-2.24-1.45-.82-1.39-1.05-2.33l-20.74-70.93c-.53-1.7-.87-3.03-1.01-4-.15-.97-.22-1.77-.22-2.42 0-.58.16-1.1.48-1.54s.91-.79 1.76-1.05 1.99-.45 3.43-.57 3.24-.18 5.41-.18c2.34 0 4.25.06 5.71.18s2.61.32 3.43.62c.82.29 1.39.69 1.71 1.19s.57 1.1.75 1.8l15.56 57.57.18 1.05.18-1.05 14.59-57.57c.18-.7.45-1.3.83-1.8s.95-.89 1.71-1.19c.76-.29 1.83-.5 3.21-.62s3.15-.18 5.32-.18 3.92.07 5.27.22 2.42.35 3.21.62 1.35.62 1.67 1.05c.32.44.57.95.75 1.54l15.64 58.01.26.97.18-1.05 14.94-57.57c.12-.7.35-1.3.7-1.8s.94-.89 1.76-1.19c.82-.29 1.93-.5 3.34-.62s3.19-.18 5.36-.18 3.94.06 5.32.18 2.46.31 3.25.57 1.33.62 1.63 1.05c.29.44.44.95.44 1.54zm89.03 78.57c0 .59-.18 1.1-.53 1.54s-.94.81-1.76 1.1-1.95.51-3.38.66c-1.44.15-3.21.22-5.32.22s-3.97-.07-5.41-.22-2.56-.37-3.38-.66-1.41-.66-1.76-1.1-.53-.95-.53-1.54v-44.74c0-3.81-.28-6.8-.83-8.96-.56-2.17-1.36-4.03-2.42-5.58-1.05-1.55-2.42-2.75-4.09-3.6s-3.62-1.27-5.84-1.27c-2.81 0-5.66 1.03-8.53 3.08s-5.86 5.04-8.96 8.96v52.12c0 .59-.18 1.1-.53 1.54s-.95.81-1.8 1.1-1.98.51-3.38.66c-1.41.15-3.19.22-5.36.22s-3.96-.07-5.36-.22c-1.41-.15-2.54-.37-3.38-.66-.85-.29-1.45-.66-1.8-1.1s-.53-.95-.53-1.54v-115.58c0-.58.18-1.11.53-1.58s.95-.86 1.8-1.19c.85-.32 1.98-.57 3.38-.75s3.19-.26 5.36-.26 3.96.09 5.36.26 2.53.43 3.38.75 1.45.72 1.8 1.19.53 1 .53 1.58v43.33c3.81-3.75 7.69-6.55 11.65-8.39s8.07-2.77 12.35-2.77c5.33 0 9.83.88 13.49 2.64s6.62 4.16 8.88 7.21c2.25 3.05 3.88 6.61 4.88 10.68s1.49 9.01 1.49 14.81v48.08zm96.06 0c0 .59-.15 1.1-.44 1.54s-.81.81-1.54 1.1-1.7.51-2.9.66-2.71.22-4.53.22c-1.93 0-3.5-.07-4.7-.22s-2.15-.37-2.86-.66c-.7-.29-1.2-.66-1.49-1.1s-.44-.95-.44-1.54v-9.05c-4.34 4.69-8.75 8.2-13.23 10.55s-9.13 3.52-13.93 3.52c-5.39 0-9.92-.88-13.58-2.64s-6.62-4.16-8.88-7.21-3.87-6.58-4.83-10.59c-.97-4.01-1.45-9.01-1.45-14.99v-47.99c0-.58.16-1.1.48-1.54s.91-.8 1.76-1.1c.85-.29 1.99-.51 3.43-.66s3.21-.22 5.32-.22 3.96.07 5.36.22c1.41.15 2.53.37 3.38.66s1.45.66 1.8 1.1.53.95.53 1.54v44.3c0 4.1.26 7.24.79 9.4.53 2.17 1.33 4.03 2.42 5.58 1.08 1.55 2.46 2.75 4.13 3.6s3.62 1.27 5.84 1.27c2.81 0 5.64-1.02 8.48-3.08 2.84-2.05 5.87-5.04 9.1-8.96v-52.12c0-.58.16-1.1.48-1.54s.91-.8 1.76-1.1c.85-.29 1.98-.51 3.38-.66 1.41-.15 3.19-.22 5.36-.22s3.96.07 5.36.22c1.41.15 2.52.37 3.34.66s1.41.66 1.76 1.1.53.95.53 1.54v78.4zm97.12 0c0 .59-.18 1.1-.53 1.54s-.94.81-1.76 1.1-1.95.51-3.38.66c-1.44.15-3.21.22-5.32.22s-3.97-.07-5.41-.22-2.56-.37-3.38-.66-1.41-.66-1.76-1.1-.53-.95-.53-1.54v-44.74c0-3.81-.28-6.8-.83-8.96-.56-2.17-1.36-4.03-2.42-5.58-1.05-1.55-2.42-2.75-4.09-3.6s-3.62-1.27-5.84-1.27c-2.81 0-5.66 1.03-8.53 3.08s-5.86 5.04-8.96 8.96v52.12c0 .59-.18 1.1-.53 1.54s-.95.81-1.8 1.1-1.98.51-3.38.66c-1.41.15-3.19.22-5.36.22s-3.96-.07-5.36-.22c-1.41-.15-2.54-.37-3.38-.66-.85-.29-1.45-.66-1.8-1.1s-.53-.95-.53-1.54v-78.4c0-.58.15-1.1.44-1.54s.82-.8 1.58-1.1c.76-.29 1.74-.51 2.94-.66s2.71-.22 4.53-.22 3.43.07 4.66.22 2.18.37 2.86.66c.67.29 1.16.66 1.45 1.1s.44.95.44 1.54v9.05c4.34-4.69 8.75-8.2 13.23-10.55 4.48-2.34 9.15-3.52 14.02-3.52 5.33 0 9.83.88 13.49 2.64s6.62 4.15 8.88 7.16c2.25 3.02 3.88 6.55 4.88 10.59s1.49 8.91 1.49 14.59v48.43zm66.45-7.73c0 2.58-.16 4.56-.48 5.93-.32 1.38-.75 2.34-1.27 2.9-.53.56-1.3 1.05-2.33 1.49s-2.23.82-3.6 1.14c-1.38.32-2.87.57-4.48.75s-3.24.26-4.88.26c-4.39 0-8.2-.56-11.43-1.67-3.22-1.11-5.89-2.83-8-5.14s-3.66-5.23-4.66-8.75-1.49-7.67-1.49-12.48v-40.17h-9.4c-1.11 0-1.96-.69-2.55-2.07s-.88-3.68-.88-6.9c0-1.7.07-3.13.22-4.31.15-1.17.37-2.09.66-2.77.29-.67.66-1.16 1.1-1.45s.95-.44 1.54-.44h9.32v-17.49c0-.58.16-1.11.48-1.58s.91-.86 1.76-1.19c.85-.32 1.99-.56 3.43-.7 1.44-.15 3.21-.22 5.32-.22s3.97.07 5.41.22 2.56.38 3.38.7 1.41.72 1.76 1.19.53 1 .53 1.58v17.49h17.05c.58 0 1.1.15 1.54.44s.8.78 1.1 1.45c.29.67.51 1.6.66 2.77s.22 2.61.22 4.31c0 3.22-.29 5.52-.88 6.9s-1.44 2.07-2.55 2.07h-17.14v36.83c0 4.28.67 7.49 2.02 9.62 1.35 2.14 3.75 3.21 7.21 3.21 1.17 0 2.23-.1 3.16-.31.94-.2 1.77-.44 2.5-.7s1.35-.5 1.85-.7.95-.31 1.36-.31c.35 0 .69.1 1.01.31s.57.62.75 1.23.34 1.45.48 2.5c.15 1.05.22 2.4.22 4.04z" fill="#121518"/></g></svg>