<?xml version="1.0" encoding="UTF-8" standalone="no"?>
<!DOCTYPE svg PUBLIC "-//W3C//DTD SVG 1.1//EN" "http://www.w3.org/Graphics/SVG/1.1/DTD/svg11.dtd">
<svg width="100%" height="100%" viewBox="0 0 1056 226" version="1.1" xmlns="http://www.w3.org/2000/svg" xmlns:xlink="http://www.w3.org/1999/xlink" xml:space="preserve" xmlns:serif="http://www.serif.com/" style="fill-rule:evenodd;clip-rule:evenodd;stroke-linejoin:round;stroke-miterlimit:2;">
    <g>
        <clipPath id="_clip1">
            <rect x="0" y="0" width="1056" height="226"/>
        </clipPath>
        <g clip-path="url(#_clip1)">
            <path d="M36.9,177.64L24.57,206.73C22.43,211.78 23.41,217.84 27.53,221.96C30.24,224.67 33.79,226.02 37.34,226.02C40.89,226.02 44.44,224.67 47.15,221.96L58.87,210.24L103.11,165.99C105.16,163.94 103.71,160.45 100.81,160.45L75.67,160.45C75.52,160.45 75.37,160.43 75.21,160.43C48.73,160.43 27.25,138.64 27.75,112.05C28.24,86.06 50.01,65.5 76,65.5L129.65,65.5C130.51,65.5 131.34,65.16 131.95,64.55L153.21,43.29C155.26,41.24 153.81,37.75 150.91,37.75L76.25,37.75C34.51,37.75 -0.37,71.9 -0,113.64C0.24,140.85 15,164.64 36.89,177.66L36.9,177.64ZM202.91,160.44C228.9,160.44 250.67,139.88 251.16,113.89C251.65,87.9 230.18,65.51 203.7,65.51C203.54,65.51 203.37,65.49 203.21,65.49L178.09,65.49C175.2,65.49 173.75,61.99 175.79,59.95L222.3,13.44L222.29,13.44L231.45,4.26C236.68,-0.97 245.19,-1.53 250.73,3.38C255.38,7.49 256.57,13.9 254.32,19.2L241.99,48.28C263.9,61.29 278.67,85.08 278.92,112.29C279.29,154.03 244.41,188.19 202.67,188.19L128,188.19C125.11,188.19 123.66,184.69 125.7,182.65L146.96,161.39C147.57,160.78 148.4,160.44 149.26,160.44L202.92,160.44L202.91,160.44ZM189.34,88.35C202.61,88.35 213.37,99.11 213.37,112.38C213.37,125.65 202.61,136.41 189.34,136.41C176.07,136.41 165.31,125.65 165.31,112.38C165.31,99.11 176.07,88.35 189.34,88.35ZM91.14,88.34C104.41,88.34 115.17,99.1 115.17,112.37C115.17,125.64 104.41,136.4 91.14,136.4C77.87,136.4 67.11,125.64 67.11,112.37C67.11,99.1 77.87,88.34 91.14,88.34Z" style="fill:url(#_Linear2);fill-rule:nonzero;"/>
            <g>
                <path d="M1055.78,162.621C1055.78,165.199 1055.61,167.191 1055.26,168.598C1054.96,169.945 1054.55,170.912 1054.03,171.498C1053.5,172.025 1052.71,172.523 1051.65,172.992C1050.66,173.402 1049.46,173.754 1048.05,174.047C1046.7,174.398 1045.21,174.662 1043.57,174.838C1041.98,175.014 1040.37,175.102 1038.73,175.102C1034.34,175.102 1030.53,174.545 1027.31,173.432C1024.08,172.318 1021.42,170.619 1019.31,168.334C1017.2,165.99 1015.65,163.061 1014.65,159.545C1013.65,156.029 1013.16,151.869 1013.16,147.064L1013.16,106.898L1003.75,106.898C1002.64,106.898 1001.79,106.225 1001.2,104.877C1000.62,103.471 1000.32,101.156 1000.32,97.934C1000.32,96.234 1000.38,94.799 1000.5,93.627C1000.68,92.455 1000.91,91.547 1001.2,90.902C1001.5,90.199 1001.85,89.701 1002.26,89.408C1002.73,89.115 1003.25,88.969 1003.84,88.969L1013.16,88.969L1013.16,71.479C1013.16,70.893 1013.3,70.365 1013.6,69.897C1013.95,69.428 1014.53,69.047 1015.35,68.754C1016.23,68.402 1017.38,68.168 1018.78,68.051C1020.25,67.875 1022.03,67.787 1024.14,67.787C1026.31,67.787 1028.1,67.875 1029.5,68.051C1030.97,68.168 1032.11,68.402 1032.93,68.754C1033.75,69.047 1034.34,69.428 1034.69,69.897C1035.04,70.365 1035.22,70.893 1035.22,71.479L1035.22,88.969L1052.27,88.969C1052.85,88.969 1053.35,89.115 1053.76,89.408C1054.23,89.701 1054.61,90.199 1054.9,90.902C1055.2,91.547 1055.4,92.455 1055.52,93.627C1055.7,94.799 1055.78,96.234 1055.78,97.934C1055.78,101.156 1055.49,103.471 1054.9,104.877C1054.32,106.225 1053.47,106.898 1052.36,106.898L1035.22,106.898L1035.22,143.725C1035.22,148.002 1035.89,151.225 1037.24,153.393C1038.59,155.502 1040.99,156.557 1044.45,156.557C1045.62,156.557 1046.67,156.469 1047.61,156.293C1048.55,156.059 1049.37,155.824 1050.07,155.59C1050.83,155.297 1051.45,155.062 1051.92,154.887C1052.44,154.652 1052.91,154.535 1053.32,154.535C1053.67,154.535 1054,154.652 1054.29,154.887C1054.64,155.062 1054.9,155.473 1055.08,156.117C1055.26,156.703 1055.4,157.523 1055.52,158.578C1055.7,159.633 1055.78,160.98 1055.78,162.621Z" style="fill:white;fill-rule:nonzero;"/>
                <path d="M989.338,170.355C989.338,170.941 989.162,171.469 988.811,171.938C988.459,172.348 987.873,172.699 987.053,172.992C986.232,173.285 985.09,173.49 983.625,173.607C982.219,173.783 980.461,173.871 978.352,173.871C976.184,173.871 974.367,173.783 972.902,173.607C971.496,173.49 970.383,173.285 969.562,172.992C968.742,172.699 968.156,172.348 967.805,171.938C967.453,171.469 967.277,170.941 967.277,170.355L967.277,125.619C967.277,121.811 966.984,118.822 966.398,116.654C965.871,114.486 965.08,112.641 964.025,111.117C962.971,109.535 961.594,108.334 959.895,107.514C958.254,106.635 956.32,106.195 954.094,106.195C951.281,106.195 948.439,107.221 945.568,109.271C942.697,111.322 939.709,114.311 936.604,118.236L936.604,170.355C936.604,170.941 936.428,171.469 936.076,171.938C935.725,172.348 935.109,172.699 934.23,172.992C933.41,173.285 932.297,173.49 930.891,173.607C929.484,173.783 927.697,173.871 925.529,173.871C923.361,173.871 921.574,173.783 920.168,173.607C918.762,173.49 917.619,173.285 916.74,172.992C915.92,172.699 915.334,172.348 914.982,171.938C914.631,171.469 914.455,170.941 914.455,170.355L914.455,91.957C914.455,91.371 914.602,90.873 914.895,90.463C915.188,89.994 915.715,89.613 916.477,89.32C917.238,89.027 918.205,88.822 919.377,88.705C920.607,88.529 922.131,88.441 923.947,88.441C925.822,88.441 927.375,88.529 928.605,88.705C929.836,88.822 930.773,89.027 931.418,89.32C932.121,89.613 932.619,89.994 932.912,90.463C933.205,90.873 933.352,91.371 933.352,91.957L933.352,101.01C937.688,96.322 942.082,92.807 946.535,90.463C951.047,88.119 955.734,86.947 960.598,86.947C965.93,86.947 970.412,87.826 974.045,89.584C977.736,91.342 980.695,93.744 982.922,96.791C985.207,99.779 986.848,103.295 987.844,107.338C988.84,111.381 989.338,116.244 989.338,121.928L989.338,170.355Z" style="fill:white;fill-rule:nonzero;"/>
                <path d="M892.131,170.355C892.131,170.941 891.984,171.469 891.691,171.938C891.398,172.348 890.871,172.699 890.109,172.992C889.406,173.285 888.439,173.49 887.209,173.607C886.037,173.783 884.543,173.871 882.727,173.871C880.793,173.871 879.211,173.783 877.98,173.607C876.809,173.49 875.871,173.285 875.168,172.992C874.465,172.699 873.967,172.348 873.674,171.938C873.381,171.469 873.234,170.941 873.234,170.355L873.234,161.303C868.898,165.99 864.475,169.506 859.963,171.85C855.51,174.193 850.881,175.365 846.076,175.365C840.686,175.365 836.145,174.486 832.453,172.729C828.82,170.971 825.861,168.568 823.576,165.521C821.35,162.475 819.738,158.959 818.742,154.975C817.805,150.932 817.336,145.922 817.336,139.945L817.336,91.957C817.336,91.371 817.482,90.873 817.775,90.463C818.127,89.994 818.713,89.613 819.533,89.32C820.412,89.027 821.555,88.822 822.961,88.705C824.426,88.529 826.213,88.441 828.322,88.441C830.49,88.441 832.277,88.529 833.684,88.705C835.09,88.822 836.203,89.027 837.023,89.32C837.902,89.613 838.518,89.994 838.869,90.463C839.221,90.873 839.396,91.371 839.396,91.957L839.396,136.254C839.396,140.355 839.66,143.49 840.188,145.658C840.715,147.826 841.506,149.701 842.561,151.283C843.674,152.807 845.051,154.008 846.691,154.887C848.391,155.707 850.354,156.117 852.58,156.117C855.393,156.117 858.205,155.092 861.018,153.041C863.889,150.99 866.936,148.002 870.158,144.076L870.158,91.957C870.158,91.371 870.305,90.873 870.598,90.463C870.949,89.994 871.535,89.613 872.355,89.32C873.234,89.027 874.377,88.822 875.783,88.705C877.189,88.529 878.977,88.441 881.145,88.441C883.312,88.441 885.1,88.529 886.506,88.705C887.912,88.822 889.025,89.027 889.846,89.32C890.666,89.613 891.252,89.994 891.604,90.463C891.955,90.873 892.131,91.371 892.131,91.957L892.131,170.355Z" style="fill:white;fill-rule:nonzero;"/>
                <path d="M794.309,170.18C794.309,170.766 794.104,171.293 793.693,171.762C793.342,172.23 792.727,172.611 791.848,172.904C790.969,173.197 789.797,173.432 788.332,173.607C786.867,173.783 785.021,173.871 782.795,173.871C780.51,173.871 778.605,173.783 777.082,173.607C775.617,173.432 774.445,173.197 773.566,172.904C772.746,172.611 772.131,172.23 771.721,171.762C771.369,171.293 771.193,170.766 771.193,170.18L771.193,124.213L728.654,124.213L728.654,170.18C728.654,170.766 728.479,171.293 728.127,171.762C727.775,172.23 727.16,172.611 726.281,172.904C725.402,173.197 724.23,173.432 722.766,173.607C721.301,173.783 719.426,173.871 717.141,173.871C714.914,173.871 713.039,173.783 711.516,173.607C710.051,173.432 708.879,173.197 708,172.904C707.121,172.611 706.477,172.23 706.066,171.762C705.715,171.293 705.539,170.766 705.539,170.18L705.539,62.777C705.539,62.191 705.715,61.664 706.066,61.195C706.477,60.727 707.121,60.346 708,60.053C708.879,59.76 710.051,59.525 711.516,59.35C713.039,59.174 714.914,59.086 717.141,59.086C719.426,59.086 721.301,59.174 722.766,59.35C724.23,59.525 725.402,59.76 726.281,60.053C727.16,60.346 727.775,60.727 728.127,61.195C728.479,61.664 728.654,62.191 728.654,62.777L728.654,104.525L771.193,104.525L771.193,62.777C771.193,62.191 771.369,61.664 771.721,61.195C772.131,60.727 772.746,60.346 773.566,60.053C774.445,59.76 775.617,59.525 777.082,59.35C778.605,59.174 780.51,59.086 782.795,59.086C785.021,59.086 786.867,59.174 788.332,59.35C789.797,59.525 790.969,59.76 791.848,60.053C792.727,60.346 793.342,60.727 793.693,61.195C794.104,61.664 794.309,62.191 794.309,62.777L794.309,170.18Z" style="fill:white;fill-rule:nonzero;"/>
                <path d="M690.07,91.781C690.07,92.426 689.982,93.217 689.807,94.154C689.631,95.092 689.309,96.44 688.84,98.197L667.922,169.125C667.629,170.121 667.248,170.941 666.779,171.586C666.311,172.172 665.578,172.641 664.582,172.992C663.645,173.344 662.268,173.578 660.451,173.695C658.693,173.812 656.379,173.871 653.508,173.871C650.637,173.871 648.293,173.783 646.477,173.607C644.66,173.49 643.225,173.256 642.17,172.904C641.174,172.553 640.441,172.084 639.973,171.498C639.504,170.854 639.152,170.062 638.918,169.125L625.734,121.488L625.559,120.697L625.383,121.488L613.254,169.125C613.02,170.121 612.668,170.941 612.199,171.586C611.789,172.172 611.057,172.641 610.002,172.992C608.947,173.344 607.512,173.578 605.695,173.695C603.879,173.812 601.535,173.871 598.664,173.871C595.734,173.871 593.361,173.783 591.545,173.607C589.787,173.49 588.381,173.256 587.326,172.904C586.33,172.553 585.598,172.084 585.129,171.498C584.66,170.854 584.309,170.062 584.074,169.125L563.332,98.197C562.805,96.498 562.453,95.18 562.277,94.242C562.16,93.246 562.102,92.426 562.102,91.781C562.102,91.195 562.248,90.697 562.541,90.287C562.893,89.818 563.479,89.467 564.299,89.232C565.178,88.94 566.32,88.734 567.727,88.617C569.191,88.5 571.008,88.441 573.176,88.441C575.52,88.441 577.424,88.5 578.889,88.617C580.354,88.734 581.496,88.94 582.316,89.232C583.137,89.525 583.693,89.936 583.986,90.463C584.338,90.932 584.602,91.518 584.777,92.221L600.334,149.789L600.51,150.844L600.686,149.789L615.275,92.221C615.451,91.518 615.715,90.932 616.066,90.463C616.477,89.936 617.062,89.525 617.824,89.232C618.586,88.94 619.641,88.734 620.988,88.617C622.395,88.5 624.182,88.441 626.35,88.441C628.518,88.441 630.275,88.529 631.623,88.705C632.971,88.822 634.025,89.027 634.787,89.32C635.607,89.555 636.164,89.906 636.457,90.375C636.809,90.785 637.072,91.283 637.248,91.869L652.893,149.877L653.156,150.844L653.332,149.789L668.273,92.221C668.391,91.518 668.625,90.932 668.977,90.463C669.328,89.936 669.914,89.525 670.734,89.232C671.555,88.94 672.668,88.734 674.074,88.617C675.48,88.5 677.268,88.441 679.436,88.441C681.604,88.441 683.361,88.5 684.709,88.617C686.115,88.734 687.199,88.94 687.961,89.232C688.781,89.467 689.338,89.818 689.631,90.287C689.924,90.697 690.07,91.195 690.07,91.781Z" style="fill:white;fill-rule:nonzero;"/>
                <path d="M552.873,130.365C552.873,137.045 551.994,143.139 550.236,148.646C548.479,154.154 545.812,158.9 542.238,162.885C538.664,166.869 534.182,169.945 528.791,172.113C523.4,174.281 517.102,175.365 509.895,175.365C502.922,175.365 496.857,174.398 491.701,172.465C486.545,170.531 482.268,167.719 478.869,164.027C475.471,160.336 472.951,155.795 471.311,150.404C469.67,145.014 468.85,138.861 468.85,131.947C468.85,125.268 469.729,119.174 471.486,113.666C473.303,108.1 475.998,103.354 479.572,99.428C483.146,95.443 487.6,92.367 492.932,90.199C498.322,88.031 504.621,86.947 511.828,86.947C518.859,86.947 524.953,87.914 530.109,89.848C535.266,91.723 539.514,94.506 542.854,98.197C546.252,101.889 548.771,106.43 550.412,111.82C552.053,117.211 552.873,123.393 552.873,130.365ZM530.109,131.244C530.109,127.377 529.787,123.832 529.143,120.609C528.557,117.328 527.531,114.486 526.066,112.084C524.602,109.682 522.639,107.807 520.178,106.459C517.775,105.111 514.729,104.438 511.037,104.438C507.756,104.438 504.885,105.053 502.424,106.283C499.963,107.455 497.941,109.213 496.359,111.557C494.777,113.842 493.576,116.625 492.756,119.906C491.994,123.129 491.613,126.82 491.613,130.98C491.613,134.848 491.936,138.422 492.58,141.703C493.225,144.926 494.25,147.738 495.656,150.141C497.121,152.543 499.084,154.418 501.545,155.766C504.006,157.055 507.053,157.699 510.686,157.699C514.025,157.699 516.926,157.113 519.387,155.941C521.848,154.711 523.869,152.953 525.451,150.668C527.033,148.383 528.205,145.629 528.967,142.406C529.729,139.125 530.109,135.404 530.109,131.244Z" style="fill:white;fill-rule:nonzero;"/>
                <path d="M451.447,170.355C451.447,170.941 451.271,171.469 450.92,171.938C450.568,172.348 449.953,172.699 449.074,172.992C448.254,173.285 447.141,173.49 445.734,173.607C444.328,173.783 442.541,173.871 440.373,173.871C438.205,173.871 436.418,173.783 435.012,173.607C433.605,173.49 432.463,173.285 431.584,172.992C430.764,172.699 430.178,172.348 429.826,171.938C429.475,171.469 429.299,170.941 429.299,170.355L429.299,54.779C429.299,54.193 429.475,53.666 429.826,53.197C430.178,52.728 430.764,52.348 431.584,52.055C432.463,51.703 433.605,51.439 435.012,51.264C436.418,51.088 438.205,51 440.373,51C442.541,51 444.328,51.088 445.734,51.264C447.141,51.439 448.254,51.703 449.074,52.055C449.953,52.348 450.568,52.728 450.92,53.197C451.271,53.666 451.447,54.193 451.447,54.779L451.447,170.355Z" style="fill:white;fill-rule:nonzero;"/>
                <path d="M411.809,69.106C411.809,70.863 411.721,72.357 411.545,73.588C411.428,74.76 411.193,75.697 410.842,76.4C410.549,77.104 410.197,77.631 409.787,77.982C409.377,78.334 408.908,78.51 408.381,78.51L371.203,78.51L371.203,109.096L406.096,109.096C406.623,109.096 407.092,109.242 407.502,109.535C407.912,109.828 408.264,110.326 408.557,111.029C408.908,111.732 409.143,112.67 409.26,113.842C409.436,115.014 409.523,116.479 409.523,118.236C409.523,119.994 409.436,121.459 409.26,122.631C409.143,123.803 408.908,124.77 408.557,125.531C408.264,126.293 407.912,126.85 407.502,127.201C407.092,127.494 406.623,127.641 406.096,127.641L371.203,127.641L371.203,170.004C371.203,170.648 371.027,171.205 370.676,171.674C370.324,172.143 369.68,172.553 368.742,172.904C367.863,173.197 366.691,173.432 365.227,173.607C363.762,173.783 361.887,173.871 359.602,173.871C357.375,173.871 355.5,173.783 353.977,173.607C352.512,173.432 351.34,173.197 350.461,172.904C349.582,172.553 348.938,172.143 348.527,171.674C348.176,171.205 348,170.648 348,170.004L348,66.908C348,64.33 348.645,62.484 349.934,61.371C351.281,60.199 352.922,59.613 354.855,59.613L408.381,59.613C408.908,59.613 409.377,59.789 409.787,60.141C410.197,60.434 410.549,60.961 410.842,61.723C411.193,62.426 411.428,63.393 411.545,64.623C411.721,65.854 411.809,67.348 411.809,69.106Z" style="fill:white;fill-rule:nonzero;"/>
            </g>
        </g>
    </g>
    <defs>
        <linearGradient id="_Linear2" x1="0" y1="0" x2="1" y2="0" gradientUnits="userSpaceOnUse" gradientTransform="matrix(-278.92,3.41579e-14,-3.41579e-14,-278.92,278.92,113.01)"><stop offset="0" style="stop-color:rgb(152,74,215);stop-opacity:1"/><stop offset="0.49" style="stop-color:rgb(70,92,224);stop-opacity:1"/><stop offset="1" style="stop-color:rgb(4,151,220);stop-opacity:1"/></linearGradient>
    </defs>
</svg>
