<svg fill="none" height="42" viewBox="0 0 42 42" width="42" xmlns="http://www.w3.org/2000/svg" xmlns:xlink="http://www.w3.org/1999/xlink"><clipPath id="a"><path d="m6 6h30v30h-30z"/></clipPath><rect fill="#f9fafb" height="42" rx="6.38009" width="42"/><g clip-path="url(#a)"><g fill="#d1d5db"><path d="m-.739279 3.31219c0 .55821-.452521 1.01073-1.010731 1.01073s-1.01073-.45252-1.01073-1.01073.45252-1.01073 1.01073-1.01073 1.010731.45252 1.010731 1.01073z"/><path d="m4.31438 3.31219c0 .55821-.45252 1.01073-1.01073 1.01073s-1.01073-.45252-1.01073-1.01073.45252-1.01073 1.01073-1.01073 1.01073.45252 1.01073 1.01073z"/><path d="m9.36804 3.31219c0 .55821-.45252 1.01073-1.01073 1.01073s-1.01073-.45252-1.01073-1.01073.45252-1.01073 1.01073-1.01073 1.01073.45252 1.01073 1.01073z"/><path d="m14.4217 3.31219c0 .55821-.4525 1.01073-1.0107 1.01073s-1.0108-.45252-1.0108-1.01073.4526-1.01073 1.0108-1.01073 1.0107.45252 1.0107 1.01073z"/><path d="m19.4754 3.31219c0 .55821-.4526 1.01073-1.0108 1.01073s-1.0107-.45252-1.0107-1.01073.4525-1.01073 1.0107-1.01073 1.0108.45252 1.0108 1.01073z"/><path d="m24.529 3.31219c0 .55821-.4525 1.01073-1.0107 1.01073s-1.0107-.45252-1.0107-1.01073.4525-1.01073 1.0107-1.01073 1.0107.45252 1.0107 1.01073z"/><path d="m29.5827 3.31219c0 .55821-.4525 1.01073-1.0108 1.01073-.5582 0-1.0107-.45252-1.0107-1.01073s.4525-1.01073 1.0107-1.01073c.5583 0 1.0108.45252 1.0108 1.01073z"/><path d="m34.6363 3.31219c0 .55821-.4525 1.01073-1.0107 1.01073s-1.0107-.45252-1.0107-1.01073.4525-1.01073 1.0107-1.01073 1.0107.45252 1.0107 1.01073z"/><path d="m39.69 3.31219c0 .55821-.4525 1.01073-1.0107 1.01073s-1.0108-.45252-1.0108-1.01073.4526-1.01073 1.0108-1.01073 1.0107.45252 1.0107 1.01073z"/><path d="m-.739279 8.36585c0 .55821-.452521 1.01073-1.010731 1.01073s-1.01073-.45252-1.01073-1.01073.45252-1.01073 1.01073-1.01073 1.010731.45252 1.010731 1.01073z"/><path d="m4.31438 8.36585c0 .55821-.45252 1.01073-1.01073 1.01073s-1.01073-.45252-1.01073-1.01073.45252-1.01073 1.01073-1.01073 1.01073.45252 1.01073 1.01073z"/><path d="m9.36804 8.36585c0 .55821-.45252 1.01073-1.01073 1.01073s-1.01073-.45252-1.01073-1.01073.45252-1.01073 1.01073-1.01073 1.01073.45252 1.01073 1.01073z"/><path d="m14.4217 8.36585c0 .55821-.4525 1.01073-1.0107 1.01073s-1.0108-.45252-1.0108-1.01073.4526-1.01073 1.0108-1.01073 1.0107.45252 1.0107 1.01073z"/><path d="m19.4754 8.36585c0 .55821-.4526 1.01073-1.0108 1.01073s-1.0107-.45252-1.0107-1.01073.4525-1.01073 1.0107-1.01073 1.0108.45252 1.0108 1.01073z"/><path d="m24.529 8.36585c0 .55821-.4525 1.01073-1.0107 1.01073s-1.0107-.45252-1.0107-1.01073.4525-1.01073 1.0107-1.01073 1.0107.45252 1.0107 1.01073z"/><path d="m29.5827 8.36585c0 .55821-.4525 1.01073-1.0108 1.01073-.5582 0-1.0107-.45252-1.0107-1.01073s.4525-1.01073 1.0107-1.01073c.5583 0 1.0108.45252 1.0108 1.01073z"/><path d="m34.6363 8.36585c0 .55821-.4525 1.01073-1.0107 1.01073s-1.0107-.45252-1.0107-1.01073.4525-1.01073 1.0107-1.01073 1.0107.45252 1.0107 1.01073z"/><path d="m39.69 8.36585c0 .55821-.4525 1.01073-1.0107 1.01073s-1.0108-.45252-1.0108-1.01073.4526-1.01073 1.0108-1.01073 1.0107.45252 1.0107 1.01073z"/><path d="m-.739279 13.4195c0 .5582-.452521 1.0107-1.010731 1.0107s-1.01073-.4525-1.01073-1.0107.45252-1.0107 1.01073-1.0107 1.010731.4525 1.010731 1.0107z"/><path d="m4.31438 13.4195c0 .5582-.45252 1.0107-1.01073 1.0107s-1.01073-.4525-1.01073-1.0107.45252-1.0107 1.01073-1.0107 1.01073.4525 1.01073 1.0107z"/><path d="m9.36804 13.4195c0 .5582-.45252 1.0107-1.01073 1.0107s-1.01073-.4525-1.01073-1.0107.45252-1.0107 1.01073-1.0107 1.01073.4525 1.01073 1.0107z"/><path d="m14.4217 13.4195c0 .5582-.4525 1.0107-1.0107 1.0107s-1.0108-.4525-1.0108-1.0107.4526-1.0107 1.0108-1.0107 1.0107.4525 1.0107 1.0107z"/><path d="m19.4754 13.4195c0 .5582-.4526 1.0107-1.0108 1.0107s-1.0107-.4525-1.0107-1.0107.4525-1.0107 1.0107-1.0107 1.0108.4525 1.0108 1.0107z"/><path d="m24.529 13.4195c0 .5582-.4525 1.0107-1.0107 1.0107s-1.0107-.4525-1.0107-1.0107.4525-1.0107 1.0107-1.0107 1.0107.4525 1.0107 1.0107z"/><path d="m29.5827 13.4195c0 .5582-.4525 1.0107-1.0108 1.0107-.5582 0-1.0107-.4525-1.0107-1.0107s.4525-1.0107 1.0107-1.0107c.5583 0 1.0108.4525 1.0108 1.0107z"/><path d="m34.6363 13.4195c0 .5582-.4525 1.0107-1.0107 1.0107s-1.0107-.4525-1.0107-1.0107.4525-1.0107 1.0107-1.0107 1.0107.4525 1.0107 1.0107z"/><path d="m39.69 13.4195c0 .5582-.4525 1.0107-1.0107 1.0107s-1.0108-.4525-1.0108-1.0107.4526-1.0107 1.0108-1.0107 1.0107.4525 1.0107 1.0107z"/><path d="m-.739279 18.4732c0 .5582-.452521 1.0107-1.010731 1.0107s-1.01073-.4525-1.01073-1.0107.45252-1.0108 1.01073-1.0108 1.010731.4526 1.010731 1.0108z"/><path d="m4.31438 18.4732c0 .5582-.45252 1.0107-1.01073 1.0107s-1.01073-.4525-1.01073-1.0107.45252-1.0108 1.01073-1.0108 1.01073.4526 1.01073 1.0108z"/><path d="m9.36804 18.4732c0 .5582-.45252 1.0107-1.01073 1.0107s-1.01073-.4525-1.01073-1.0107.45252-1.0108 1.01073-1.0108 1.01073.4526 1.01073 1.0108z"/><path d="m14.4217 18.4732c0 .5582-.4525 1.0107-1.0107 1.0107s-1.0108-.4525-1.0108-1.0107.4526-1.0108 1.0108-1.0108 1.0107.4526 1.0107 1.0108z"/><path d="m19.4754 18.4732c0 .5582-.4526 1.0107-1.0108 1.0107s-1.0107-.4525-1.0107-1.0107.4525-1.0108 1.0107-1.0108 1.0108.4526 1.0108 1.0108z"/><path d="m24.529 18.4732c0 .5582-.4525 1.0107-1.0107 1.0107s-1.0107-.4525-1.0107-1.0107.4525-1.0108 1.0107-1.0108 1.0107.4526 1.0107 1.0108z"/><path d="m29.5827 18.4732c0 .5582-.4525 1.0107-1.0108 1.0107-.5582 0-1.0107-.4525-1.0107-1.0107s.4525-1.0108 1.0107-1.0108c.5583 0 1.0108.4526 1.0108 1.0108z"/><path d="m34.6363 18.4732c0 .5582-.4525 1.0107-1.0107 1.0107s-1.0107-.4525-1.0107-1.0107.4525-1.0108 1.0107-1.0108 1.0107.4526 1.0107 1.0108z"/><path d="m39.69 18.4732c0 .5582-.4525 1.0107-1.0107 1.0107s-1.0108-.4525-1.0108-1.0107.4526-1.0108 1.0108-1.0108 1.0107.4526 1.0107 1.0108z"/><path d="m-.739279 23.5268c0 .5582-.452521 1.0108-1.010731 1.0108s-1.01073-.4526-1.01073-1.0108.45252-1.0107 1.01073-1.0107 1.010731.4525 1.010731 1.0107z"/><path d="m4.31438 23.5268c0 .5582-.45252 1.0108-1.01073 1.0108s-1.01073-.4526-1.01073-1.0108.45252-1.0107 1.01073-1.0107 1.01073.4525 1.01073 1.0107z"/><path d="m9.36804 23.5268c0 .5582-.45252 1.0108-1.01073 1.0108s-1.01073-.4526-1.01073-1.0108.45252-1.0107 1.01073-1.0107 1.01073.4525 1.01073 1.0107z"/><path d="m14.4217 23.5268c0 .5582-.4525 1.0108-1.0107 1.0108s-1.0108-.4526-1.0108-1.0108.4526-1.0107 1.0108-1.0107 1.0107.4525 1.0107 1.0107z"/><path d="m19.4754 23.5268c0 .5582-.4526 1.0108-1.0108 1.0108s-1.0107-.4526-1.0107-1.0108.4525-1.0107 1.0107-1.0107 1.0108.4525 1.0108 1.0107z"/><path d="m24.529 23.5268c0 .5582-.4525 1.0108-1.0107 1.0108s-1.0107-.4526-1.0107-1.0108.4525-1.0107 1.0107-1.0107 1.0107.4525 1.0107 1.0107z"/><path d="m29.5827 23.5268c0 .5582-.4525 1.0108-1.0108 1.0108-.5582 0-1.0107-.4526-1.0107-1.0108s.4525-1.0107 1.0107-1.0107c.5583 0 1.0108.4525 1.0108 1.0107z"/><path d="m34.6363 23.5268c0 .5582-.4525 1.0108-1.0107 1.0108s-1.0107-.4526-1.0107-1.0108.4525-1.0107 1.0107-1.0107 1.0107.4525 1.0107 1.0107z"/><path d="m39.69 23.5268c0 .5582-.4525 1.0108-1.0107 1.0108s-1.0108-.4526-1.0108-1.0108.4526-1.0107 1.0108-1.0107 1.0107.4525 1.0107 1.0107z"/><path d="m-.739279 28.5805c0 .5582-.452521 1.0107-1.010731 1.0107s-1.01073-.4525-1.01073-1.0107.45252-1.0107 1.01073-1.0107 1.010731.4525 1.010731 1.0107z"/><path d="m4.31438 28.5805c0 .5582-.45252 1.0107-1.01073 1.0107s-1.01073-.4525-1.01073-1.0107.45252-1.0107 1.01073-1.0107 1.01073.4525 1.01073 1.0107z"/><path d="m9.36804 28.5805c0 .5582-.45252 1.0107-1.01073 1.0107s-1.01073-.4525-1.01073-1.0107.45252-1.0107 1.01073-1.0107 1.01073.4525 1.01073 1.0107z"/><path d="m14.4217 28.5805c0 .5582-.4525 1.0107-1.0107 1.0107s-1.0108-.4525-1.0108-1.0107.4526-1.0107 1.0108-1.0107 1.0107.4525 1.0107 1.0107z"/><path d="m19.4754 28.5805c0 .5582-.4526 1.0107-1.0108 1.0107s-1.0107-.4525-1.0107-1.0107.4525-1.0107 1.0107-1.0107 1.0108.4525 1.0108 1.0107z"/><path d="m24.529 28.5805c0 .5582-.4525 1.0107-1.0107 1.0107s-1.0107-.4525-1.0107-1.0107.4525-1.0107 1.0107-1.0107 1.0107.4525 1.0107 1.0107z"/><path d="m29.5827 28.5805c0 .5582-.4525 1.0107-1.0108 1.0107-.5582 0-1.0107-.4525-1.0107-1.0107s.4525-1.0107 1.0107-1.0107c.5583 0 1.0108.4525 1.0108 1.0107z"/><path d="m34.6363 28.5805c0 .5582-.4525 1.0107-1.0107 1.0107s-1.0107-.4525-1.0107-1.0107.4525-1.0107 1.0107-1.0107 1.0107.4525 1.0107 1.0107z"/><path d="m39.69 28.5805c0 .5582-.4525 1.0107-1.0107 1.0107s-1.0108-.4525-1.0108-1.0107.4526-1.0107 1.0108-1.0107 1.0107.4525 1.0107 1.0107z"/><path d="m-.739279 33.6341c0 .5583-.452521 1.0108-1.010731 1.0108s-1.01073-.4525-1.01073-1.0108c0-.5582.45252-1.0107 1.01073-1.0107s1.010731.4525 1.010731 1.0107z"/><path d="m4.31438 33.6341c0 .5583-.45252 1.0108-1.01073 1.0108s-1.01073-.4525-1.01073-1.0108c0-.5582.45252-1.0107 1.01073-1.0107s1.01073.4525 1.01073 1.0107z"/><path d="m9.36804 33.6341c0 .5583-.45252 1.0108-1.01073 1.0108s-1.01073-.4525-1.01073-1.0108c0-.5582.45252-1.0107 1.01073-1.0107s1.01073.4525 1.01073 1.0107z"/><path d="m14.4217 33.6341c0 .5583-.4525 1.0108-1.0107 1.0108s-1.0108-.4525-1.0108-1.0108c0-.5582.4526-1.0107 1.0108-1.0107s1.0107.4525 1.0107 1.0107z"/><path d="m19.4754 33.6341c0 .5583-.4526 1.0108-1.0108 1.0108s-1.0107-.4525-1.0107-1.0108c0-.5582.4525-1.0107 1.0107-1.0107s1.0108.4525 1.0108 1.0107z"/><path d="m24.529 33.6341c0 .5583-.4525 1.0108-1.0107 1.0108s-1.0107-.4525-1.0107-1.0108c0-.5582.4525-1.0107 1.0107-1.0107s1.0107.4525 1.0107 1.0107z"/><path d="m29.5827 33.6341c0 .5583-.4525 1.0108-1.0108 1.0108-.5582 0-1.0107-.4525-1.0107-1.0108 0-.5582.4525-1.0107 1.0107-1.0107.5583 0 1.0108.4525 1.0108 1.0107z"/><path d="m34.6363 33.6341c0 .5583-.4525 1.0108-1.0107 1.0108s-1.0107-.4525-1.0107-1.0108c0-.5582.4525-1.0107 1.0107-1.0107s1.0107.4525 1.0107 1.0107z"/><path d="m39.69 33.6341c0 .5583-.4525 1.0108-1.0107 1.0108s-1.0108-.4525-1.0108-1.0108c0-.5582.4526-1.0107 1.0108-1.0107s1.0107.4525 1.0107 1.0107z"/><path d="m-.739279 38.6878c0 .5582-.452521 1.0107-1.010731 1.0107s-1.01073-.4525-1.01073-1.0107.45252-1.0107 1.01073-1.0107 1.010731.4525 1.010731 1.0107z"/><path d="m4.31438 38.6878c0 .5582-.45252 1.0107-1.01073 1.0107s-1.01073-.4525-1.01073-1.0107.45252-1.0107 1.01073-1.0107 1.01073.4525 1.01073 1.0107z"/><path d="m9.36804 38.6878c0 .5582-.45252 1.0107-1.01073 1.0107s-1.01073-.4525-1.01073-1.0107.45252-1.0107 1.01073-1.0107 1.01073.4525 1.01073 1.0107z"/><path d="m14.4217 38.6878c0 .5582-.4525 1.0107-1.0107 1.0107s-1.0108-.4525-1.0108-1.0107.4526-1.0107 1.0108-1.0107 1.0107.4525 1.0107 1.0107z"/><path d="m19.4754 38.6878c0 .5582-.4526 1.0107-1.0108 1.0107s-1.0107-.4525-1.0107-1.0107.4525-1.0107 1.0107-1.0107 1.0108.4525 1.0108 1.0107z"/><path d="m24.529 38.6878c0 .5582-.4525 1.0107-1.0107 1.0107s-1.0107-.4525-1.0107-1.0107.4525-1.0107 1.0107-1.0107 1.0107.4525 1.0107 1.0107z"/><path d="m29.5827 38.6878c0 .5582-.4525 1.0107-1.0108 1.0107-.5582 0-1.0107-.4525-1.0107-1.0107s.4525-1.0107 1.0107-1.0107c.5583 0 1.0108.4525 1.0108 1.0107z"/><path d="m34.6363 38.6878c0 .5582-.4525 1.0107-1.0107 1.0107s-1.0107-.4525-1.0107-1.0107.4525-1.0107 1.0107-1.0107 1.0107.4525 1.0107 1.0107z"/><path d="m39.69 38.6878c0 .5582-.4525 1.0107-1.0107 1.0107s-1.0108-.4525-1.0108-1.0107.4526-1.0107 1.0108-1.0107 1.0107.4525 1.0107 1.0107z"/></g><path d="m11.2957 11.9167c-.4314 2.3212-2.4671 4.0786-4.91328 4.0786-2.76013 0-4.99765-2.2375-4.99765-4.9976 0-2.76014 2.23752-4.99767 4.99765-4.99767 2.68227 0 4.87098 2.11308 4.99238 4.76537 3.7405.3653 5.9808 1.513 7.343 3.1972 1.5288 1.8905 1.8462 4.3595 2.142 6.66.02.156.04.3112.0602.4654.3283 2.5033.7253 4.7982 2.4072 6.5081 1.4047 1.4282 3.7937 2.5277 8.0605 2.8436.0914-2.6799 2.2926-4.8243 4.9947-4.8243 2.7601 0 4.9977 2.2375 4.9977 4.9977 0 2.7601-2.2376 4.9976-4.9977 4.9976-2.4211 0-4.4402-1.7217-4.8996-4.0076-4.5306-.3094-7.2813-1.4727-8.9782-3.1979-1.9866-2.0196-2.4048-4.6976-2.7287-7.1671-.0164-.1254-.0326-.2501-.0487-.3742-.3112-2.3948-.591-4.549-1.9066-6.1757-1.0965-1.3558-2.9936-2.4218-6.5249-2.7715z" fill="#111928"/><path clip-rule="evenodd" d="m36.3824 33.8799c1.8043 0 3.2669-1.4626 3.2669-3.2668 0-1.8043-1.4626-3.2669-3.2669-3.2669-1.8042 0-3.2669 1.4626-3.2669 3.2669 0 1.8042 1.4627 3.2668 3.2669 3.2668zm0 1.7308c2.7601 0 4.9977-2.2375 4.9977-4.9976 0-2.7602-2.2376-4.9977-4.9977-4.9977s-4.9976 2.2375-4.9976 4.9977c0 2.7601 2.2375 4.9976 4.9976 4.9976z" fill="#1c64f2" fill-rule="evenodd"/><path clip-rule="evenodd" d="m6.38242 14.2646c1.80425 0 3.26688-1.4627 3.26688-3.2669 0-1.80427-1.46263-3.2669-3.26688-3.2669s-3.26689 1.46263-3.26689 3.2669c0 1.8042 1.46264 3.2669 3.26689 3.2669zm0 1.7307c2.76013 0 4.99768-2.2375 4.99768-4.9976 0-2.76014-2.23755-4.99767-4.99768-4.99767s-4.99765 2.23753-4.99765 4.99767c0 2.7601 2.23752 4.9976 4.99765 4.9976z" fill="#1c64f2" fill-rule="evenodd"/></g></svg>