<svg width="32" height="32" viewBox="0 0 32 32" fill="none" xmlns="http://www.w3.org/2000/svg">
<rect width="32" height="32" rx="6" fill="#EBF5FF"/>
<rect x="0.5" y="0.5" width="31" height="31" rx="5.5" stroke="url(#paint0_linear_132_2296)" stroke-opacity="0.7"/>
<path fill-rule="evenodd" clip-rule="evenodd" d="M11.0002 10.334C10.8234 10.334 10.6538 10.4042 10.5288 10.5292C10.4037 10.6543 10.3335 10.8238 10.3335 11.0007V21.0007C10.3335 21.1775 10.4037 21.347 10.5288 21.4721C10.6538 21.5971 10.8234 21.6673 11.0002 21.6673H21.0002C21.177 21.6673 21.3465 21.5971 21.4716 21.4721C21.5966 21.347 21.6668 21.1775 21.6668 21.0007V11.0007C21.6668 10.8238 21.5966 10.6543 21.4716 10.5292C21.3465 10.4042 21.177 10.334 21.0002 10.334H11.0002ZM9.11454 9.11503C9.61464 8.61494 10.2929 8.33398 11.0002 8.33398H21.0002C21.7074 8.33398 22.3857 8.61494 22.8858 9.11503C23.3859 9.61513 23.6668 10.2934 23.6668 11.0007V21.0007C23.6668 21.7079 23.3859 22.3862 22.8858 22.8863C22.3857 23.3864 21.7074 23.6673 21.0002 23.6673H11.0002C10.2929 23.6673 9.61464 23.3864 9.11454 22.8863C8.61445 22.3862 8.3335 21.7079 8.3335 21.0007V11.0007C8.3335 10.2934 8.61445 9.61513 9.11454 9.11503ZM17.7931 13.6269C18.1836 13.2364 18.8167 13.2364 19.2073 13.6269L20.8739 15.2935C21.2645 15.6841 21.2645 16.3172 20.8739 16.7078C20.4834 17.0983 19.8502 17.0983 19.4597 16.7078L18.5002 15.7482L16.7073 17.5411C16.3167 17.9316 15.6836 17.9316 15.2931 17.5411L14.3335 16.5815L12.5406 18.3744C12.1501 18.7649 11.5169 18.7649 11.1264 18.3744C10.7359 17.9839 10.7359 17.3507 11.1264 16.9602L13.6264 14.4602C14.0169 14.0697 14.6501 14.0697 15.0406 14.4602L16.0002 15.4198L17.7931 13.6269Z" fill="url(#paint1_linear_132_2296)"/>
<defs>
<linearGradient id="paint0_linear_132_2296" x1="0" y1="0" x2="35.3058" y2="4.19808" gradientUnits="userSpaceOnUse">
<stop stop-color="#0497DC"/>
<stop offset="1" stop-color="#465CE0"/>
</linearGradient>
<linearGradient id="paint1_linear_132_2296" x1="8.3335" y1="8.33398" x2="25.2509" y2="10.3456" gradientUnits="userSpaceOnUse">
<stop stop-color="#0497DC"/>
<stop offset="1" stop-color="#465CE0"/>
</linearGradient>
</defs>
</svg>
