<svg width="20" height="20" fill="none" xmlns="http://www.w3.org/2000/svg"><path fill-rule="evenodd" clip-rule="evenodd" d="M9.36766 1.52367c-2.0231.15084-3.93372 1.02171-5.37807 2.46606C2.39553 5.58379 1.5 7.74579 1.5 10.0001c0 1.1163.21986 2.2216.64702 3.2528a8.49973 8.49973 0 0 0 1.84257 2.7576 8.50062 8.50062 0 0 0 2.7576 1.8426 8.50161 8.50161 0 0 0 2.62035.6235 1.0042 1.0042 0 0 0 .32371.0179c.10279.0038.20572.0056.30875.0056.103 0 .206-.0018.3088-.0056.1087.0117.2181.0054.3237-.0179a8.5003 8.5003 0 0 0 7.2205-5.2237 8.50066 8.50066 0 0 0 .647-3.2528c0-2.25431-.8955-4.41631-2.4896-6.01037-1.4443-1.44435-3.355-2.31522-5.3781-2.46606a1.00197 1.00197 0 0 0-.3235-.01793 8.51 8.51 0 0 0-.61759 0 1.0024 1.0024 0 0 0-.32355.01793ZM10 3.7745a13.16584 13.16584 0 0 0-1.09111 2.72563h2.18221A13.16415 13.16415 0 0 0 10 3.7745Zm1.4791 4.72563H8.52089a13.16648 13.16648 0 0 0 0 2.99997h2.95821a13.1704 13.1704 0 0 0 0-2.99997Zm2.0114 2.99997c.0494-.497.0743-.9976.0743-1.5 0-.50233-.0249-1.00292-.0743-1.49997h2.8341c.1156.48759.1754.99072.1754 1.49997 0 .5063-.0591 1.0097-.1754 1.5h-2.8341Zm-2.3994 2H8.90889A13.16576 13.16576 0 0 0 10 16.2258c.4655-.8675.8309-1.7819 1.0911-2.7257Zm-3.38277 2.5827a15.16981 15.16981 0 0 1-.86379-2.5827H4.52277c.25257.3953.54778.763.88104 1.0962a6.50056 6.50056 0 0 0 2.10875 1.4091c.06488.0268.13014.0526.19577.0774Zm-4.03289-4.5827h2.83409a15.16653 15.16653 0 0 1 0-2.99997H3.67542A6.49837 6.49837 0 0 0 3.5 10.0001c0 .5063.05915 1.0097.17544 1.5Zm.84731-4.99997h2.32179a15.1674 15.1674 0 0 1 .86379-2.58261 6.4989 6.4989 0 0 0-2.30452 1.48642 6.49811 6.49811 0 0 0-.88106 1.09619Zm7.76895 9.58267c.3651-.8341.6541-1.6985.8638-2.5827h2.3217a6.4949 6.4949 0 0 1-.881 1.0962 6.50014 6.50014 0 0 1-2.1088 1.4091 6.85404 6.85404 0 0 1-.1957.0774Zm3.1856-9.58267h-2.3218a15.17036 15.17036 0 0 0-.8638-2.58261 6.49934 6.49934 0 0 1 2.3045 1.48642c.3351.3351.6298.70301.8811 1.09619Z" fill="url(#a)"/><defs><linearGradient id="a" x1="1.5" y1="1.5" x2="20.2562" y2="3.73019" gradientUnits="userSpaceOnUse"><stop stop-color="#0497DC"/><stop offset="1" stop-color="#465CE0"/></linearGradient></defs></svg>