<svg  width="14" height="14" viewBox="0 0 14 14" version="1.1" xmlns="http://www.w3.org/2000/svg" xmlns:xlink="http://www.w3.org/1999/xlink" xml:space="preserve" xmlns:serif="http://www.serif.com/" style="fill-rule:evenodd;clip-rule:evenodd;stroke-linejoin:round;stroke-miterlimit:2;">
    <path d="M14,7C14,3.137 10.863,0 7,0C3.137,0 0,3.137 0,7C0,10.864 3.137,14 7,14C10.863,14 14,10.864 14,7Z" style="fill:rgb(255,55,31);"/>
    <g transform="matrix(0.519783,0,0,0.519783,0.762599,0.762843)">
        <path d="M19,6.41L17.59,5L12,10.59L6.41,5L5,6.41L10.59,12L5,17.59L6.41,19L12,13.41L17.59,19L19,17.59L13.41,12L19,6.41Z" style="fill:white;fill-rule:nonzero;"/>
    </g>
</svg>
