<svg width="20" height="22" viewBox="0 0 20 22" fill="none" xmlns="http://www.w3.org/2000/svg">
<path d="M10.3275 16.1235L5.18417 18.8277L6.16667 13.1002L2 9.04435L7.75 8.21102L10.3217 3.00018L12.8933 8.21102L18.6433 9.04435L14.4767 13.1002L15.4592 18.8277L10.3275 16.1235Z" fill="#1C64F2"/>
<path fill-rule="evenodd" clip-rule="evenodd" d="M10.3217 2.00018C10.7023 2.00018 11.05 2.21628 11.2184 2.55762L13.5573 7.2968L18.7868 8.05469C19.1637 8.10931 19.4768 8.37327 19.5945 8.73549C19.7121 9.0977 19.6138 9.49529 19.3409 9.76092L15.5513 13.4497L16.4448 18.6586C16.5092 19.0339 16.3548 19.4133 16.0466 19.637C15.7384 19.8607 15.3299 19.8899 14.993 19.7124L10.327 17.2536L5.64956 19.7128C5.31264 19.8899 4.90436 19.8604 4.59641 19.6367C4.28846 19.413 4.13423 19.0338 4.19859 18.6586L5.09213 13.4497L1.30252 9.76092C1.02962 9.49529 0.931297 9.0977 1.04892 8.73549C1.16655 8.37327 1.4797 8.10931 1.8566 8.05469L7.08607 7.2968L9.42496 2.55762C9.59342 2.21628 9.94105 2.00018 10.3217 2.00018ZM10.3217 5.25976L8.64677 8.65358C8.50105 8.94884 8.21932 9.15345 7.89346 9.20068L4.15144 9.743L6.86421 12.3836C7.10024 12.6134 7.20799 12.9446 7.1523 13.2693L6.5124 16.9996L9.86217 15.2384C10.1538 15.0851 10.5022 15.0852 10.7937 15.2388L14.1306 16.9972L13.4911 13.2693C13.4354 12.9446 13.5432 12.6134 13.7792 12.3836L16.492 9.743L12.7499 9.20068C12.4241 9.15345 12.1423 8.94884 11.9966 8.65358L10.3217 5.25976Z" fill="#1C64F2"/>
</svg>
