<svg width="20" height="21" viewBox="0 0 20 21" fill="none" xmlns="http://www.w3.org/2000/svg">
<path d="M10 5.01172V16.6784M10 16.6784L15 11.6784M10 16.6784L5 11.6784" stroke="#050505" stroke-width="2" stroke-linecap="round" stroke-linejoin="round"/>
<path fill-rule="evenodd" clip-rule="evenodd" d="M10 4.01172C10.5523 4.01172 11 4.45943 11 5.01172V14.2642L14.2929 10.9713C14.6834 10.5808 15.3166 10.5808 15.7071 10.9713C16.0976 11.3618 16.0976 11.995 15.7071 12.3855L10.7071 17.3855C10.5196 17.573 10.2652 17.6784 10 17.6784C9.73478 17.6784 9.48043 17.573 9.29289 17.3855L4.29289 12.3855C3.90237 11.995 3.90237 11.3618 4.29289 10.9713C4.68342 10.5808 5.31658 10.5808 5.70711 10.9713L9 14.2642V5.01172C9 4.45943 9.44772 4.01172 10 4.01172Z" fill="#111928"/>
</svg>
