<svg width="32" height="32" viewBox="0 0 32 32" fill="none" xmlns="http://www.w3.org/2000/svg">
<rect width="32" height="32" rx="6" fill="#EBF5FF"/>
<rect x="0.5" y="0.5" width="31" height="31" rx="5.5" stroke="url(#paint0_linear_132_1565)" stroke-opacity="0.7"/>
<path d="M25.934 17.32C25.926 17.277 25.92 17.235 25.911 17.193C25.865 16.97 25.802 16.752 25.719 16.542C25.714 16.529 25.707 16.517 25.702 16.504C25.517 16.049 25.25 15.631 24.912 15.27C24.97 15.016 25 14.759 25 14.5C25 14.262 24.976 14.027 24.929 13.8C24.906 13.685 24.861 13.579 24.826 13.468C24.792 13.36 24.769 13.248 24.725 13.144C24.545 12.718 24.283 12.336 23.959 12.016C23.986 11.843 24 11.671 24 11.5C24 10.034 23.09 8.75 21.761 8.238C21.25 6.91 19.966 6 18.5 6C17.52 6 16.636 6.407 16 7.058C15.364 6.407 14.48 6 13.5 6C12.034 6 10.75 6.91 10.239 8.238C8.91 8.75 8 10.034 8 11.5C8 11.671 8.014 11.843 8.04 12.015C7.716 12.335 7.454 12.718 7.274 13.143C7.232 13.243 7.21 13.352 7.177 13.456C7.141 13.57 7.095 13.681 7.071 13.8C7.024 14.028 7 14.262 7 14.5C7 14.759 7.03 15.015 7.088 15.268L7.085 15.272C6.748 15.633 6.481 16.05 6.297 16.505C6.292 16.517 6.286 16.528 6.281 16.54C6.198 16.751 6.135 16.97 6.088 17.193C6.079 17.235 6.073 17.277 6.065 17.319C6.027 17.543 6 17.77 6 18C6 18.245 6.03 18.482 6.072 18.716C6.083 18.774 6.094 18.831 6.107 18.889C6.159 19.115 6.223 19.337 6.312 19.548C6.318 19.562 6.327 19.575 6.333 19.59C6.417 19.783 6.52 19.966 6.634 20.143C6.672 20.202 6.711 20.26 6.751 20.317C6.856 20.463 6.969 20.601 7.093 20.732C7.165 20.808 7.24 20.878 7.318 20.948C7.419 21.039 7.523 21.127 7.633 21.208C7.732 21.281 7.834 21.348 7.94 21.412C7.961 21.424 7.979 21.44 8 21.452C8 21.469 8 21.484 8 21.501C8 23.272 9.321 24.739 11.03 24.97C11.684 25.629 12.561 26 13.5 26C14.48 26 15.364 25.593 16 24.942C16.636 25.593 17.52 26 18.5 26C19.439 26 20.316 25.629 20.97 24.969C22.679 24.738 24 23.271 24 21.5C24 21.483 24 21.468 24 21.451C24.021 21.439 24.039 21.424 24.06 21.411C24.166 21.347 24.268 21.28 24.367 21.207C24.478 21.126 24.581 21.038 24.682 20.947C24.759 20.877 24.835 20.807 24.907 20.731C25.031 20.601 25.144 20.462 25.249 20.316C25.29 20.259 25.329 20.201 25.366 20.142C25.479 19.965 25.582 19.782 25.667 19.589C25.673 19.575 25.682 19.562 25.688 19.547C25.777 19.336 25.841 19.114 25.893 18.888C25.906 18.831 25.917 18.774 25.928 18.715C25.97 18.482 26 18.245 26 18C26 17.77 25.973 17.543 25.934 17.32ZM15 22.5C15 23.327 14.327 24 13.5 24C13.032 24 12.598 23.78 12.308 23.396C12.119 23.146 11.824 22.999 11.51 22.999C11.498 22.999 11.486 22.999 11.473 23C10.83 22.988 10.29 22.568 10.089 21.991C10.612 21.979 11.12 21.876 11.599 21.668C12.105 21.447 12.336 20.857 12.116 20.352C11.895 19.845 11.306 19.613 10.8 19.834C10.547 19.944 10.278 20 10 20C9.796 20 9.603 19.96 9.418 19.904C9.411 19.902 9.407 19.896 9.4 19.894C8.985 19.762 8.639 19.508 8.394 19.181C8.391 19.177 8.387 19.173 8.384 19.168C8.272 19.016 8.188 18.846 8.123 18.667C8.111 18.634 8.102 18.6 8.092 18.566C8.037 18.385 8 18.196 8 18C8 17.729 8.067 17.468 8.17 17.224C8.311 16.896 8.53 16.604 8.836 16.383C8.948 16.302 9.032 16.199 9.099 16.087C9.101 16.084 9.101 16.081 9.103 16.078C9.164 15.975 9.203 15.864 9.224 15.748C9.229 15.722 9.227 15.696 9.23 15.669C9.239 15.577 9.238 15.487 9.221 15.394C9.214 15.352 9.2 15.313 9.188 15.273C9.174 15.23 9.172 15.185 9.152 15.143C9.051 14.93 9 14.713 9 14.5C9 14.381 9.017 14.266 9.045 14.153C9.052 14.124 9.062 14.097 9.071 14.069C9.097 13.983 9.13 13.899 9.171 13.819C9.183 13.796 9.195 13.773 9.208 13.751C9.328 13.547 9.495 13.368 9.705 13.235C9.705 13.235 9.707 13.233 9.709 13.232C9.939 13.087 10.209 13 10.5 13C10.705 13 10.902 13.04 11.087 13.119C11.594 13.339 12.182 13.101 12.4 12.594C12.617 12.086 12.382 11.498 11.874 11.281C11.439 11.095 10.977 11 10.5 11C10.357 11 10.22 11.026 10.081 11.042C10.247 10.531 10.673 10.131 11.226 10.029C11.634 9.954 11.954 9.634 12.029 9.226C12.16 8.516 12.779 8 13.5 8C14.327 8 15 8.673 15 9.5V22.5ZM23.909 18.566C23.899 18.6 23.889 18.634 23.878 18.667C23.813 18.846 23.729 19.016 23.617 19.168C23.614 19.172 23.61 19.176 23.607 19.181C23.362 19.508 23.016 19.763 22.601 19.894C22.594 19.896 22.59 19.902 22.583 19.904C22.397 19.96 22.204 20 22 20C21.722 20 21.453 19.944 21.201 19.834C20.693 19.611 20.105 19.846 19.885 20.352C19.664 20.858 19.895 21.448 20.402 21.668C20.88 21.876 21.389 21.979 21.912 21.991C21.71 22.569 21.171 22.989 20.528 23C20.192 22.971 19.889 23.137 19.693 23.396C19.402 23.78 18.968 24 18.5 24C17.673 24 17 23.327 17 22.5V9.5C17 8.673 17.673 8 18.5 8C19.221 8 19.84 8.516 19.971 9.227C20.046 9.635 20.366 9.955 20.774 10.03C21.327 10.132 21.753 10.532 21.919 11.043C21.78 11.026 21.643 11 21.5 11C21.023 11 20.561 11.095 20.125 11.281C19.617 11.498 19.382 12.086 19.599 12.594C19.816 13.101 20.403 13.34 20.912 13.119C21.098 13.04 21.295 13 21.5 13C21.791 13 22.061 13.087 22.291 13.231C22.291 13.231 22.293 13.233 22.295 13.234C22.505 13.367 22.672 13.546 22.792 13.75C22.805 13.772 22.817 13.795 22.829 13.818C22.871 13.898 22.903 13.982 22.93 14.069C22.938 14.097 22.949 14.124 22.956 14.153C22.983 14.266 23 14.381 23 14.5C23 14.714 22.949 14.93 22.848 15.142C22.828 15.184 22.826 15.229 22.812 15.272C22.799 15.313 22.786 15.352 22.778 15.394C22.761 15.486 22.76 15.577 22.769 15.669C22.772 15.696 22.77 15.722 22.775 15.748C22.796 15.865 22.836 15.976 22.897 16.079C22.899 16.081 22.899 16.084 22.9 16.087C22.968 16.199 23.052 16.303 23.164 16.383C23.469 16.603 23.689 16.896 23.83 17.224C23.933 17.468 24 17.729 24 18C24 18.196 23.963 18.385 23.909 18.566Z" fill="url(#paint1_linear_132_1565)"/>
<defs>
<linearGradient id="paint0_linear_132_1565" x1="0" y1="0" x2="35.3058" y2="4.19808" gradientUnits="userSpaceOnUse">
<stop stop-color="#0497DC"/>
<stop offset="1" stop-color="#465CE0"/>
</linearGradient>
<linearGradient id="paint1_linear_132_1565" x1="6" y1="6" x2="28.0661" y2="8.6238" gradientUnits="userSpaceOnUse">
<stop stop-color="#0497DC"/>
<stop offset="1" stop-color="#465CE0"/>
</linearGradient>
</defs>
</svg>
