<svg width="32" height="32" viewBox="0 0 32 32" fill="none" xmlns="http://www.w3.org/2000/svg">
<rect width="32" height="32" rx="6" fill="#EBF5FF"/>
<rect x="0.5" y="0.5" width="31" height="31" rx="5.5" stroke="url(#paint0_linear_132_977)" stroke-opacity="0.7"/>
<path fill-rule="evenodd" clip-rule="evenodd" d="M16.0002 7.5C16.5524 7.5 17.0002 7.94772 17.0002 8.5V10H17.6668C17.6812 10 17.6956 10.0003 17.71 10.0009C18.4079 10.0311 19.0809 10.2694 19.6423 10.6852C20.2037 11.1011 20.6277 11.6754 20.86 12.3343C21.0435 12.8551 20.7701 13.4262 20.2492 13.6098C19.7284 13.7934 19.1573 13.5199 18.9737 12.9991C18.8742 12.7167 18.6924 12.4706 18.4518 12.2923C18.2163 12.1179 17.9349 12.0163 17.6425 12H14.3335C13.9357 12 13.5541 12.158 13.2728 12.4393C12.9915 12.7206 12.8335 13.1022 12.8335 13.5C12.8335 13.8978 12.9915 14.2794 13.2728 14.5607C13.5541 14.842 13.9357 15 14.3335 15H17.6668C18.5951 15 19.4853 15.3687 20.1417 16.0251C20.7981 16.6815 21.1668 17.5717 21.1668 18.5C21.1668 19.4283 20.7981 20.3185 20.1417 20.9749C19.4853 21.6313 18.5951 22 17.6668 22H17.0002V23.5C17.0002 24.0523 16.5524 24.5 16.0002 24.5C15.4479 24.5 15.0002 24.0523 15.0002 23.5V22H14.3335C14.3191 22 14.3047 21.9997 14.2904 21.9991C13.5924 21.9689 12.9194 21.7306 12.358 21.3148C11.7967 20.8989 11.3726 20.3246 11.1404 19.6657C10.9568 19.1449 11.2302 18.5738 11.7511 18.3902C12.272 18.2066 12.8431 18.4801 13.0266 19.0009C13.1262 19.2833 13.3079 19.5294 13.5485 19.7077C13.784 19.8821 14.0654 19.9837 14.3578 20H17.6668C18.0647 20 18.4462 19.842 18.7275 19.5607C19.0088 19.2794 19.1668 18.8978 19.1668 18.5C19.1668 18.1022 19.0088 17.7206 18.7275 17.4393C18.4462 17.158 18.0647 17 17.6668 17H14.3335C13.4052 17 12.515 16.6313 11.8586 15.9749C11.2022 15.3185 10.8335 14.4283 10.8335 13.5C10.8335 12.5717 11.2022 11.6815 11.8586 11.0251C12.515 10.3687 13.4052 10 14.3335 10H15.0002V8.5C15.0002 7.94772 15.4479 7.5 16.0002 7.5Z" fill="url(#paint1_linear_132_977)"/>
<defs>
<linearGradient id="paint0_linear_132_977" x1="0" y1="0" x2="35.3058" y2="4.19808" gradientUnits="userSpaceOnUse">
<stop stop-color="#0497DC"/>
<stop offset="1" stop-color="#465CE0"/>
</linearGradient>
<linearGradient id="paint1_linear_132_977" x1="10.8335" y1="7.5" x2="22.3354" y2="8.33132" gradientUnits="userSpaceOnUse">
<stop stop-color="#0497DC"/>
<stop offset="1" stop-color="#465CE0"/>
</linearGradient>
</defs>
</svg>
