<svg width="32" height="32" viewBox="0 0 32 32" fill="none" xmlns="http://www.w3.org/2000/svg">
<path d="M13.3323 14.6667H7.99898C7.64536 14.6667 7.30622 14.5262 7.05617 14.2761C6.80613 14.0261 6.66565 13.687 6.66565 13.3333L6.66565 9.33333C6.66565 8.97971 6.80613 8.64057 7.05617 8.39052C7.30622 8.14048 7.64536 8 7.99898 8L11.999 8C12.3526 8 12.6917 8.14048 12.9418 8.39052C13.1918 8.64057 13.3323 8.97971 13.3323 9.33333V17.3333C13.3323 20.8893 11.555 23.1107 7.99898 24M25.3323 14.6667L19.999 14.6667C19.6454 14.6667 19.3062 14.5262 19.0562 14.2761C18.8061 14.0261 18.6656 13.687 18.6656 13.3333V9.33333C18.6656 8.97971 18.8061 8.64057 19.0562 8.39052C19.3062 8.14048 19.6454 8 19.999 8H23.999C24.3526 8 24.6917 8.14048 24.9418 8.39052C25.1918 8.64057 25.3323 8.97971 25.3323 9.33333V17.3333C25.3323 20.8893 23.555 23.1107 19.999 24" stroke="#D1D5DB" stroke-width="2.66667" stroke-linecap="round" stroke-linejoin="round"/>
</svg>
