<svg fill="none" height="155" viewBox="0 0 256 155" width="256" xmlns="http://www.w3.org/2000/svg" xmlns:xlink="http://www.w3.org/1999/xlink"><clipPath id="a"><path d="m13.8181 130.604h6.36364v6.36364h-6.36364z"/></clipPath><path d="m12.8849 29.7856v-10.1818h4.0171c.7722 0 1.4301.1475 1.9737.4425.5436.2917.9579.6977 1.2429 1.218.2884.5171.4325 1.1137.4325 1.7898s-.1458 1.2727-.4375 1.7898c-.2916.517-.7142.9197-1.2677 1.2081-.5502.2883-1.2164.4325-1.9986.4325h-2.5604v-1.7251h2.2124c.4143 0 .7557-.0713 1.0241-.2138.2718-.1458.474-.3464.6066-.6016.1359-.2585.2038-.5551.2038-.8899 0-.3381-.0679-.633-.2038-.8849-.1326-.2552-.3348-.4524-.6066-.5917-.2717-.1425-.6164-.2137-1.0341-.2137h-1.4517v8.4218zm9.0247 0v-7.6363h2.0533v1.3324h.0795c.1392-.474.3729-.8319.701-1.0739.3282-.2453.706-.3679 1.1336-.3679.106 0 .2204.0066.343.0199.1226.0132.2303.0315.3231.0547v1.8792c-.0994-.0298-.2369-.0563-.4126-.0795s-.3364-.0348-.4822-.0348c-.3116 0-.59.0679-.8353.2038-.2419.1326-.4342.3182-.5767.5568-.1392.2387-.2088.5138-.2088.8253v4.3203zm8.8234.1492c-.7723 0-1.4401-.1641-2.0036-.4922-.5601-.3314-.9927-.7921-1.2976-1.3821-.3049-.5933-.4574-1.281-.4574-2.0632 0-.7888.1525-1.4782.4574-2.0682.3049-.5933.7375-1.054 1.2976-1.3821.5635-.3314 1.2313-.4972 2.0036-.4972.7722 0 1.4384.1658 1.9985.4972.5635.3281.9977.7888 1.3026 1.3821.3049.59.4574 1.2794.4574 2.0682 0 .7822-.1525 1.4699-.4574 2.0632-.3049.59-.7391 1.0507-1.3026 1.3821-.5601.3281-1.2263.4922-1.9985.4922zm.0099-1.6406c.3513 0 .6446-.0995.88-.2983.2353-.2022.4126-.4773.5319-.8253.1227-.348.184-.7441.184-1.1882 0-.4442-.0613-.8402-.184-1.1882-.1193-.348-.2966-.6231-.5319-.8253-.2354-.2022-.5287-.3033-.88-.3033-.3546 0-.6529.1011-.8949.3033-.2386.2022-.4193.4773-.5419.8253-.1193.348-.179.744-.179 1.1882 0 .4441.0597.8402.179 1.1882.1226.348.3033.6231.5419.8253.242.1988.5403.2983.8949.2983z" fill="#6b7280"/><rect fill="#dbeafe" height="16" rx="3" width="67" x="41" y="16.2856"/><path d="m47.6169 21.0311h1.3865l1.8568 4.5321h.0733l1.8568-4.5321h1.3865v6.2545h-1.0872v-4.2969h-.058l-1.7285 4.2786h-.8124l-1.7286-4.2878h-.058v4.3061h-1.0872zm9.7911 6.3462c-.4581 0-.8552-.1008-1.1911-.3024-.3359-.2015-.5965-.4835-.7818-.8459-.1833-.3624-.2749-.7859-.2749-1.2705s.0916-.9091.2749-1.2735c.1853-.3644.4459-.6474.7818-.849s.733-.3023 1.1911-.3023.8551.1007 1.191.3023.5955.4846.7788.849c.1852.3644.2779.7889.2779 1.2735s-.0927.9081-.2779 1.2705c-.1833.3624-.4429.6444-.7788.8459-.3359.2016-.7329.3024-1.191.3024zm.0061-.8857c.2484 0 .456-.0682.623-.2046.1669-.1385.2911-.3237.3726-.5558.0834-.2321.1252-.4907.1252-.7757 0-.2871-.0418-.5467-.1252-.7788-.0815-.2341-.2057-.4204-.3726-.5589-.167-.1384-.3746-.2077-.623-.2077-.2545 0-.4663.0693-.6353.2077-.1669.1385-.2921.3248-.3756.5589-.0814.2321-.1222.4917-.1222.7788 0 .285.0408.5436.1222.7757.0835.2321.2087.4173.3756.5558.169.1364.3808.2046.6353.2046zm6.8874-2.6569-1.0078.1099c-.0285-.1018-.0784-.1975-.1496-.2871-.0692-.0896-.1629-.1618-.281-.2168s-.2626-.0825-.4336-.0825c-.2301 0-.4235.0499-.5803.1497-.1547.0997-.2311.229-.229.3878-.0021.1364.0478.2474.1496.3329.1038.0855.2749.1558.5131.2107l.8001.1711c.4439.0957.7737.2473.9895.455.2178.2077.3278.4795.3298.8154-.002.2952-.0885.5558-.2596.7818-.1689.224-.4041.3991-.7054.5253-.3014.1262-.6475.1894-1.0384.1894-.5741 0-1.0363-.1202-1.3865-.3604-.3502-.2423-.5589-.5792-.6261-1.0109l1.0781-.1038c.0489.2117.1527.3716.3115.4795s.3655.1618.62.1618c.2626 0 .4733-.0539.6321-.1618.1609-.1079.2413-.2413.2413-.4001 0-.1344-.0519-.2453-.1558-.3329-.1018-.0875-.2606-.1547-.4764-.2015l-.8001-.168c-.45-.0937-.7829-.2515-.9987-.4734-.2158-.2239-.3227-.5069-.3206-.849-.0021-.2891.0763-.5395.2351-.7513.1609-.2137.3838-.3787.6688-.4947.2871-.1181.618-.1771.9926-.1771.5497 0 .9824.117 1.2979.3512.3176.2341.5141.5507.5894.9498zm3.3548-1.24v.8551h-2.6966v-.8551zm-2.0309-1.1238h1.1056v4.4038c0 .1486.0224.2626.0672.3421.0468.0773.1079.1303.1832.1588s.1588.0427.2504.0427c.0693 0 .1324-.0051.1894-.0153.059-.0101.1038-.0193.1344-.0274l.1863.8642c-.0591.0204-.1436.0428-.2535.0672-.1079.0245-.2403.0387-.397.0428-.2769.0081-.5263-.0336-.7483-.1252-.2219-.0937-.398-.2382-.5283-.4337-.1283-.1955-.1914-.4398-.1894-.733zm5.0887 7.5738v-6.45h1.0873v.7757h.0641c.057-.114.1374-.2351.2412-.3634.1039-.1303.2444-.2412.4215-.3329.1771-.0936.4031-.1404.678-.1404.3624 0 .6892.0926.9803.2779.2932.1832.5253.455.6963.8154.1731.3583.2596.7981.2596 1.3193 0 .5151-.0845.9528-.2535 1.3132s-.399.6352-.6902.8246c-.2911.1893-.621.284-.9895.284-.2687 0-.4917-.0448-.6688-.1344s-.3196-.1975-.4275-.3237c-.1059-.1283-.1884-.2494-.2474-.3634h-.0458v2.4981zm1.0842-4.1045c0 .3034.0428.569.1283.7971.0875.228.2127.4062.3756.5344.1649.1263.3644.1894.5986.1894.2443 0 .4489-.0652.6138-.1955.1649-.1323.2891-.3125.3726-.5405.0855-.2301.1283-.4917.1283-.7849 0-.2912-.0418-.5497-.1252-.7757-.0835-.226-.2077-.4031-.3726-.5314s-.3706-.1924-.6169-.1924c-.2362 0-.4367.0621-.6017.1863-.1649.1242-.2901.2983-.3756.5222-.0835.224-.1252.4876-.1252.791zm6.337 2.4371c-.4581 0-.8551-.1008-1.1911-.3024-.3359-.2015-.5965-.4835-.7818-.8459-.1832-.3624-.2748-.7859-.2748-1.2705s.0916-.9091.2748-1.2735c.1853-.3644.4459-.6474.7818-.849.336-.2016.733-.3023 1.1911-.3023s.8551.1007 1.1911.3023c.3359.2016.5955.4846.7787.849.1853.3644.2779.7889.2779 1.2735s-.0926.9081-.2779 1.2705c-.1832.3624-.4428.6444-.7787.8459-.336.2016-.733.3024-1.1911.3024zm.0061-.8857c.2484 0 .4561-.0682.623-.2046.167-.1385.2912-.3237.3726-.5558.0835-.2321.1252-.4907.1252-.7757 0-.2871-.0417-.5467-.1252-.7788-.0814-.2341-.2056-.4204-.3726-.5589-.1669-.1384-.3746-.2077-.623-.2077-.2545 0-.4662.0693-.6352.2077-.167.1385-.2922.3248-.3757.5589-.0814.2321-.1221.4917-.1221.7788 0 .285.0407.5436.1221.7757.0835.2321.2087.4173.3757.5558.169.1364.3807.2046.6352.2046zm3.18 2.5531v-6.45h1.0872v.7757h.0641c.057-.114.1374-.2351.2413-.3634.1038-.1303.2443-.2412.4214-.3329.1772-.0936.4032-.1404.678-.1404.3624 0 .6892.0926.9803.2779.2932.1832.5253.455.6963.8154.1731.3583.2596.7981.2596 1.3193 0 .5151-.0845.9528-.2535 1.3132-.1689.3604-.399.6352-.6901.8246-.2912.1893-.621.284-.9895.284-.2688 0-.4917-.0448-.6689-.1344-.1771-.0896-.3196-.1975-.4275-.3237-.1059-.1283-.1883-.2494-.2474-.3634h-.0458v2.4981zm1.0841-4.1045c0 .3034.0428.569.1283.7971.0875.228.2128.4062.3756.5344.1649.1263.3645.1894.5986.1894.2443 0 .4489-.0652.6139-.1955.1649-.1323.2891-.3125.3725-.5405.0856-.2301.1283-.4917.1283-.7849 0-.2912-.0417-.5497-.1252-.7757s-.2077-.4031-.3726-.5314-.3705-.1924-.6169-.1924c-.2362 0-.4367.0621-.6016.1863s-.2902.2983-.3757.5222c-.0834.224-.1252.4876-.1252.791zm7.2807.3726v-2.7181h1.1055v4.6909h-1.0719v-.8337h-.0489c-.1058.2627-.2799.4774-.5222.6444-.2402.1669-.5365.2504-.8887.2504-.3074 0-.5792-.0682-.8154-.2046-.2342-.1384-.4174-.339-.5497-.6016-.1324-.2647-.1985-.5844-.1985-.959v-2.9868h1.1055v2.8158c0 .2973.0814.5334.2443.7085s.3767.2627.6414.2627c.1628 0 .3206-.0397.4733-.1191s.2779-.1975.3757-.3543c.0997-.1588.1496-.3573.1496-.5955zm3.3479-4.2817v6.2545h-1.1055v-6.2545zm2.4867 6.3492c-.2972 0-.565-.0529-.8032-.1588-.2361-.1079-.4235-.2667-.5619-.4764-.1364-.2097-.2046-.4683-.2046-.7757 0-.2647.0488-.4836.1466-.6566.0977-.1731.2311-.3115.4-.4154.169-.1038.3594-.1822.5711-.2351.2138-.055.4347-.0947.6628-.1191.2748-.0285.4978-.054.6688-.0764.171-.0244.2952-.0611.3726-.1099.0794-.0509.1191-.1293.1191-.2352v-.0183c0-.2301-.0682-.4082-.2047-.5344-.1364-.1263-.3328-.1894-.5894-.1894-.2708 0-.4856.0591-.6444.1771-.1567.1181-.2626.2576-.3176.4184l-1.0322-.1466c.0814-.285.2158-.5232.4031-.7146.1873-.1934.4164-.338.6872-.4337.2707-.0977.57-.1465.8978-.1465.226 0 .451.0264.675.0794.2239.0529.4285.1404.6138.2626.1853.1201.3339.284.4459.4917.114.2077.171.4672.171.7788v3.1394h-1.0628v-.6443h-.0366c-.0672.1303-.1619.2524-.284.3664-.1202.112-.2719.2026-.4551.2718-.1812.0672-.394.1008-.6383.1008zm.2871-.8123c.2219 0 .4143-.0438.5772-.1314.1629-.0895.2881-.2076.3756-.3542.0896-.1466.1344-.3064.1344-.4795v-.5528c-.0346.0285-.0936.055-.1771.0794-.0815.0245-.1731.0458-.2749.0642-.1018.0183-.2025.0346-.3023.0488-.0998.0143-.1863.0265-.2596.0367-.1649.0224-.3125.059-.4428.1099s-.2331.1222-.3085.2138c-.0753.0896-.113.2056-.113.3482 0 .2036.0743.3573.223.4611.1486.1038.3379.1558.568.1558zm3.3014.7176v-4.6909h1.0717v.7819h.049c.086-.2708.232-.4795.44-.6261.21-.1486.449-.223.718-.223.061 0 .129.0031.204.0092.078.0041.142.0112.193.0214v1.017c-.047-.0163-.122-.0306-.223-.0428-.1-.0142-.197-.0214-.291-.0214-.201 0-.382.0438-.543.1313-.159.0856-.284.2047-.376.3574-.091.1527-.137.3288-.137.5283v2.7577z" fill="#1e41b1"/><path d="m17.1555 73.3311v-15.4545h.9901v15.4545zm2.6261-10.3533c-.0483-.487-.2556-.8653-.6218-1.135-.3662-.2696-.8633-.4045-1.4911-.4045-.4266 0-.7868.0604-1.0806.1812-.2938.1167-.5192.2797-.6762.4889-.1529.2093-.2294.4468-.2294.7124-.008.2214.0383.4145.1389.5795.1046.1651.2475.3079.4286.4287.1811.1167.3904.2193.6278.3079.2375.0845.491.1569.7607.2173l1.1108.2656c.5393.1207 1.0343.2817 1.4851.483.4507.2012.8411.4487 1.1711.7425.3301.2938.5856.6399.7667 1.0384.1852.3984.2797.8552.2838 1.3703-.0041.7567-.1972 1.4127-.5796 1.9681-.3783.5514-.9256.98-1.642 1.2858-.7124.3019-1.5716.4528-2.5778.4528-.9981 0-1.8674-.1529-2.6079-.4588-.7366-.3059-1.3121-.7586-1.7266-1.3583-.4105-.6037-.6258-1.3503-.646-2.2397h2.5295c.0282.4145.1469.7607.3562 1.0383.2133.2737.497.481.8512.6219.3582.1368.7627.2052 1.2134.2052.4427 0 .8271-.0644 1.1531-.1932.33-.1288.5856-.3079.7667-.5373s.2716-.493.2716-.7908c0-.2777-.0825-.5111-.2475-.7003-.161-.1891-.3984-.3501-.7123-.4829-.3099-.1328-.6903-.2536-1.141-.3623l-1.3463-.338c-1.0423-.2536-1.8654-.65-2.4691-1.1893s-.9035-1.2657-.8995-2.1793c-.004-.7486.1952-1.4026.5977-1.962.4065-.5595.9639-.9961 1.6722-1.31.7084-.314 1.5133-.4709 2.4148-.4709.9176 0 1.7185.1569 2.4027.4709.6882.3139 1.2235.7505 1.6058 1.31.3824.5594.5796 1.2074.5916 1.9439z" fill="#111928"/><path d="m33.4126 72.074c-1.4555 0-2.753-.2678-3.8927-.8033-1.1328-.5355-2.0322-1.2735-2.6982-2.2141-.6659-.9406-1.0126-2.0185-1.0401-3.2337h4.3253c.048.817.3913 1.4796 1.0298 1.9876.6385.5081 1.3972.7621 2.2759.7621.7003 0 1.3182-.1545 1.8537-.4634.5424-.3159.9646-.7518 1.2667-1.3079.309-.563.4634-1.2084.4634-1.9361 0-.7415-.1579-1.3937-.4737-1.9567-.3089-.563-.738-1.0024-1.2873-1.3182-.5492-.3158-1.1774-.4771-1.8845-.484-.6179 0-1.2187.127-1.8022.381-.5768.2541-1.0264.6008-1.3491 1.0402l-3.9649-.7106.999-11.1222h12.8934v3.6456h-9.2169l-.5459 5.2831h.1236c.3708-.5218.9303-.9544 1.6786-1.2976.7484-.3433 1.586-.5149 2.5128-.5149 1.2702 0 2.403.2986 3.3985.8959s1.7816 1.4177 2.3583 2.4613c.5767 1.0367.8616 2.2313.8547 3.5838.0069 1.4212-.3226 2.6844-.9886 3.7898-.6591 1.0985-1.5825 1.9635-2.7702 2.5952-1.1809.6247-2.554.9371-4.1194.9371zm19.2579.1751c-1.7714-.0069-3.2955-.4429-4.5725-1.3079-1.2701-.8651-2.2484-2.118-2.935-3.7589-.6797-1.6409-1.0161-3.6147-1.0092-5.9215 0-2.3.3398-4.2601 1.0195-5.8803.6865-1.6203 1.6649-2.8527 2.935-3.6971 1.277-.8514 2.7977-1.277 4.5622-1.277 1.7644 0 3.2817.4256 4.5518 1.277 1.277.8513 2.2588 2.0871 2.9453 3.7074.6866 1.6134 1.0264 3.57 1.0195 5.87 0 2.3137-.3432 4.2909-1.0298 5.9318-.6797 1.6409-1.6546 2.8938-2.9247 3.7589-1.2701.865-2.7908 1.2976-4.5621 1.2976zm0-3.6971c1.2083 0 2.1729-.6076 2.8938-1.8228s1.0779-3.038 1.071-5.4684c0-1.5997-.1648-2.9316-.4943-3.9958-.3227-1.0641-.7827-1.8639-1.38-2.3995-.5904-.5355-1.2873-.8032-2.0905-.8032-1.2015 0-2.1627.6007-2.8836 1.8022-.7208 1.2014-1.0847 3.0002-1.0916 5.3963 0 1.6203.1614 2.9728.484 4.0575.3296 1.0779.793 1.888 1.3903 2.4304.5973.5355 1.2976.8033 2.1009.8033z" fill="#111928"/><path d="m67.8736 60.6697-3.4219 12.7128h-1.1199l3.4219-12.7128zm1.4504 11.1159v-7.9636h1.1821v1.2443h.1037c.1659-.4251.4338-.7552.8036-.9902.3698-.2385.814-.3578 1.3325-.3578.5253 0 .9626.1193 1.3117.3578.3525.235.6273.5651.8243.9902h.083c.2039-.4113.5098-.7379.9177-.9799.4078-.2454.8969-.3681 1.4672-.3681.7121 0 1.2945.223 1.7473.6688.4528.4425.6792 1.132.6792 2.0687v5.3298h-1.2236v-5.3298c0-.5876-.1607-1.0075-.4822-1.2599-.3214-.2523-.6999-.3784-1.1354-.3784-.56 0-.9938.1693-1.3014.5081-.3076.3352-.4614.7604-.4614 1.2754v5.1846h-1.2443v-5.4542c0-.4528-.1469-.8175-.4407-1.094-.2938-.28-.6723-.4199-1.1355-.4199-.318 0-.6152.0846-.8917.254-.2731.1694-.4943.4044-.6637.7051-.1659.2973-.2488.6412-.2488 1.0318v4.9772zm15.9247.166c-.719 0-1.3498-.1711-1.8924-.5133-.5392-.3422-.9609-.8209-1.2651-1.4362-.3007-.6152-.4511-1.3342-.4511-2.1568 0-.8295.1504-1.5537.4511-2.1724.3042-.6187.7259-1.0991 1.2651-1.4413.5426-.3422 1.1734-.5133 1.8924-.5133.7189 0 1.348.1711 1.8872.5133.5426.3422.9643.8226 1.265 1.4413.3042.6187.4563 1.3429.4563 2.1724 0 .8226-.1521 1.5416-.4563 2.1568-.3007.6153-.7224 1.094-1.265 1.4362-.5392.3422-1.1683.5133-1.8872.5133zm0-1.0992c.5461 0 .9954-.14 1.348-.42.3525-.2799.6135-.648.7829-1.1043.1693-.4562.254-.9505.254-1.4828s-.0847-1.0283-.254-1.488c-.1694-.4597-.4304-.8313-.7829-1.1147-.3526-.2834-.8019-.4251-1.348-.4251s-.9955.1417-1.348.4251c-.3526.2834-.6136.655-.7829 1.1147-.1694.4597-.2541.9557-.2541 1.488s.0847 1.0266.2541 1.4828c.1693.4563.4303.8244.7829 1.1043.3525.28.8019.42 1.348.42zm6.6998-3.8574v4.7906h-1.2235v-7.9636h1.1821v1.2443h.1037c.1866-.4044.47-.7293.8502-.9747.3803-.2489.8711-.3733 1.4725-.3733.5392 0 1.011.1106 1.4154.3318.4044.2178.7189.5496.9436.9955.2247.4424.337 1.0024.337 1.6798v5.0602h-1.2236v-4.9772c0-.6256-.1624-1.113-.4873-1.4621-.3249-.3526-.7708-.5288-1.3377-.5288-.3905 0-.7396.0846-1.0473.254-.3041.1694-.5444.4165-.7206.7414-.1763.3249-.2645.719-.2645 1.1821zm10.7805-3.173v1.0369h-4.1272v-1.0369zm-2.9244-1.9079h1.2234v7.5903c0 .3456.05.6049.151.7777.103.1694.235.2834.394.3422.162.0553.333.0829.513.0829.135 0 .245-.0069.332-.0207.086-.0173.155-.0311.207-.0415l.249 1.0992c-.083.0311-.199.0622-.347.0933-.149.0346-.337.0518-.566.0518-.345 0-.684-.0743-1.016-.2229-.328-.1486-.601-.375-.819-.6792-.2143-.3042-.3214-.6878-.3214-1.151zm6.1594 5.0809v4.7906h-1.224v-10.6181h1.224v3.8988h.104c.186-.4113.466-.7379.84-.9799.376-.2454.878-.3681 1.503-.3681.543 0 1.018.1089 1.426.3266.408.2143.724.5444.949.9903.228.4424.342 1.0058.342 1.6902v5.0602h-1.224v-4.9772c0-.6326-.164-1.1216-.492-1.4673-.325-.3491-.776-.5236-1.353-.5236-.401 0-.761.0846-1.079.254-.314.1694-.563.4165-.746.7414-.18.3249-.27.719-.27 1.1821z" fill="#6b7280"/><path d="m12.9511 93.7856v-7.8545h4.7097v.8437h-3.7585v2.654h3.4057v.8438h-3.4057v3.513zm8.1767.1228c-.5318 0-.9984-.1266-1.3998-.3797-.3989-.2531-.7108-.6073-.9358-1.0624-.2225-.4551-.3337-.9869-.3337-1.5954 0-.6137.1112-1.1493.3337-1.607.225-.4577.5369-.8131.9358-1.0662.4014-.2531.868-.3797 1.3998-.3797.5319 0 .9972.1266 1.3961.3797.4014.2531.7133.6085.9358 1.0662.225.4577.3375.9933.3375 1.607 0 .6085-.1125 1.1403-.3375 1.5954-.2225.4551-.5344.8093-.9358 1.0624-.3989.2531-.8642.3797-1.3961.3797zm0-.8131c.404 0 .7364-.1035.9972-.3106.2608-.2072.4538-.4795.5791-.817s.1879-.7031.1879-1.0968c0-.3938-.0626-.7607-.1879-1.1007-.1253-.3401-.3183-.615-.5791-.8246-.2608-.2097-.5932-.3145-.9972-.3145-.4039 0-.7363.1048-.9971.3145-.2608.2096-.4539.4845-.5791.8246-.1253.34-.188.7069-.188 1.1007 0 .3937.0627.7593.188 1.0968.1252.3375.3183.6098.5791.817.2608.2071.5932.3106.9971.3106zm4.051.6903v-5.8909h.8744v.8898h.0614c.1074-.2915.3017-.528.583-.7095.2812-.1815.5982-.2723.9511-.2723.0665 0 .1496.0013.2493.0038.0997.0026.1751.0064.2263.0115v.9205c-.0307-.0077-.101-.0192-.211-.0345-.1074-.0179-.2211-.0269-.3413-.0269-.2864 0-.5421.0601-.7671.1803-.2224.1176-.3988.2812-.5292.4909-.1279.2071-.1918.4436-.1918.7095v3.7278zm11.2286-4.5715-.8131.2301c-.0511-.1355-.1265-.2672-.2263-.3951-.0971-.1304-.2301-.2377-.3988-.3221-.1688-.0844-.3848-.1266-.6482-.1266-.3605 0-.6609.0831-.9013.2493-.2377.1636-.3566.372-.3566.6251 0 .225.0818.4027.2454.5331.1637.1304.4193.2391.7671.326l.8744.2148c.5267.1279.9192.3234 1.1774.5868.2583.2608.3874.597.3874 1.0087 0 .3375-.0972.6392-.2915.9051-.1918.2659-.4602.4755-.8054.629-.3452.1534-.7466.2301-1.2043.2301-.6008 0-1.0981-.1304-1.4919-.3912-.3937-.2608-.643-.6418-.7478-1.1429l.8591-.2148c.0818.3171.2365.5548.464.7134.2301.1585.5306.2377.9013.2377.4219 0 .7568-.0894 1.0048-.2684.2506-.1816.3759-.3989.3759-.652 0-.2046-.0716-.3759-.2148-.5139-.1432-.1407-.3631-.2455-.6597-.3145l-.9818-.2301c-.5395-.1279-.9358-.326-1.1889-.5945-.2506-.271-.3758-.6098-.3758-1.0163 0-.3324.0933-.6264.2799-.8821.1892-.2557.4462-.4564.7709-.6022.3273-.1457.698-.2186 1.1122-.2186.583 0 1.0406.1279 1.373.3836.335.2556.5728.5931.7134 1.0125zm4.0318-1.3194v.7671h-3.0529v-.7671zm-2.1631-1.4113h.9051v5.6147c0 .2557.0371.4475.1112.5753.0767.1253.1739.2097.2915.2532.1202.0409.2467.0613.3797.0613.0997 0 .1815-.0051.2455-.0153.0639-.0128.115-.023.1534-.0307l.1841.8131c-.0614.023-.1471.046-.257.069-.1099.0256-.2493.0383-.418.0383-.2557 0-.5063-.0549-.7517-.1649-.2429-.1099-.4449-.2774-.606-.5024-.1585-.225-.2378-.5088-.2378-.8514zm5.2581 7.4403c-.3733 0-.7121-.0703-1.0163-.2109-.3043-.1432-.5459-.349-.7249-.6175-.179-.271-.2685-.5983-.2685-.9818 0-.3375.0665-.6111.1995-.8208.1329-.2122.3106-.3784.5331-.4985.2224-.1202.4679-.2097.7363-.2685.2711-.0614.5434-.1099.8169-.1457.358-.0461.6482-.0806.8706-.1036.225-.0256.3887-.0677.4909-.1266.1049-.0588.1573-.161.1573-.3068v-.0307c0-.3784-.1036-.6724-.3107-.8821-.2045-.2096-.5152-.3144-.9319-.3144-.4321 0-.7709.0946-1.0164.2838-.2454.1892-.418.3912-.5177.6059l-.8591-.3068c.1534-.3579.3579-.6366.6136-.8361.2583-.202.5395-.3426.8438-.4218.3068-.0819.6085-.1228.9051-.1228.1892 0 .4065.023.652.0691.248.0434.4871.1342.7172.2723.2326.138.4257.3464.5791.6251s.2301.652.2301 1.1199v3.8812h-.9051v-.7977h-.046c-.0614.1279-.1637.2646-.3069.4104-.1431.1457-.3336.2697-.5714.372s-.528.1534-.8706.1534zm.1381-.8131c.3579 0 .6596-.0703.9051-.2109.248-.1406.4346-.3222.5599-.5446.1279-.2224.1918-.4564.1918-.7018v-.8285c-.0384.0461-.1227.0883-.2531.1266-.1279.0358-.2762.0678-.4449.0959-.1662.0256-.3286.0486-.4871.069-.156.0179-.2825.0333-.3797.046-.2352.0307-.4551.0806-.6596.1496-.202.0665-.3657.1675-.491.303-.1227.133-.184.3145-.184.5446 0 .3145.1163.5523.349.7134.2352.1585.5331.2377.8936.2377zm4.2139.675v-5.8909h.8745v.8898h.0613c.1074-.2915.3017-.528.583-.7095.2812-.1815.5983-.2723.9511-.2723.0665 0 .1496.0013.2493.0038.0997.0026.1751.0064.2263.0115v.9205c-.0307-.0077-.101-.0192-.211-.0345-.1073-.0179-.2211-.0269-.3413-.0269-.2864 0-.542.0601-.767.1803-.2225.1176-.3989.2812-.5293.4909-.1278.2071-.1918.4436-.1918.7095v3.7278zm6.9495-5.8909v.7671h-3.0529v-.7671zm-2.1631-1.4113h.9051v5.6147c0 .2557.0371.4475.1112.5753.0767.1253.1739.2097.2915.2532.1202.0409.2467.0613.3797.0613.0997 0 .1815-.0051.2454-.0153.064-.0128.1151-.023.1534-.0307l.1841.8131c-.0613.023-.147.046-.2569.069-.11.0256-.2493.0383-.4181.0383-.2556 0-.5062-.0549-.7517-.1649-.2429-.1099-.4449-.2774-.6059-.5024-.1586-.225-.2378-.5088-.2378-.8514zm7.2371 4.8937v-3.4824h.9051v5.8909h-.9051v-.9971h-.0614c-.1381.2991-.3528.5535-.6443.7632-.2915.2071-.6597.3106-1.1046.3106-.3681 0-.6954-.0805-.9818-.2416-.2863-.1636-.5113-.4091-.675-.7363-.1636-.3299-.2454-.7453-.2454-1.2465v-3.7432h.9051v3.6819c0 .4295.1201.7721.3605 1.0278.2429.2557.5523.3835.9281.3835.225 0 .4538-.0575.6865-.1726.2352-.115.4321-.2914.5906-.5292.1611-.2378.2417-.5408.2417-.909zm2.5629 4.6176v-8.1h.8744v.9358h.1074c.0664-.1022.1585-.2326.2761-.3912.1202-.161.2915-.3042.5139-.4295.225-.1278.5293-.1918.9128-.1918.496 0 .9332.124 1.3117.372.3784.2481.6737.5996.8859 1.0547s.3183.9921.3183 1.6108c0 .6239-.1061 1.1647-.3183 1.6223-.2122.4551-.5063.808-.8821 1.0586-.3759.248-.8092.372-1.3001.372-.3785 0-.6814-.0627-.909-.188-.2276-.1278-.4027-.2723-.5254-.4333-.1228-.1637-.2174-.2992-.2838-.4066h-.0767v3.1142zm.8897-5.1545c0 .4449.0652.8373.1956 1.1774.1304.3375.3209.6021.5715.7939.2505.1892.5574.2838.9204.2838.3784 0 .6942-.0997.9473-.2991.2557-.202.4475-.4731.5753-.8131.1304-.3426.1956-.7236.1956-1.1429 0-.4142-.0639-.7875-.1918-1.1199-.1252-.3349-.3157-.5996-.5714-.7939-.2531-.1969-.5715-.2953-.955-.2953-.3682 0-.6775.0933-.9281.28-.2506.1841-.4398.4423-.5676.7747-.1279.3298-.1918.7146-.1918 1.1544zm9.8642-1.6261-.813.2301c-.0512-.1355-.1266-.2672-.2263-.3951-.0972-.1304-.2301-.2377-.3989-.3221-.1687-.0844-.3848-.1266-.6481-.1266-.3605 0-.661.0831-.9013.2493-.2378.1636-.3567.372-.3567.6251 0 .225.0818.4027.2455.5331.1636.1304.4193.2391.767.326l.8744.2148c.5267.1279.9192.3234 1.1775.5868.2582.2608.3873.597.3873 1.0087 0 .3375-.0971.6392-.2915.9051-.1917.2659-.4602.4755-.8054.629-.3451.1534-.7466.2301-1.2042.2301-.6009 0-1.0982-.1304-1.4919-.3912-.3938-.2608-.6431-.6418-.7479-1.1429l.8591-.2148c.0818.3171.2365.5548.4641.7134.2301.1585.5305.2377.9012.2377.4219 0 .7569-.0894 1.0049-.2684.2505-.1816.3758-.3989.3758-.652 0-.2046-.0716-.3759-.2148-.5139-.1431-.1407-.363-.2455-.6596-.3145l-.9818-.2301c-.5395-.1279-.9358-.326-1.189-.5945-.2505-.271-.3758-.6098-.3758-1.0163 0-.3324.0933-.6264.28-.8821.1892-.2557.4461-.4564.7708-.6022.3273-.1457.6981-.2186 1.1123-.2186.5829 0 1.0406.1279 1.373.3836.3349.2556.5727.5931.7133 1.0125zm5.842 4.5715-1.7948-5.8909h.9511l1.2733 4.5103h.0613l1.258-4.5103h.9665l1.2426 4.4949h.0614l1.2733-4.4949h.9511l-1.7949 5.8909h-.8898l-1.2886-4.5255h-.0921l-1.2886 4.5255zm9.1739.1381c-.3733 0-.7121-.0703-1.0163-.2109-.3043-.1432-.5459-.349-.7249-.6175-.179-.271-.2685-.5983-.2685-.9818 0-.3375.0665-.6111.1995-.8208.1329-.2122.3106-.3784.5331-.4985.2224-.1202.4679-.2097.7363-.2685.2711-.0614.5434-.1099.8169-.1457.358-.0461.6482-.0806.8706-.1036.225-.0256.3887-.0677.4909-.1266.1049-.0588.1573-.161.1573-.3068v-.0307c0-.3784-.1036-.6724-.3107-.8821-.2045-.2096-.5152-.3144-.9319-.3144-.4321 0-.7709.0946-1.0164.2838-.2454.1892-.418.3912-.5177.6059l-.8591-.3068c.1534-.3579.358-.6366.6136-.8361.2583-.202.5395-.3426.8438-.4218.3068-.0819.6085-.1228.9051-.1228.1892 0 .4065.023.652.0691.248.0434.4871.1342.7172.2723.2326.138.4257.3464.5791.6251s.2301.652.2301 1.1199v3.8812h-.9051v-.7977h-.046c-.0614.1279-.1637.2646-.3068.4104-.1432.1457-.3337.2697-.5715.372s-.528.1534-.8706.1534zm.1381-.8131c.3579 0 .6596-.0703.9051-.2109.248-.1406.4346-.3222.5599-.5446.1279-.2224.1918-.4564.1918-.7018v-.8285c-.0384.0461-.1227.0883-.2531.1266-.1279.0358-.2762.0678-.4449.0959-.1662.0256-.3286.0486-.4871.069-.156.0179-.2825.0333-.3797.046-.2352.0307-.4551.0806-.6596.1496-.202.0665-.3657.1675-.4909.303-.1228.133-.1841.3145-.1841.5446 0 .3145.1163.5523.349.7134.2352.1585.5331.2377.8936.2377zm5.119-2.8687v3.5437h-.9051v-5.8909h.8745v.9205h.0767c.138-.2992.3477-.5395.6289-.721.2813-.1841.6444-.2762 1.0892-.2762.3989 0 .7479.0818 1.0471.2455.2991.1611.5318.4065.698.7363.1662.3273.2493.7415.2493 1.2427v3.7431h-.9051v-3.6818c0-.4628-.1202-.8233-.3606-1.0815-.2403-.2608-.5701-.3912-.9894-.3912-.289 0-.5472.0626-.7748.1879-.225.1253-.4027.3081-.5331.5485-.1304.2403-.1956.5318-.1956.8744zm7.9745-2.3472v.7671h-3.0529v-.7671zm-2.1631-1.4113h.9051v5.6147c0 .2557.037.4475.111.5753.077.1253.174.2097.292.2532.12.0409.246.0613.379.0613.1 0 .182-.0051.246-.0153.064-.0128.115-.023.153-.0307l.184.8131c-.061.023-.147.046-.257.069-.11.0256-.249.0383-.418.0383-.255 0-.506-.0549-.751-.1649-.2433-.1099-.4453-.2774-.6063-.5024-.1586-.225-.2378-.5088-.2378-.8514zm3.5241 7.3022v-5.8909h.906v5.8909zm.461-6.8727c-.177 0-.329-.0601-.457-.1802-.125-.1202-.188-.2647-.188-.4334 0-.1688.063-.3132.188-.4334.128-.1202.28-.1803.457-.1803.176 0 .327.0601.452.1803.128.1202.192.2646.192.4334 0 .1687-.064.3132-.192.4334-.125.1201-.276.1802-.452.1802zm3.007 3.329v3.5437h-.905v-5.8909h.875v.9205h.076c.139-.2992.348-.5395.629-.721.282-.1841.645-.2762 1.09-.2762.399 0 .748.0818 1.047.2455.299.1611.531.4065.698.7363.166.3273.249.7415.249 1.2427v3.7431h-.905v-3.6818c0-.4628-.12-.8233-.361-1.0815-.24-.2608-.57-.3912-.989-.3912-.289 0-.547.0626-.775.1879-.225.1253-.403.3081-.533.5485-.13.2403-.196.5318-.196.8744zm7.791 5.8756c-.437 0-.813-.0563-1.128-.1688-.314-.1099-.576-.2557-.786-.4372-.207-.179-.372-.3707-.495-.5753l.721-.5062c.082.1073.186.2301.311.3681.125.1407.296.2621.514.3644.22.1048.507.1572.863.1572.475 0 .868-.115 1.177-.3451.31-.2301.464-.5907.464-1.0816v-1.1966h-.076c-.067.1074-.162.2404-.284.3989-.12.156-.294.2953-.522.418-.225.1202-.529.1803-.913.1803-.475 0-.902-.1125-1.281-.3375-.375-.225-.673-.5523-.893-.9818-.218-.4296-.326-.9512-.326-1.5648 0-.6034.106-1.1288.318-1.5763.212-.45.508-.7977.886-1.0432.378-.248.816-.372 1.312-.372.383 0 .687.064.912.1918.228.1253.402.2685.522.4295.123.1586.217.289.284.3912h.092v-.9358h.874v6.0597c0 .5062-.115.9179-.345 1.2349-.227.3196-.534.5536-.92.7019-.384.1508-.811.2263-1.281.2263zm-.031-3.237c.363 0 .67-.0831.921-.2493.25-.1662.441-.4052.571-.7171.13-.312.196-.6853.196-1.1199 0-.4245-.064-.799-.192-1.1238-.128-.3247-.317-.5791-.568-.7632-.25-.1841-.56-.2761-.928-.2761-.383 0-.703.0972-.959.2915-.253.1943-.443.4551-.571.7824-.125.3272-.188.6903-.188 1.0892 0 .4091.064.7708.192 1.0853.13.312.322.5574.575.7364.256.1764.573.2646.951.2646zm9.834-4.9858v.7671h-3.053v-.7671zm-2.163-1.4113h.905v5.6147c0 .2557.037.4475.111.5753.077.1253.174.2097.291.2532.121.0409.247.0613.38.0613.1 0 .182-.0051.245-.0153.064-.0128.116-.023.154-.0307l.184.8131c-.061.023-.147.046-.257.069-.11.0256-.249.0383-.418.0383-.256 0-.506-.0549-.752-.1649-.243-.1099-.445-.2774-.606-.5024-.158-.225-.237-.5088-.237-.8514zm5.854 7.425c-.532 0-.998-.1266-1.4-.3797-.399-.2531-.711-.6073-.936-1.0624-.222-.4551-.333-.9869-.333-1.5954 0-.6137.111-1.1493.333-1.607.225-.4577.537-.8131.936-1.0662.402-.2531.868-.3797 1.4-.3797s.997.1266 1.396.3797c.401.2531.713.6085.936 1.0662.225.4577.337.9933.337 1.607 0 .6085-.112 1.1403-.337 1.5954-.223.4551-.535.8093-.936 1.0624-.399.2531-.864.3797-1.396.3797zm0-.8131c.404 0 .736-.1035.997-.3106.261-.2072.454-.4795.579-.817.126-.3375.188-.7031.188-1.0968 0-.3938-.062-.7607-.188-1.1007-.125-.3401-.318-.615-.579-.8246-.261-.2097-.593-.3145-.997-.3145s-.736.1048-.997.3145c-.261.2096-.454.4845-.579.8246-.126.34-.188.7069-.188 1.1007 0 .3937.062.7593.188 1.0968.125.3375.318.6098.579.817.261.2071.593.3106.997.3106zm7.088.6903v-5.8909h.906v5.8909zm.461-6.8727c-.177 0-.329-.0601-.457-.1802-.125-.1202-.188-.2647-.188-.4334 0-.1688.063-.3132.188-.4334.128-.1202.28-.1803.457-.1803.176 0 .327.0601.452.1803.128.1202.192.2646.192.4334 0 .1687-.064.3132-.192.4334-.125.1201-.276.1802-.452.1802zm3.007 3.329v3.5437h-.905v-5.8909h.875v.9205h.076c.139-.2992.348-.5395.629-.721.282-.1841.645-.2762 1.09-.2762.399 0 .748.0818 1.047.2455.299.1611.532.4065.698.7363.166.3273.249.7415.249 1.2427v3.7431h-.905v-3.6818c0-.4628-.12-.8233-.361-1.0815-.24-.2608-.57-.3912-.989-.3912-.289 0-.547.0626-.775.1879-.225.1253-.403.3081-.533.5485-.13.2403-.196.5318-.196.8744zm7.975-2.3472v.7671h-3.053v-.7671zm-2.163-1.4113h.905v5.6147c0 .2557.037.4475.111.5753.077.1253.174.2097.292.2532.12.0409.246.0613.379.0613.1 0 .182-.0051.246-.0153.064-.0128.115-.023.153-.0307l.184.8131c-.061.023-.147.046-.257.069-.11.0256-.249.0383-.418.0383-.255 0-.506-.0549-.751-.1649-.243-.1099-.445-.2774-.606-.5024-.159-.225-.238-.5088-.238-.8514zm5.931 7.425c-.568 0-1.057-.1253-1.469-.3759-.409-.2531-.725-.6059-.947-1.0585-.22-.4551-.33-.9844-.33-1.5878s.11-1.1352.33-1.5954c.222-.4628.532-.8233.928-1.0816.399-.2608.864-.3912 1.396-.3912.307 0 .61.0512.909.1534.299.1023.571.2685.817.4986.245.2276.441.5293.587.9051.145.3759.218.8387.218 1.3884v.3835h-4.541v-.7824h3.621c0-.3324-.067-.629-.2-.8898-.13-.2607-.317-.4666-.56-.6174-.24-.1509-.524-.2263-.851-.2263-.361 0-.673.0895-.936.2685-.261.1764-.461.4065-.602.6903s-.211.5881-.211.9128v.5216c0 .4449.077.822.23 1.1314.156.3068.372.5407.648.7018.276.1585.597.2378.963.2378.238 0 .453-.0332.644-.0997.195-.069.362-.1713.503-.3068.14-.1381.249-.3094.326-.514l.874.2455c-.092.2966-.247.5574-.464.7824-.217.2224-.486.3963-.805.5216-.32.1227-.679.1841-1.078.1841zm6.194 2.2091c-.437 0-.813-.0563-1.128-.1688-.314-.1099-.576-.2557-.786-.4372-.207-.179-.372-.3707-.495-.5753l.721-.5062c.082.1073.186.2301.311.3681.125.1407.297.2621.514.3644.22.1048.507.1572.863.1572.475 0 .868-.115 1.177-.3451.31-.2301.464-.5907.464-1.0816v-1.1966h-.076c-.067.1074-.161.2404-.284.3989-.12.156-.294.2953-.522.418-.225.1202-.529.1803-.913.1803-.475 0-.902-.1125-1.281-.3375-.375-.225-.673-.5523-.893-.9818-.217-.4296-.326-.9512-.326-1.5648 0-.6034.106-1.1288.318-1.5763.212-.45.508-.7977.886-1.0432.379-.248.816-.372 1.312-.372.383 0 .688.064.913.1918.227.1253.401.2685.521.4295.123.1586.218.289.284.3912h.092v-.9358h.874v6.0597c0 .5062-.115.9179-.345 1.2349-.227.3196-.534.5536-.92.7019-.384.1508-.811.2263-1.281.2263zm-.031-3.237c.363 0 .67-.0831.921-.2493.25-.1662.441-.4052.571-.7171.13-.312.196-.6853.196-1.1199 0-.4245-.064-.799-.192-1.1238-.128-.3247-.317-.5791-.568-.7632-.25-.1841-.56-.2761-.928-.2761-.383 0-.703.0972-.959.2915-.253.1943-.443.4551-.571.7824-.125.3272-.188.6903-.188 1.0892 0 .4091.064.7708.192 1.0853.13.312.322.5574.575.7364.256.1764.573.2646.951.2646zm4.234.9051v-5.8909h.875v.8898h.061c.107-.2915.302-.528.583-.7095s.598-.2723.951-.2723c.067 0 .15.0013.249.0038.1.0026.176.0064.227.0115v.9205c-.031-.0077-.101-.0192-.211-.0345-.108-.0179-.221-.0269-.342-.0269-.286 0-.542.0601-.767.1803-.222.1176-.398.2812-.529.4909-.128.2071-.192.4436-.192.7095v3.7278zm5.752.1381c-.373 0-.712-.0703-1.016-.2109-.304-.1432-.546-.349-.725-.6175-.179-.271-.268-.5983-.268-.9818 0-.3375.066-.6111.199-.8208.133-.2122.311-.3784.533-.4985.222-.1202.468-.2097.736-.2685.271-.0614.544-.1099.817-.1457.358-.0461.648-.0806.871-.1036.225-.0256.389-.0677.491-.1266.105-.0588.157-.161.157-.3068v-.0307c0-.3784-.104-.6724-.311-.8821-.204-.2096-.515-.3144-.932-.3144-.432 0-.77.0946-1.016.2838-.245.1892-.418.3912-.518.6059l-.859-.3068c.154-.3579.358-.6366.614-.8361.258-.202.539-.3426.844-.4218.306-.0819.608-.1228.905-.1228.189 0 .406.023.652.0691.248.0434.487.1342.717.2723.233.138.426.3464.579.6251s.23.652.23 1.1199v3.8812h-.905v-.7977h-.046c-.061.1279-.164.2646-.307.4104-.143.1457-.333.2697-.571.372s-.528.1534-.871.1534zm.138-.8131c.358 0 .66-.0703.905-.2109.248-.1406.435-.3222.56-.5446.128-.2224.192-.4564.192-.7018v-.8285c-.038.0461-.123.0883-.253.1266-.128.0358-.276.0678-.445.0959-.166.0256-.329.0486-.487.069-.156.0179-.283.0333-.38.046-.235.0307-.455.0806-.659.1496-.202.0665-.366.1675-.491.303-.123.133-.184.3145-.184.5446 0 .3145.116.5523.349.7134.235.1585.533.2377.893.2377zm6.776-5.2159v.7671h-3.053v-.7671zm-2.163-1.4113h.905v5.6147c0 .2557.037.4475.111.5753.077.1253.174.2097.292.2532.12.0409.247.0613.38.0613.099 0 .181-.0051.245-.0153.064-.0128.115-.023.153-.0307l.184.8131c-.061.023-.147.046-.256.069-.11.0256-.25.0383-.419.0383-.255 0-.506-.0549-.751-.1649-.243-.1099-.445-.2774-.606-.5024-.159-.225-.238-.5088-.238-.8514zm5.931 7.425c-.567 0-1.057-.1253-1.469-.3759-.409-.2531-.725-.6059-.947-1.0585-.22-.4551-.33-.9844-.33-1.5878s.11-1.1352.33-1.5954c.222-.4628.532-.8233.928-1.0816.399-.2608.864-.3912 1.396-.3912.307 0 .61.0512.909.1534.299.1023.572.2685.817.4986.245.2276.441.5293.587.9051.146.3759.218.8387.218 1.3884v.3835h-4.54v-.7824h3.62c0-.3324-.067-.629-.199-.8898-.131-.2607-.318-.4666-.56-.6174-.241-.1509-.525-.2263-.852-.2263-.36 0-.672.0895-.936.2685-.26.1764-.461.4065-.602.6903-.14.2838-.211.5881-.211.9128v.5216c0 .4449.077.822.23 1.1314.156.3068.372.5407.649.7018.276.1585.597.2378.962.2378.238 0 .453-.0332.645-.0997.194-.069.361-.1713.502-.3068.141-.1381.249-.3094.326-.514l.874.2455c-.092.2966-.246.5574-.464.7824-.217.2224-.485.3963-.805.5216-.32.1227-.679.1841-1.078.1841zm7.299-.1228h-.998l2.885-7.8545h.981l2.884 7.8545h-.997l-2.347-6.6119h-.061zm.368-3.0681h4.019v.8437h-4.019zm7.559-4.7864v7.8545h-.951v-7.8545zm4.822 7.8545v-5.8909h.905v5.8909zm.46-6.8727c-.176 0-.328-.0601-.456-.1802-.126-.1202-.188-.2647-.188-.4334 0-.1688.062-.3132.188-.4334.128-.1202.28-.1803.456-.1803.177 0 .327.0601.453.1803.128.1202.191.2646.191.4334 0 .1687-.063.3132-.191.4334-.126.1201-.276.1802-.453.1802zm3.008 3.329v3.5437h-.905v-5.8909h.874v.9205h.077c.138-.2992.348-.5395.629-.721.281-.1841.644-.2762 1.089-.2762.399 0 .748.0818 1.047.2455.299.1611.532.4065.698.7363.166.3273.249.7415.249 1.2427v3.7431h-.905v-3.6818c0-.4628-.12-.8233-.36-1.0815-.241-.2608-.57-.3912-.99-.3912-.289 0-.547.0626-.774.1879-.225.1253-.403.3081-.533.5485-.131.2403-.196.5318-.196.8744zm11.012-2.3472v.7671h-3.053v-.7671zm-2.163-1.4113h.905v5.6147c0 .2557.037.4475.111.5753.077.1253.174.2097.292.2532.12.0409.246.0613.379.0613.1 0 .182-.0051.246-.0153.064-.0128.115-.023.153-.0307l.184.8131c-.061.023-.147.046-.257.069-.11.0256-.249.0383-.418.0383-.255 0-.506-.0549-.752-.1649-.242-.1099-.444-.2774-.605-.5024-.159-.225-.238-.5088-.238-.8514zm4.556 3.7585v3.5437h-.905v-7.8545h.905v2.8841h.077c.138-.3043.345-.5459.621-.7249.279-.1815.649-.2723 1.112-.2723.402 0 .753.0806 1.055.2416.302.1586.536.4027.702.7326.169.3273.253.744.253 1.2503v3.7431h-.905v-3.6818c0-.4679-.122-.8297-.365-1.0853-.24-.2583-.574-.3874-1.001-.3874-.296 0-.562.0626-.797.1879-.233.1253-.417.3081-.553.5485-.133.2403-.199.5318-.199.8744zm7.946 3.6665c-.568 0-1.058-.1253-1.469-.3759-.409-.2531-.725-.6059-.948-1.0585-.219-.4551-.329-.9844-.329-1.5878s.11-1.1352.329-1.5954c.223-.4628.532-.8233.929-1.0816.398-.2608.864-.3912 1.396-.3912.306 0 .609.0512.909.1534.299.1023.571.2685.816.4986.246.2276.441.5293.587.9051.146.3759.219.8387.219 1.3884v.3835h-4.541v-.7824h3.62c0-.3324-.066-.629-.199-.8898-.13-.2607-.317-.4666-.56-.6174-.24-.1509-.524-.2263-.851-.2263-.361 0-.673.0895-.936.2685-.261.1764-.462.4065-.602.6903-.141.2838-.211.5881-.211.9128v.5216c0 .4449.076.822.23 1.1314.156.3068.372.5407.648.7018.276.1585.597.2378.963.2378.237 0 .452-.0332.644-.0997.194-.069.362-.1713.502-.3068.141-.1381.25-.3094.326-.514l.875.2455c-.092.2966-.247.5574-.464.7824-.218.2224-.486.3963-.806.5216-.319.1227-.679.1841-1.077.1841zm3.816-.1228v-5.8909h.905v5.8909zm.46-6.8727c-.177 0-.329-.0601-.456-.1802-.126-.1202-.188-.2647-.188-.4334 0-.1688.062-.3132.188-.4334.127-.1202.279-.1803.456-.1803.176 0 .327.0601.452.1803.128.1202.192.2646.192.4334 0 .1687-.064.3132-.192.4334-.125.1201-.276.1802-.452.1802zm2.103 6.8727v-5.8909h.874v.8898h.061c.108-.2915.302-.528.583-.7095.282-.1815.599-.2723.951-.2723.067 0 .15.0013.25.0038.099.0026.175.0064.226.0115v.9205c-.031-.0077-.101-.0192-.211-.0345-.107-.0179-.221-.0269-.341-.0269-.287 0-.542.0601-.767.1803-.223.1176-.399.2812-.53.4909-.127.2071-.191.4436-.191.7095v3.7278zm-213.4021 13.1384c-.3733 0-.712-.071-1.0163-.211-.3043-.143-.5459-.349-.7249-.618-.1789-.271-.2684-.598-.2684-.982 0-.337.0665-.611.1994-.82.133-.212.3107-.379.5331-.499s.4679-.209.7364-.268c.271-.062.5433-.11.8169-.146.3579-.046.6481-.081.8706-.104.225-.025.3886-.067.4909-.126.1048-.059.1572-.161.1572-.307v-.031c0-.378-.1035-.672-.3106-.882-.2046-.209-.5152-.314-.932-.314-.4321 0-.7709.094-1.0163.284-.2455.189-.4181.391-.5178.606l-.8591-.307c.1534-.358.358-.637.6137-.836.2582-.202.5394-.343.8437-.422.3068-.082.6085-.123.9051-.123.1892 0 .4066.023.652.069.248.044.4871.134.7172.272.2327.138.4257.347.5791.626.1534.278.2301.651.2301 1.119v3.882h-.9051v-.798h-.046c-.0614.128-.1636.265-.3068.41-.1432.146-.3337.27-.5715.372-.2378.103-.528.154-.8706.154zm.1381-.813c.358 0 .6597-.071.9051-.211.248-.141.4347-.322.56-.545.1278-.222.1917-.456.1917-.702v-.828c-.0383.046-.1227.088-.2531.126-.1278.036-.2761.068-.4449.096-.1662.026-.3285.049-.4871.069-.1559.018-.2825.034-.3797.046-.2352.031-.4551.081-.6596.15-.202.066-.3656.167-.4909.303-.1227.133-.1841.314-.1841.545 0 .314.1163.552.349.713.2352.158.5331.238.8936.238zm4.214 2.884v-8.1h.8744v.936h.1074c.0665-.103.1585-.233.2761-.392.1202-.161.2915-.304.5139-.429.225-.128.5293-.192.9128-.192.496 0 .9333.124 1.3117.372s.6737.6.8859 1.055.3183.992.3183 1.611c0 .623-.1061 1.164-.3183 1.622-.2122.455-.5062.808-.8821 1.058-.3759.248-.8092.372-1.3001.372-.3785 0-.6814-.062-.909-.188-.2275-.127-.4027-.272-.5254-.433-.1227-.164-.2173-.299-.2838-.406h-.0767v3.114zm.8897-5.155c0 .445.0652.838.1956 1.178.1304.337.3209.602.5715.793.2505.19.5574.284.9204.284.3784 0 .6942-.099.9473-.299.2557-.202.4475-.473.5753-.813.1304-.343.1956-.723.1956-1.143 0-.414-.0639-.787-.1918-1.12-.1252-.335-.3157-.599-.5714-.794-.2531-.196-.5714-.295-.955-.295-.3682 0-.6775.093-.9281.28-.2506.184-.4398.442-.5676.775-.1279.33-.1918.714-.1918 1.154zm5.6915 5.155v-8.1h.8744v.936h.1074c.0665-.103.1585-.233.2762-.392.1201-.161.2914-.304.5139-.429.225-.128.5292-.192.9128-.192.496 0 .9332.124 1.3116.372s.6737.6.886 1.055c.2122.455.3183.992.3183 1.611 0 .623-.1061 1.164-.3183 1.622-.2123.455-.5063.808-.8822 1.058-.3758.248-.8092.372-1.3001.372-.3784 0-.6814-.062-.9089-.188-.2276-.127-.4027-.272-.5255-.433-.1227-.164-.2173-.299-.2838-.406h-.0767v3.114zm.8898-5.155c0 .445.0652.838.1956 1.178.1304.337.3209.602.5714.793.2506.19.5574.284.9205.284.3784 0 .6942-.099.9473-.299.2557-.202.4474-.473.5753-.813.1304-.343.1956-.723.1956-1.143 0-.414-.064-.787-.1918-1.12-.1253-.335-.3158-.599-.5714-.794-.2532-.196-.5715-.295-.955-.295-.3682 0-.6776.093-.9281.28-.2506.184-.4398.442-.5677.775-.1278.33-.1917.714-.1917 1.154zm6.5966-4.9089v7.8549h-.9051v-7.8549zm1.6577 7.8549v-5.891h.9052v5.891zm.4603-6.8731c-.1764 0-.3286-.0601-.4564-.1802-.1253-.1202-.1879-.2647-.1879-.4334 0-.1688.0626-.3132.1879-.4334.1278-.1202.28-.1803.4564-.1803s.3272.0601.4525.1803c.1279.1202.1918.2646.1918.4334 0 .1687-.0639.3132-.1918.4334-.1253.1201-.2761.1802-.4525.1802zm4.4958 6.9951c-.5523 0-1.0278-.13-1.4267-.391-.3988-.261-.7057-.62-.9204-1.078-.2148-.457-.3222-.98-.3222-1.568 0-.598.1099-1.126.3298-1.584.2225-.46.5318-.82.9282-1.078.3988-.261.8642-.391 1.396-.391.4142 0 .7875.077 1.1199.23.3324.154.6047.368.8169.644.2122.277.3439.599.395.967h-.9051c-.0691-.269-.2225-.506-.4602-.713-.2353-.21-.5523-.315-.9512-.315-.3528 0-.6622.092-.9281.276-.2634.182-.4692.439-.6175.771-.1457.33-.2186.717-.2186 1.162 0 .455.0716.852.2148 1.189.1457.338.3503.6.6136.786.2659.187.5779.28.9358.28.2352 0 .4487-.041.6405-.122.1918-.082.3541-.2.4871-.353.1329-.154.2275-.338.2838-.553h.9051c-.0511.348-.1777.661-.3797.94-.1994.276-.4641.496-.7939.66-.3273.161-.7082.241-1.1429.241zm5.3732.016c-.3733 0-.7121-.071-1.0164-.211-.3042-.143-.5458-.349-.7248-.618-.179-.271-.2685-.598-.2685-.982 0-.337.0665-.611.1994-.82.133-.212.3107-.379.5331-.499.2225-.12.4679-.209.7364-.268.271-.062.5433-.11.8169-.146.358-.046.6482-.081.8706-.104.225-.025.3886-.067.4909-.126.1048-.059.1573-.161.1573-.307v-.031c0-.378-.1036-.672-.3107-.882-.2045-.209-.5152-.314-.932-.314-.4321 0-.7708.094-1.0163.284-.2454.189-.418.391-.5177.606l-.8591-.307c.1534-.358.3579-.637.6136-.836.2582-.202.5395-.343.8438-.422.3068-.082.6085-.123.9051-.123.1892 0 .4065.023.652.069.248.044.487.134.7171.272.2327.138.4258.347.5792.626.1534.278.2301.651.2301 1.119v3.882h-.9051v-.798h-.0461c-.0613.128-.1636.265-.3068.41-.1432.146-.3336.27-.5714.372-.2378.103-.528.154-.8706.154zm.138-.813c.358 0 .6597-.071.9052-.211.248-.141.4346-.322.5599-.545.1278-.222.1918-.456.1918-.702v-.828c-.0384.046-.1228.088-.2532.126-.1278.036-.2761.068-.4449.096-.1661.026-.3285.049-.487.069-.156.018-.2826.034-.3797.046-.2352.031-.4551.081-.6597.15-.202.066-.3656.167-.4909.303-.1227.133-.1841.314-.1841.545 0 .314.1164.552.349.713.2353.158.5331.238.8936.238zm6.7759-5.216v.767h-3.0528v-.767zm-2.163-1.4116h.9051v5.6146c0 .256.037.448.1112.575.0767.126.1739.21.2915.254.1201.04.2467.061.3797.061.0997 0 .1815-.005.2454-.015.0639-.013.1151-.023.1534-.031l.1841.813c-.0613.023-.147.046-.2569.069-.11.026-.2493.038-.4181.038-.2557 0-.5062-.055-.7517-.165-.2429-.11-.4449-.277-.606-.502-.1585-.225-.2377-.509-.2377-.851zm3.5245 7.3026v-5.891h.9051v5.891zm.4603-6.8731c-.1765 0-.3286-.0601-.4564-.1802-.1253-.1202-.188-.2647-.188-.4334 0-.1688.0627-.3132.188-.4334.1278-.1202.2799-.1803.4564-.1803.1764 0 .3272.0601.4525.1803.1279.1202.1918.2646.1918.4334 0 .1687-.0639.3132-.1918.4334-.1253.1201-.2761.1802-.4525.1802zm4.4958 6.9951c-.5318 0-.9984-.126-1.3999-.379-.3988-.253-.7107-.608-.9357-1.063-.2225-.455-.3337-.987-.3337-1.595 0-.614.1112-1.149.3337-1.607.225-.458.5369-.813.9357-1.066.4015-.253.8681-.38 1.3999-.38s.9972.127 1.396.38c.4015.253.7134.608.9358 1.066.225.458.3375.993.3375 1.607 0 .608-.1125 1.14-.3375 1.595-.2224.455-.5343.81-.9358 1.063-.3988.253-.8642.379-1.396.379zm0-.813c.404 0 .7364-.103.9972-.31s.4538-.48.5791-.817c.1253-.338.1879-.703.1879-1.097s-.0626-.761-.1879-1.101-.3183-.615-.5791-.824c-.2608-.21-.5932-.315-.9972-.315s-.7364.105-.9972.315c-.2607.209-.4538.484-.5791.824s-.1879.707-.1879 1.101.0626.759.1879 1.097c.1253.337.3184.61.5791.817.2608.207.5932.31.9972.31zm4.9561-2.853v3.544h-.9051v-5.891h.8744v.92h.0767c.1381-.299.3477-.539.629-.721.2812-.184.6443-.276 1.0892-.276.3988 0 .7479.082 1.047.245.2991.162.5318.407.698.737.1662.327.2493.741.2493 1.242v3.744h-.9051v-3.682c0-.463-.1202-.823-.3605-1.082-.2404-.261-.5702-.391-.9895-.391-.2889 0-.5472.063-.7747.188-.225.125-.4027.308-.5331.548-.1304.241-.1956.532-.1956.875zm9.5852-1.028-.8131.23c-.0511-.135-.1266-.267-.2263-.395-.0971-.13-.2301-.238-.3988-.322-.1688-.084-.3848-.127-.6482-.127-.3605 0-.6609.084-.9013.25-.2378.163-.3566.372-.3566.625 0 .225.0818.403.2454.533s.4193.239.7671.326l.8744.215c.5267.128.9192.323 1.1774.587.2582.26.3874.597.3874 1.008 0 .338-.0972.639-.2915.905-.1918.266-.4602.476-.8054.629-.3452.154-.7466.23-1.2043.23-.6008 0-1.0981-.13-1.4919-.391-.3937-.261-.643-.642-.7479-1.143l.8591-.214c.0819.317.2365.554.4641.713.2301.158.5305.238.9013.238.4219 0 .7568-.09 1.0048-.269.2506-.181.3759-.399.3759-.652 0-.204-.0716-.376-.2148-.514-.1432-.14-.3631-.245-.6597-.314l-.9818-.23c-.5395-.128-.9358-.326-1.1889-.595-.2506-.271-.3759-.61-.3759-1.016 0-.333.0934-.627.28-.882.1892-.256.4462-.457.7709-.602.3273-.146.698-.219 1.1122-.219.583 0 1.0406.128 1.373.384.335.255.5727.593.7134 1.012z" fill="#6b7280"/><rect fill="#111928" height="10" rx="5" width="10" x="12" y="128.786"/><g clip-path="url(#a)"><path d="m17.1219 133.382c-.3292-.066-.6184-.245-.8089-.499-.0305-.04-.0518-.086-.0626-.134-.0107-.048-.0107-.098.0002-.146.094-.31.6249-.483 1.1385-.369.2395.049.4566.164.6211.33.0432.047.0962.086.1558.114s.1248.046.1916.051c.0669.005.1343-.002.1982-.021s.1231-.049.1742-.089.093-.088.1235-.143.0488-.114.054-.176c.0052-.061-.003-.122-.0239-.181-.0209-.058-.0543-.112-.0981-.159-.3033-.315-.7068-.535-1.1541-.63-.0271-.007-.0536-.007-.0808-.012v-.249c0-.123-.0536-.242-.1491-.329s-.225-.136-.36-.136c-.1351 0-.2646.049-.3601.136-.0954.087-.1491.206-.1491.329v.256c-.2926.052-.5644.175-.7868.356s-.3869.414-.4763.674c-.0474.169-.0572.344-.0287.515.0285.172.0946.337.1944.484.3284.473.8482.808 1.4457.932.3293.066.6185.245.8089.499.0306.041.0519.086.0627.134s.0108.098.0001.146c-.0947.31-.626.483-1.1389.369-.2419-.048-.4609-.165-.6256-.335-.087-.093-.211-.152-.3449-.162s-.2668.028-.3698.107-.1678.192-.1801.314c-.0124.123.0287.244.1141.339.3045.322.7126.546 1.1657.642.0529.012.1055.018.1585.027v.136c0 .123.0536.242.1491.329s.225.136.3601.136c.135 0 .2645-.049.36-.136s.1491-.206.1491-.329v-.173c.2768-.06.5316-.186.7393-.364s.361-.402.445-.651c.0473-.168.057-.343.0285-.515s-.0947-.336-.1945-.484c-.3283-.473-.8481-.809-1.446-.933z" fill="#fff"/></g><path d="m31.9651 137.883c-.4084 0-.7761-.081-1.1032-.244-.3272-.162-.5893-.385-.7865-.668-.1973-.283-.3051-.605-.3237-.967h.8352c.0325.322.1787.589.4385.8.2622.209.5754.313.9397.313.2923 0 .5521-.068.7795-.205.2297-.137.4095-.325.5394-.564.1323-.241.1984-.514.1984-.817 0-.311-.0685-.589-.2053-.832-.1346-.246-.3202-.44-.5569-.581-.2366-.142-.5069-.214-.8108-.216-.2181-.002-.442.031-.6717.101-.2297.067-.4188.154-.5672.261l-.8074-.098.4315-3.508h3.7028v.766h-2.9789l-.2506 2.102h.0418c.1461-.116.3294-.212.5498-.289.2204-.076.4501-.115.6891-.115.4362 0 .8248.105 1.1658.314.3434.206.6125.489.8074.849.1972.359.2958.77.2958 1.232 0 .454-.1021.86-.3062 1.218-.2019.355-.4803.635-.8353.842-.3549.204-.7586.306-1.211.306zm5.9623 0c-.4084 0-.7761-.081-1.1032-.244-.3272-.162-.5893-.385-.7865-.668s-.3051-.605-.3237-.967h.8352c.0325.322.1787.589.4385.8.2622.209.5754.313.9397.313.2923 0 .5521-.068.7795-.205.2297-.137.4095-.325.5394-.564.1323-.241.1984-.514.1984-.817 0-.311-.0685-.589-.2053-.832-.1346-.246-.3202-.44-.5569-.581-.2366-.142-.5069-.214-.8108-.216-.2181-.002-.442.031-.6717.101-.2297.067-.4188.154-.5672.261l-.8074-.098.4315-3.508h3.7028v.766h-2.9789l-.2506 2.102h.0418c.1461-.116.3294-.212.5498-.289.2204-.076.4501-.115.6891-.115.4362 0 .8248.105 1.1658.314.3434.206.6125.489.8074.849.1972.359.2958.77.2958 1.232 0 .454-.1021.86-.3062 1.218-.2019.355-.4803.635-.8353.842-.3549.204-.7586.306-1.211.306zm12.3518-4.997h-.8631c-.0511-.249-.1404-.467-.268-.655-.1253-.188-.2784-.345-.4594-.473-.1786-.13-.377-.227-.5951-.292-.218-.065-.4454-.098-.6821-.098-.4315 0-.8224.109-1.1728.327-.348.219-.6252.54-.8317.964-.2042.425-.3063.946-.3063 1.563s.1021 1.138.3063 1.563c.2065.424.4837.745.8317.964.3504.218.7413.327 1.1728.327.2367 0 .4641-.033.6821-.098.2181-.065.4165-.161.5951-.289.181-.13.3341-.288.4594-.476.1276-.191.2169-.409.268-.655h.8631c-.065.365-.1833.691-.355.978-.1717.288-.3851.533-.6404.735-.2552.199-.5417.351-.8595.455-.3156.105-.6531.157-1.0128.157-.6078 0-1.1484-.148-1.6217-.445s-.8457-.72-1.1171-1.267c-.2715-.548-.4072-1.197-.4072-1.949s.1357-1.401.4072-1.949c.2714-.547.6438-.97 1.1171-1.267s1.0139-.445 1.6217-.445c.3597 0 .6972.052 1.0128.157.3178.104.6043.257.8595.459.2553.199.4687.443.6404.731.1717.285.29.611.355.978zm1.2832 4.9v-5.346h.7935v.808h.0557c.0974-.265.2738-.48.529-.644.2552-.165.5429-.247.863-.247.0604 0 .1358.001.2262.003.0905.002.159.006.2054.011v.835c-.0279-.007-.0917-.018-.1914-.032-.0975-.016-.2007-.024-.3098-.024-.2598 0-.4918.055-.696.164-.2018.106-.3619.255-.4802.445-.116.188-.174.403-.174.644v3.383zm5.7248.111c-.515 0-.9593-.114-1.3328-.341-.3713-.23-.6578-.55-.8596-.961-.1996-.413-.2993-.893-.2993-1.44 0-.548.0997-1.03.2993-1.448.2018-.42.4825-.747.8422-.981.3619-.237.7841-.355 1.2667-.355.2784 0 .5533.046.8248.139.2714.093.5185.243.7413.452.2227.207.4002.48.5324.822.1323.341.1984.76.1984 1.259v.348h-4.1205v-.71h3.2853c0-.301-.0604-.57-.181-.807-.1183-.237-.2877-.423-.5081-.56-.2181-.137-.4756-.206-.7726-.206-.3271 0-.6102.082-.8491.244-.2367.16-.4188.369-.5464.626-.1276.258-.1914.534-.1914.829v.473c0 .404.0696.746.2088 1.027.1415.278.3376.49.5881.636.2506.144.5418.216.8735.216.2158 0 .4107-.03.5847-.09.1763-.063.3283-.156.4559-.279.1276-.125.2262-.28.2958-.466l.7935.223c-.0836.269-.2239.506-.4211.71-.1972.202-.4408.359-.7309.473-.29.111-.6159.167-.9779.167zm5.4812 0c-.4454 0-.8387-.113-1.1797-.338-.3411-.227-.6079-.547-.8005-.96-.1925-.415-.2888-.906-.2888-1.472 0-.562.0963-1.049.2888-1.462.1926-.413.4606-.732.8039-.957.3434-.225.7401-.337 1.1902-.337.348 0 .623.058.8248.174.2042.113.3596.243.4664.389.109.144.1937.263.254.355h.0696v-2.631h.8213v7.128h-.7935v-.822h-.0974c-.0603.098-.1462.221-.2575.369-.1114.146-.2703.277-.4768.393-.2065.114-.4814.171-.8248.171zm.1114-.738c.3294 0 .6078-.086.8352-.257.2274-.174.4002-.414.5185-.721.1184-.308.1775-.664.1775-1.068 0-.399-.058-.748-.174-1.048-.116-.301-.2877-.536-.515-.703-.2274-.169-.5081-.254-.8422-.254-.348 0-.638.09-.8701.268-.2296.177-.4025.417-.5185.721-.1137.301-.1705.64-.1705 1.016 0 .38.058.726.174 1.037.1183.309.2923.554.522.738.232.181.5197.271.8631.271zm3.9569.627v-5.346h.8213v5.346zm.4176-6.237c-.1601 0-.2982-.054-.4142-.163-.1136-.109-.1705-.24-.1705-.394 0-.153.0569-.284.1705-.393.116-.109.2541-.163.4142-.163s.2969.054.4106.163c.116.109.174.24.174.393 0 .154-.058.285-.174.394-.1137.109-.2505.163-.4106.163zm4.2327.891v.696h-2.7702v-.696zm-1.9628-1.28h.8213v5.094c0 .232.0336.406.1009.522.0696.114.1578.191.2645.23.109.037.2239.056.3445.056.0905 0 .1648-.005.2228-.014.058-.012.1044-.021.1392-.028l.167.738c-.0557.021-.1334.042-.2332.062-.0997.024-.2262.035-.3793.035-.232 0-.4594-.05-.6821-.149-.2204-.1-.4037-.252-.5498-.456-.1439-.204-.2158-.462-.2158-.773zm6.8889 2.477-.7378.209c-.0464-.123-.1149-.242-.2053-.358-.0882-.119-.2088-.216-.362-.293-.1531-.076-.3491-.114-.5881-.114-.3271 0-.5998.075-.8178.226-.2158.148-.3237.337-.3237.567 0 .204.0743.365.2227.484.1485.118.3805.217.6961.296l.7934.194c.478.116.8341.294 1.0684.533.2343.237.3515.542.3515.915 0 .306-.0882.58-.2645.821-.174.242-.4176.432-.7308.571s-.6775.209-1.0928.209c-.5452 0-.9964-.118-1.3537-.355s-.5835-.582-.6786-1.037l.7795-.195c.0742.288.2146.504.4211.647.2088.144.4814.216.8178.216.3828 0 .6868-.081.9118-.243.2274-.165.3411-.362.3411-.592 0-.186-.065-.341-.1949-.466-.1299-.128-.3295-.223-.5986-.286l-.8909-.209c-.4895-.116-.8492-.295-1.0788-.539-.2274-.246-.3411-.553-.3411-.922 0-.302.0847-.569.2541-.801.1716-.232.4048-.414.6995-.546.2969-.132.6333-.198 1.0092-.198.529 0 .9443.116 1.2459.348.3039.232.5197.538.6473.918z" fill="#6b7280"/></svg>
