<svg width="18" height="18" viewBox="0 0 18 18" fill="none" xmlns="http://www.w3.org/2000/svg">
<path fill-rule="evenodd" clip-rule="evenodd" d="M4.04068 4.04068C5.47534 2.60603 7.42114 1.80005 9.45005 1.80005C11.479 1.80005 13.4248 2.60603 14.8594 4.04068C16.2941 5.47534 17.1 7.42114 17.1 9.45005C17.1 10.4547 16.9022 11.4494 16.5177 12.3776C16.1333 13.3057 15.5698 14.149 14.8594 14.8594C14.149 15.5698 13.3057 16.1333 12.3776 16.5177C11.4494 16.9022 10.4547 17.1 9.45005 17.1C8.44544 17.1 7.45066 16.9022 6.52252 16.5177C5.59438 16.1333 4.75105 15.5698 4.04068 14.8594C3.33031 14.149 2.76682 13.3057 2.38237 12.3776C1.99792 11.4494 1.80005 10.4547 1.80005 9.45005C1.80005 7.42114 2.60603 5.47534 4.04068 4.04068ZM9.45005 3.60005C7.89853 3.60005 6.41056 4.21639 5.31347 5.31347C4.21639 6.41056 3.60005 7.89853 3.60005 9.45005C3.60005 10.2183 3.75136 10.979 4.04535 11.6887C4.33934 12.3985 4.77025 13.0434 5.31347 13.5866C5.8567 14.1298 6.5016 14.5608 7.21135 14.8547C7.92111 15.1487 8.68182 15.3 9.45005 15.3C10.2183 15.3 10.979 15.1487 11.6887 14.8547C12.3985 14.5608 13.0434 14.1298 13.5866 13.5866C14.1298 13.0434 14.5608 12.3985 14.8547 11.6887C15.1487 10.979 15.3 10.2183 15.3 9.45005C15.3 7.89853 14.6837 6.41056 13.5866 5.31347C12.4895 4.21639 11.0016 3.60005 9.45005 3.60005ZM9.45005 4.80005C9.94711 4.80005 10.35 5.20299 10.35 5.70005V9.07726L12.3364 11.0637C12.6879 11.4151 12.6879 11.985 12.3364 12.3364C11.985 12.6879 11.4151 12.6879 11.0637 12.3364L8.81365 10.0864C8.64487 9.91766 8.55005 9.68874 8.55005 9.45005V5.70005C8.55005 5.20299 8.95299 4.80005 9.45005 4.80005Z" fill="#AC94FA"/>
</svg>
