<svg width="18" height="18" viewBox="0 0 18 18" fill="none" xmlns="http://www.w3.org/2000/svg">
<path d="M9 1.49976C13.1423 1.49976 16.5 4.85751 16.5 8.99976C16.5016 10.9689 15.7287 12.8596 14.3482 14.2637C12.9677 15.6679 11.0904 16.4728 9.12152 16.5047C7.15267 16.5366 5.25025 15.7929 3.825 14.4343C2.39974 13.0756 1.56599 11.2109 1.50375 9.24276L1.5 8.99976L1.503 8.78976C1.614 4.74501 4.9275 1.49976 9 1.49976ZM9 8.24976H8.25L8.16225 8.25501C7.97996 8.27669 7.81196 8.36447 7.69006 8.50173C7.56816 8.63899 7.50084 8.81618 7.50084 8.99976C7.50084 9.18333 7.56816 9.36053 7.69006 9.49778C7.81196 9.63504 7.97996 9.72282 8.16225 9.74451L8.25 9.74975V11.9998L8.25525 12.0875C8.27499 12.2549 8.35056 12.4108 8.46976 12.53C8.58896 12.6492 8.74484 12.7248 8.91225 12.7445L9 12.7498H9.75L9.83775 12.7445C10.0052 12.7248 10.161 12.6492 10.2802 12.53C10.3994 12.4108 10.475 12.2549 10.4948 12.0875L10.5 11.9998L10.4948 11.912C10.4768 11.759 10.4122 11.6152 10.3097 11.5002C10.2072 11.3852 10.0717 11.3046 9.92175 11.2693L9.83775 11.2543L9.75 11.2498V8.99976L9.74475 8.91201C9.72501 8.74459 9.64944 8.58871 9.53024 8.46951C9.41104 8.35032 9.25516 8.27475 9.08775 8.25501L9 8.24976ZM9.0075 5.99976L8.91225 6.00501C8.72996 6.02669 8.56196 6.11447 8.44006 6.25173C8.31816 6.38899 8.25084 6.56618 8.25084 6.74976C8.25084 6.93333 8.31816 7.11052 8.44006 7.24778C8.56196 7.38504 8.72996 7.47282 8.91225 7.49451L9 7.49976L9.09525 7.49451C9.27754 7.47282 9.44554 7.38504 9.56744 7.24778C9.68934 7.11052 9.75667 6.93333 9.75667 6.74976C9.75667 6.56618 9.68934 6.38899 9.56744 6.25173C9.44554 6.11447 9.27754 6.02669 9.09525 6.00501L9.0075 5.99976Z" fill="#9CA3AF"/>
</svg>
