<svg width="18" height="18" viewBox="0 0 18 18" fill="none" xmlns="http://www.w3.org/2000/svg">
<path d="M3.3115 9.00007C4.94052 6.50621 6.83938 5.4001 8.99998 5.4001C11.1261 5.4001 12.9874 6.46884 14.5936 8.85734C14.871 9.2698 15.4303 9.37931 15.8427 9.10193C16.2552 8.82454 16.3647 8.26531 16.0873 7.85285C14.2376 5.10235 11.8718 3.6001 8.99998 3.6001C5.88997 3.6001 3.38595 5.35753 1.47823 8.53705C1.30723 8.82205 1.30722 9.1781 1.47821 9.46311C3.01298 12.0213 4.93879 13.6745 7.29379 14.2118C7.7784 14.3224 8.26087 14.0191 8.37143 13.5345C8.48199 13.0499 8.17876 12.5675 7.69416 12.4569C6.08646 12.0901 4.61493 10.9949 3.3115 9.00007Z" fill="#AC94FA"/>
<path d="M8.51299 6.65008C8.89748 6.57036 9.29566 6.5862 9.67261 6.6962C10.0496 6.80621 10.3937 7.00702 10.675 7.28103C10.9563 7.55504 11.166 7.89388 11.2858 8.26783C11.4375 8.74118 11.1767 9.24785 10.7033 9.39951C10.23 9.55117 9.7233 9.29038 9.57164 8.81703C9.54169 8.72354 9.48925 8.63883 9.41894 8.57033C9.34862 8.50183 9.26258 8.45163 9.16834 8.42412C9.0741 8.39662 8.97456 8.39266 8.87844 8.41259C8.78231 8.43252 8.69255 8.47574 8.61702 8.53844C8.54148 8.60114 8.48249 8.68142 8.4452 8.77223C8.40792 8.86304 8.39349 8.96161 8.40318 9.0593C8.41286 9.15699 8.44637 9.25081 8.50076 9.33253C8.55515 9.41425 8.62877 9.48138 8.71514 9.52803C9.15249 9.76422 9.31557 10.3102 9.07937 10.7476C8.84318 11.1849 8.29716 11.348 7.85981 11.1118C7.5143 10.9252 7.21986 10.6567 7.0023 10.3298C6.78474 10.0029 6.65071 9.62767 6.61196 9.23691C6.57322 8.84616 6.63094 8.45187 6.78007 8.08862C6.9292 7.72537 7.16518 7.40426 7.46731 7.15345C7.76944 6.90265 8.1285 6.7298 8.51299 6.65008Z" fill="#AC94FA"/>
<path fill-rule="evenodd" clip-rule="evenodd" d="M10.3617 11.0788C10.8446 10.6105 11.4912 10.3492 12.1639 10.3505C12.6401 10.3514 13.1028 10.4839 13.5031 10.728C13.9048 10.4848 14.3686 10.3537 14.8455 10.3546C15.5183 10.3559 16.164 10.6198 16.6451 11.0901C16.8847 11.3241 17.075 11.6037 17.2047 11.9125C17.3344 12.2213 17.401 12.5529 17.4004 12.8878C17.3999 13.2227 17.3322 13.5541 17.2015 13.8625C17.0711 14.17 16.8805 14.4484 16.641 14.6813L16.6392 14.6831L14.13 17.1429C13.7798 17.4862 13.2191 17.4859 12.8692 17.1422L10.3547 14.6718L10.3537 14.6709C10.1146 14.437 9.92478 14.1576 9.79532 13.8492C9.66568 13.5404 9.59923 13.2088 9.59989 12.8738C9.60054 12.5389 9.66829 12.2075 9.79913 11.8993C9.92996 11.591 10.1213 11.312 10.3617 11.0788ZM12.1604 12.1505C11.9568 12.1501 11.761 12.2292 11.6148 12.371C11.547 12.4367 11.493 12.5155 11.4561 12.6024C11.4192 12.6894 11.4001 12.7829 11.3999 12.8774C11.3997 12.9718 11.4184 13.0654 11.455 13.1525C11.4916 13.2396 11.5452 13.3185 11.6128 13.3845L11.6145 13.3862L13.5007 15.2392L15.3857 13.3913C15.4535 13.3255 15.5074 13.2468 15.5443 13.1598C15.5812 13.0728 15.6003 12.9794 15.6004 12.8849C15.6006 12.7904 15.5818 12.6969 15.5452 12.6098C15.5086 12.5227 15.4549 12.4438 15.3874 12.3778C15.2417 12.2353 15.0458 12.155 14.842 12.1546C14.639 12.1542 14.4439 12.2328 14.2979 12.3737L14.1321 12.5365C13.7814 12.8809 13.2193 12.8803 12.8694 12.5351L12.7052 12.3731L12.704 12.372C12.5585 12.2303 12.3635 12.1509 12.1604 12.1505Z" fill="#AC94FA"/>
</svg>
