<svg width="18" height="18" viewBox="0 0 18 18" fill="none" xmlns="http://www.w3.org/2000/svg">
<path d="M4.5001 3.9001C4.34097 3.9001 4.18835 3.96331 4.07583 4.07583C3.96331 4.18836 3.9001 4.34097 3.9001 4.5001V6.0001C3.9001 6.49715 3.49715 6.9001 3.0001 6.9001C2.50304 6.9001 2.1001 6.49715 2.1001 6.0001V4.5001C2.1001 3.86358 2.35295 3.25313 2.80304 2.80304C3.25313 2.35295 3.86358 2.1001 4.5001 2.1001H6.0001C6.49715 2.1001 6.9001 2.50304 6.9001 3.0001C6.9001 3.49715 6.49715 3.9001 6.0001 3.9001H4.5001Z" fill="#AC94FA"/>
<path d="M11.1001 3.0001C11.1001 2.50304 11.503 2.1001 12.0001 2.1001H13.5001C14.1366 2.1001 14.7471 2.35295 15.1972 2.80304C15.6472 3.25313 15.9001 3.86358 15.9001 4.5001V6.0001C15.9001 6.49715 15.4972 6.9001 15.0001 6.9001C14.503 6.9001 14.1001 6.49715 14.1001 6.0001V4.5001C14.1001 4.34097 14.0369 4.18836 13.9244 4.07583C13.8118 3.96331 13.6592 3.9001 13.5001 3.9001H12.0001C11.503 3.9001 11.1001 3.49715 11.1001 3.0001Z" fill="#AC94FA"/>
<path d="M5.1001 6.7501C5.1001 6.25304 5.50304 5.8501 6.0001 5.8501H10.5001C10.9972 5.8501 11.4001 6.25304 11.4001 6.7501C11.4001 7.24715 10.9972 7.6501 10.5001 7.6501H6.0001C5.50304 7.6501 5.1001 7.24715 5.1001 6.7501Z" fill="#AC94FA"/>
<path d="M5.1001 9.0001C5.1001 8.50304 5.50304 8.1001 6.0001 8.1001H12.0001C12.4972 8.1001 12.9001 8.50304 12.9001 9.0001C12.9001 9.49715 12.4972 9.9001 12.0001 9.9001H6.0001C5.50304 9.9001 5.1001 9.49715 5.1001 9.0001Z" fill="#AC94FA"/>
<path d="M5.1001 11.2501C5.1001 10.753 5.50304 10.3501 6.0001 10.3501H9.0001C9.49715 10.3501 9.9001 10.753 9.9001 11.2501C9.9001 11.7472 9.49715 12.1501 9.0001 12.1501H6.0001C5.50304 12.1501 5.1001 11.7472 5.1001 11.2501Z" fill="#AC94FA"/>
<path d="M3.0001 11.1001C3.49715 11.1001 3.9001 11.503 3.9001 12.0001V13.5001C3.9001 13.6592 3.96331 13.8118 4.07583 13.9244C4.18836 14.0369 4.34097 14.1001 4.5001 14.1001H6.0001C6.49715 14.1001 6.9001 14.503 6.9001 15.0001C6.9001 15.4972 6.49715 15.9001 6.0001 15.9001H4.5001C3.86358 15.9001 3.25313 15.6472 2.80304 15.1972C2.35295 14.7471 2.1001 14.1366 2.1001 13.5001V12.0001C2.1001 11.503 2.50304 11.1001 3.0001 11.1001Z" fill="#AC94FA"/>
<path d="M15.0001 11.1001C15.4972 11.1001 15.9001 11.503 15.9001 12.0001V13.5001C15.9001 14.1366 15.6472 14.7471 15.1972 15.1972C14.7471 15.6472 14.1366 15.9001 13.5001 15.9001H12.0001C11.503 15.9001 11.1001 15.4972 11.1001 15.0001C11.1001 14.503 11.503 14.1001 12.0001 14.1001H13.5001C13.6592 14.1001 13.8118 14.0369 13.9244 13.9244C14.0369 13.8118 14.1001 13.6592 14.1001 13.5001V12.0001C14.1001 11.503 14.503 11.1001 15.0001 11.1001Z" fill="#AC94FA"/>
</svg>
